<svg width="1378" height="856" viewBox="0 0 1378 856" fill="none" xmlns="http://www.w3.org/2000/svg">
<g filter="url(#filter0_d_3_137)">
<path d="M49 63H1329V775C1329 777.8 1329 779.2 1328.46 780.27C1327.98 781.211 1327.21 781.976 1326.27 782.455C1325.2 783 1323.8 783 1321 783H57C54.1997 783 52.7996 783 51.73 782.455C50.7892 781.976 50.0243 781.211 49.545 780.27C49 779.2 49 777.8 49 775V63Z" fill="#2F3235"/>
<path d="M50 31.4C50 29.1598 50 28.0397 50.436 27.184C50.8195 26.4314 51.4314 25.8195 52.184 25.436C53.0397 25 54.1598 25 56.4 25H1322.6C1324.84 25 1325.96 25 1326.82 25.436C1327.57 25.8195 1328.18 26.4314 1328.56 27.184C1329 28.0397 1329 29.1598 1329 31.4V62H50V31.4Z" fill="url(#paint0_linear_3_137)"/>
<rect opacity="0.95" x="50" y="62" width="1278" height="1" fill="black"/>
<g filter="url(#filter1_i_3_137)">
<rect x="1259" y="33" width="37" height="22" rx="3" fill="url(#paint1_linear_3_137)"/>
</g>
<rect x="1272.5" y="41.5" width="8" height="8" rx="0.5" stroke="#E9E9EA"/>
<mask id="path-6-inside-1_3_137" fill="white">
<path d="M1275 39.6V40H1276V39H1283V46H1282V47H1282.4C1282.96 47 1283.24 47 1283.45 46.891C1283.64 46.7951 1283.8 46.6422 1283.89 46.454C1284 46.2401 1284 45.9601 1284 45.4V39.6C1284 39.0399 1284 38.7599 1283.89 38.546C1283.8 38.3578 1283.64 38.2049 1283.45 38.109C1283.24 38 1282.96 38 1282.4 38H1276.6C1276.04 38 1275.76 38 1275.55 38.109C1275.36 38.2049 1275.2 38.3578 1275.11 38.546C1275 38.7599 1275 39.0399 1275 39.6Z"/>
</mask>
<path d="M1275 40H1274V41H1275V40ZM1282 47H1281V48H1282V47ZM1282 46V45H1281V46H1282ZM1283 46V47H1284V46H1283ZM1283 39H1284V38H1283V39ZM1276 39V38H1275V39H1276ZM1276 40V41H1277V40H1276ZM1283.89 46.454L1283 46L1283 46L1283.89 46.454ZM1283.45 46.891L1283 46L1283 46L1283.45 46.891ZM1283.45 38.109L1283.91 37.218L1283.91 37.218L1283.45 38.109ZM1283.89 38.546L1283 39L1283 39L1283.89 38.546ZM1275.11 38.546L1274.22 38.092L1274.22 38.092L1275.11 38.546ZM1275.55 38.109L1275.09 37.218L1275.09 37.218L1275.55 38.109ZM1276 40V39.6H1274V40H1276ZM1276.6 39H1282.4V37H1276.6V39ZM1283 39.6V45.4H1285V39.6H1283ZM1282.4 46H1282V48H1282.4V46ZM1283 47V46H1281V47H1283ZM1282 47H1283V45H1282V47ZM1284 46V39H1282V46H1284ZM1283 38H1276V40H1283V38ZM1275 39V40H1277V39H1275ZM1276 39H1275V41H1276V39ZM1283 45.4C1283 45.6965 1283 45.8588 1282.99 45.9754C1282.98 46.0803 1282.97 46.0575 1283 46L1284.78 46.908C1284.92 46.6366 1284.96 46.3668 1284.98 46.1382C1285 45.9213 1285 45.6635 1285 45.4H1283ZM1282.4 48C1282.66 48 1282.92 48.0008 1283.14 47.9831C1283.37 47.9644 1283.64 47.9203 1283.91 47.782L1283 46C1283.06 45.9707 1283.08 45.9811 1282.98 45.9897C1282.86 45.9992 1282.7 46 1282.4 46V48ZM1283 46L1283 46L1283.91 47.782C1284.28 47.5903 1284.59 47.2843 1284.78 46.908L1283 46ZM1282.4 39C1282.7 39 1282.86 39.0008 1282.98 39.0103C1283.08 39.0189 1283.06 39.0293 1283 39L1283.91 37.218C1283.64 37.0797 1283.37 37.0356 1283.14 37.0169C1282.92 36.9992 1282.66 37 1282.4 37V39ZM1285 39.6C1285 39.3365 1285 39.0787 1284.98 38.8618C1284.96 38.6332 1284.92 38.3634 1284.78 38.092L1283 39C1282.97 38.9425 1282.98 38.9197 1282.99 39.0246C1283 39.1412 1283 39.3035 1283 39.6H1285ZM1283 39L1283 39L1284.78 38.092C1284.59 37.7157 1284.28 37.4097 1283.91 37.218L1283 39ZM1276 39.6C1276 39.3035 1276 39.1412 1276.01 39.0246C1276.02 38.9197 1276.03 38.9425 1276 39L1274.22 38.092C1274.08 38.3634 1274.04 38.6332 1274.02 38.8618C1274 39.0787 1274 39.3365 1274 39.6H1276ZM1276.6 37C1276.34 37 1276.08 36.9992 1275.86 37.0169C1275.63 37.0356 1275.36 37.0797 1275.09 37.218L1276 39C1275.94 39.0293 1275.92 39.0189 1276.02 39.0103C1276.14 39.0008 1276.3 39 1276.6 39V37ZM1276 39L1275.09 37.218C1274.72 37.4097 1274.41 37.7157 1274.22 38.092L1276 39Z" fill="#E9E9EA" mask="url(#path-6-inside-1_3_137)"/>
<g filter="url(#filter2_i_3_137)">
<rect x="1214" y="33" width="37" height="22" rx="3" fill="url(#paint2_linear_3_137)"/>
</g>
<path d="M1228 50H1237C1237 50 1237 41.9983 1237 41.9983L1234 42V41H1236.99C1237.56 41 1238 41.4457 1238 41.9954V50.0046C1238 50.5443 1237.55 51 1237 51H1228C1227.44 51 1227 50.5543 1227 50.0046V41.9954C1227 41.4557 1227.45 41 1228.01 41H1231V42H1228.01C1228.01 42 1228 50 1228 50Z" fill="#8B8D8F"/>
<path d="M1232.49 37.3434L1229.95 39.9149C1229.76 40.1003 1229.47 40.1003 1229.28 39.9149C1229.1 39.7294 1229.1 39.4287 1229.28 39.2432L1232.15 36.3358C1232.34 36.1504 1232.63 36.1504 1232.82 36.3358L1235.69 39.2432C1235.87 39.4287 1235.87 39.7294 1235.69 39.9149C1235.51 40.1003 1235.21 40.1003 1235.03 39.9149L1232.49 37.3434Z" fill="#8B8D8F"/>
<path d="M1232 37H1233V46H1232V37Z" fill="#8B8D8F"/>
<g filter="url(#filter3_i_3_137)">
<rect x="395" y="33" width="590" height="22" rx="4" fill="url(#paint3_linear_3_137)"/>
</g>
<mask id="path-13-outside-2_3_137" maskUnits="userSpaceOnUse" x="654" y="38" width="86" height="15" fill="black">
<rect fill="white" x="654" y="38" width="86" height="15"/>
<path d="M660.694 49H655.421V40.5449H656.733V47.793H660.694V49ZM664.414 48.0039C664.957 48.0039 665.379 47.8105 665.68 47.4238C665.977 47.041 666.125 46.502 666.125 45.8066C666.125 45.1152 665.977 44.5762 665.68 44.1895C665.379 43.8066 664.957 43.6152 664.414 43.6152C663.867 43.6152 663.445 43.8066 663.148 44.1895C662.852 44.5723 662.703 45.1113 662.703 45.8066C662.703 46.5059 662.852 47.0469 663.148 47.4297C663.445 47.8125 663.867 48.0039 664.414 48.0039ZM664.414 49.123C663.477 49.123 662.74 48.8281 662.205 48.2383C661.67 47.6484 661.402 46.8379 661.402 45.8066C661.402 44.7793 661.672 43.9707 662.211 43.3809C662.746 42.791 663.48 42.4961 664.414 42.4961C665.344 42.4961 666.076 42.791 666.611 43.3809C667.15 43.9707 667.42 44.7793 667.42 45.8066C667.42 46.8379 667.152 47.6484 666.617 48.2383C666.082 48.8281 665.348 49.123 664.414 49.123ZM668.737 42.6191H669.95V43.5977H670.044C670.134 43.2812 670.339 43.0215 670.659 42.8184C670.98 42.6152 671.347 42.5137 671.761 42.5137C671.999 42.5137 672.185 42.5312 672.318 42.5664V43.8086C672.173 43.7578 671.941 43.7324 671.62 43.7324C671.144 43.7324 670.755 43.8711 670.454 44.1484C670.15 44.4258 669.997 44.7871 669.997 45.2324V49H668.737V42.6191ZM675.786 43.5684C675.321 43.5684 674.938 43.7188 674.637 44.0195C674.336 44.3203 674.168 44.7207 674.133 45.2207H677.356C677.34 44.7168 677.192 44.3164 676.911 44.0195C676.625 43.7188 676.25 43.5684 675.786 43.5684ZM678.563 47.2773C678.418 47.8516 678.104 48.3027 677.62 48.6309C677.131 48.959 676.524 49.123 675.797 49.123C674.883 49.123 674.164 48.8281 673.641 48.2383C673.114 47.6523 672.85 46.8496 672.85 45.8301C672.85 44.8105 673.116 44 673.647 43.3984C674.178 42.7969 674.893 42.4961 675.791 42.4961C676.678 42.4961 677.375 42.7812 677.883 43.3516C678.387 43.9219 678.639 44.709 678.639 45.7129V46.1523H674.133V46.2227C674.153 46.7852 674.315 47.2305 674.62 47.5586C674.924 47.8867 675.329 48.0508 675.832 48.0508C676.602 48.0508 677.108 47.793 677.35 47.2773H678.563ZM679.951 42.6191H681.164V43.6445H681.257C681.554 42.8789 682.146 42.4961 683.033 42.4961C683.896 42.4961 684.482 42.8789 684.791 43.6445H684.89C685.054 43.293 685.308 43.0137 685.652 42.8066C686 42.5996 686.392 42.4961 686.83 42.4961C687.474 42.4961 687.976 42.6816 688.336 43.0527C688.691 43.4238 688.869 43.9414 688.869 44.6055V49H687.609V44.9336C687.609 44.0781 687.197 43.6504 686.373 43.6504C685.97 43.6504 685.644 43.7793 685.394 44.0371C685.148 44.2871 685.025 44.6035 685.025 44.9863V49H683.789V44.8105C683.789 44.4512 683.677 44.168 683.455 43.9609C683.232 43.7539 682.933 43.6504 682.558 43.6504C682.175 43.6504 681.855 43.7891 681.597 44.0664C681.339 44.3438 681.211 44.6875 681.211 45.0977V49H679.951V42.6191ZM690.462 46.2109V44.9746H694.305V46.2109H690.462ZM695.98 42.6191H697.234V49H695.98V42.6191ZM696.607 41.5C696.373 41.5 696.18 41.4258 696.027 41.2773C695.871 41.1328 695.793 40.9512 695.793 40.7324C695.793 40.5137 695.871 40.3301 696.027 40.1816C696.18 40.0332 696.373 39.959 696.607 39.959C696.842 39.959 697.037 40.0332 697.193 40.1816C697.346 40.3301 697.422 40.5137 697.422 40.7324C697.422 40.9512 697.346 41.1328 697.193 41.2773C697.037 41.4258 696.842 41.5 696.607 41.5ZM698.886 42.6191H700.099V43.6445H700.193C700.489 42.8789 701.081 42.4961 701.968 42.4961C702.831 42.4961 703.417 42.8789 703.726 43.6445H703.825C703.989 43.293 704.243 43.0137 704.587 42.8066C704.935 42.5996 705.327 42.4961 705.765 42.4961C706.409 42.4961 706.911 42.6816 707.271 43.0527C707.626 43.4238 707.804 43.9414 707.804 44.6055V49H706.544V44.9336C706.544 44.0781 706.132 43.6504 705.308 43.6504C704.905 43.6504 704.579 43.7793 704.329 44.0371C704.083 44.2871 703.96 44.6035 703.96 44.9863V49H702.724V44.8105C702.724 44.4512 702.612 44.168 702.39 43.9609C702.167 43.7539 701.868 43.6504 701.493 43.6504C701.111 43.6504 700.79 43.7891 700.532 44.0664C700.275 44.3438 700.146 44.6875 700.146 45.0977V49H698.886V42.6191ZM712.684 42.5137C713.496 42.5137 714.141 42.8086 714.618 43.3984C715.094 43.9922 715.332 44.7949 715.332 45.8066C715.332 46.8184 715.094 47.6211 714.618 48.2148C714.145 48.8086 713.504 49.1055 712.696 49.1055C711.743 49.1055 711.088 48.748 710.733 48.0332H710.633V51.0684H709.373V42.6191H710.586V43.6738H710.68C710.871 43.3105 711.145 43.0254 711.5 42.8184C711.856 42.6152 712.25 42.5137 712.684 42.5137ZM712.327 47.9746C712.862 47.9746 713.282 47.7832 713.586 47.4004C713.887 47.0137 714.038 46.4824 714.038 45.8066C714.038 45.1309 713.887 44.6016 713.586 44.2188C713.282 43.8359 712.864 43.6445 712.332 43.6445C711.801 43.6445 711.381 43.8379 711.073 44.2246C710.764 44.6152 710.61 45.1445 710.61 45.8125C710.61 46.4766 710.764 47.0039 711.073 47.3945C711.381 47.7812 711.799 47.9746 712.327 47.9746ZM716.504 44.4238C716.504 43.8613 716.736 43.3984 717.201 43.0352C717.666 42.6758 718.259 42.4961 718.982 42.4961C719.701 42.4961 720.281 42.6543 720.722 42.9707C721.164 43.2871 721.416 43.7266 721.478 44.2891H720.271C720.142 43.7773 719.712 43.5215 718.982 43.5215C718.627 43.5215 718.334 43.5977 718.103 43.75C717.865 43.9062 717.746 44.1074 717.746 44.3535C717.746 44.7168 718.084 44.9766 718.759 45.1328L719.82 45.3789C720.433 45.5195 720.882 45.7266 721.168 46C721.457 46.2812 721.601 46.6543 721.601 47.1191C721.601 47.7129 721.351 48.1973 720.851 48.5723C720.359 48.9395 719.728 49.123 718.959 49.123C718.201 49.123 717.589 48.9609 717.125 48.6367C716.656 48.3164 716.394 47.873 716.339 47.3066H717.599C717.771 47.8379 718.234 48.1035 718.988 48.1035C719.382 48.1035 719.705 48.0234 719.955 47.8633C720.205 47.7031 720.33 47.4961 720.33 47.2422C720.33 46.8711 720.017 46.6113 719.392 46.4629L718.279 46.2051C717.67 46.0605 717.222 45.8457 716.937 45.5605C716.648 45.2754 716.504 44.8965 716.504 44.4238ZM728.421 49H727.214V47.9863H727.114C726.79 48.7441 726.124 49.123 725.116 49.123C724.405 49.123 723.852 48.916 723.458 48.502C723.059 48.0879 722.86 47.5039 722.86 46.75V42.6191H724.12V46.4336C724.12 47.4492 724.589 47.957 725.526 47.957C726.034 47.957 726.434 47.8145 726.727 47.5293C727.02 47.2441 727.167 46.8516 727.167 46.3516V42.6191H728.421V49ZM730.055 42.6191H731.268V43.6445H731.361C731.658 42.8789 732.25 42.4961 733.137 42.4961C734 42.4961 734.586 42.8789 734.895 43.6445H734.994C735.158 43.293 735.412 43.0137 735.756 42.8066C736.104 42.5996 736.496 42.4961 736.934 42.4961C737.578 42.4961 738.08 42.6816 738.439 43.0527C738.795 43.4238 738.973 43.9414 738.973 44.6055V49H737.713V44.9336C737.713 44.0781 737.301 43.6504 736.477 43.6504C736.074 43.6504 735.748 43.7793 735.498 44.0371C735.252 44.2871 735.129 44.6035 735.129 44.9863V49H733.893V44.8105C733.893 44.4512 733.781 44.168 733.559 43.9609C733.336 43.7539 733.037 43.6504 732.662 43.6504C732.279 43.6504 731.959 43.7891 731.701 44.0664C731.443 44.3438 731.314 44.6875 731.314 45.0977V49H730.055V42.6191Z"/>
</mask>
<path d="M660.694 49H655.421V40.5449H656.733V47.793H660.694V49ZM664.414 48.0039C664.957 48.0039 665.379 47.8105 665.68 47.4238C665.977 47.041 666.125 46.502 666.125 45.8066C666.125 45.1152 665.977 44.5762 665.68 44.1895C665.379 43.8066 664.957 43.6152 664.414 43.6152C663.867 43.6152 663.445 43.8066 663.148 44.1895C662.852 44.5723 662.703 45.1113 662.703 45.8066C662.703 46.5059 662.852 47.0469 663.148 47.4297C663.445 47.8125 663.867 48.0039 664.414 48.0039ZM664.414 49.123C663.477 49.123 662.74 48.8281 662.205 48.2383C661.67 47.6484 661.402 46.8379 661.402 45.8066C661.402 44.7793 661.672 43.9707 662.211 43.3809C662.746 42.791 663.48 42.4961 664.414 42.4961C665.344 42.4961 666.076 42.791 666.611 43.3809C667.15 43.9707 667.42 44.7793 667.42 45.8066C667.42 46.8379 667.152 47.6484 666.617 48.2383C666.082 48.8281 665.348 49.123 664.414 49.123ZM668.737 42.6191H669.95V43.5977H670.044C670.134 43.2812 670.339 43.0215 670.659 42.8184C670.98 42.6152 671.347 42.5137 671.761 42.5137C671.999 42.5137 672.185 42.5312 672.318 42.5664V43.8086C672.173 43.7578 671.941 43.7324 671.62 43.7324C671.144 43.7324 670.755 43.8711 670.454 44.1484C670.15 44.4258 669.997 44.7871 669.997 45.2324V49H668.737V42.6191ZM675.786 43.5684C675.321 43.5684 674.938 43.7188 674.637 44.0195C674.336 44.3203 674.168 44.7207 674.133 45.2207H677.356C677.34 44.7168 677.192 44.3164 676.911 44.0195C676.625 43.7188 676.25 43.5684 675.786 43.5684ZM678.563 47.2773C678.418 47.8516 678.104 48.3027 677.62 48.6309C677.131 48.959 676.524 49.123 675.797 49.123C674.883 49.123 674.164 48.8281 673.641 48.2383C673.114 47.6523 672.85 46.8496 672.85 45.8301C672.85 44.8105 673.116 44 673.647 43.3984C674.178 42.7969 674.893 42.4961 675.791 42.4961C676.678 42.4961 677.375 42.7812 677.883 43.3516C678.387 43.9219 678.639 44.709 678.639 45.7129V46.1523H674.133V46.2227C674.153 46.7852 674.315 47.2305 674.62 47.5586C674.924 47.8867 675.329 48.0508 675.832 48.0508C676.602 48.0508 677.108 47.793 677.35 47.2773H678.563ZM679.951 42.6191H681.164V43.6445H681.257C681.554 42.8789 682.146 42.4961 683.033 42.4961C683.896 42.4961 684.482 42.8789 684.791 43.6445H684.89C685.054 43.293 685.308 43.0137 685.652 42.8066C686 42.5996 686.392 42.4961 686.83 42.4961C687.474 42.4961 687.976 42.6816 688.336 43.0527C688.691 43.4238 688.869 43.9414 688.869 44.6055V49H687.609V44.9336C687.609 44.0781 687.197 43.6504 686.373 43.6504C685.97 43.6504 685.644 43.7793 685.394 44.0371C685.148 44.2871 685.025 44.6035 685.025 44.9863V49H683.789V44.8105C683.789 44.4512 683.677 44.168 683.455 43.9609C683.232 43.7539 682.933 43.6504 682.558 43.6504C682.175 43.6504 681.855 43.7891 681.597 44.0664C681.339 44.3438 681.211 44.6875 681.211 45.0977V49H679.951V42.6191ZM690.462 46.2109V44.9746H694.305V46.2109H690.462ZM695.98 42.6191H697.234V49H695.98V42.6191ZM696.607 41.5C696.373 41.5 696.18 41.4258 696.027 41.2773C695.871 41.1328 695.793 40.9512 695.793 40.7324C695.793 40.5137 695.871 40.3301 696.027 40.1816C696.18 40.0332 696.373 39.959 696.607 39.959C696.842 39.959 697.037 40.0332 697.193 40.1816C697.346 40.3301 697.422 40.5137 697.422 40.7324C697.422 40.9512 697.346 41.1328 697.193 41.2773C697.037 41.4258 696.842 41.5 696.607 41.5ZM698.886 42.6191H700.099V43.6445H700.193C700.489 42.8789 701.081 42.4961 701.968 42.4961C702.831 42.4961 703.417 42.8789 703.726 43.6445H703.825C703.989 43.293 704.243 43.0137 704.587 42.8066C704.935 42.5996 705.327 42.4961 705.765 42.4961C706.409 42.4961 706.911 42.6816 707.271 43.0527C707.626 43.4238 707.804 43.9414 707.804 44.6055V49H706.544V44.9336C706.544 44.0781 706.132 43.6504 705.308 43.6504C704.905 43.6504 704.579 43.7793 704.329 44.0371C704.083 44.2871 703.96 44.6035 703.96 44.9863V49H702.724V44.8105C702.724 44.4512 702.612 44.168 702.39 43.9609C702.167 43.7539 701.868 43.6504 701.493 43.6504C701.111 43.6504 700.79 43.7891 700.532 44.0664C700.275 44.3438 700.146 44.6875 700.146 45.0977V49H698.886V42.6191ZM712.684 42.5137C713.496 42.5137 714.141 42.8086 714.618 43.3984C715.094 43.9922 715.332 44.7949 715.332 45.8066C715.332 46.8184 715.094 47.6211 714.618 48.2148C714.145 48.8086 713.504 49.1055 712.696 49.1055C711.743 49.1055 711.088 48.748 710.733 48.0332H710.633V51.0684H709.373V42.6191H710.586V43.6738H710.68C710.871 43.3105 711.145 43.0254 711.5 42.8184C711.856 42.6152 712.25 42.5137 712.684 42.5137ZM712.327 47.9746C712.862 47.9746 713.282 47.7832 713.586 47.4004C713.887 47.0137 714.038 46.4824 714.038 45.8066C714.038 45.1309 713.887 44.6016 713.586 44.2188C713.282 43.8359 712.864 43.6445 712.332 43.6445C711.801 43.6445 711.381 43.8379 711.073 44.2246C710.764 44.6152 710.61 45.1445 710.61 45.8125C710.61 46.4766 710.764 47.0039 711.073 47.3945C711.381 47.7812 711.799 47.9746 712.327 47.9746ZM716.504 44.4238C716.504 43.8613 716.736 43.3984 717.201 43.0352C717.666 42.6758 718.259 42.4961 718.982 42.4961C719.701 42.4961 720.281 42.6543 720.722 42.9707C721.164 43.2871 721.416 43.7266 721.478 44.2891H720.271C720.142 43.7773 719.712 43.5215 718.982 43.5215C718.627 43.5215 718.334 43.5977 718.103 43.75C717.865 43.9062 717.746 44.1074 717.746 44.3535C717.746 44.7168 718.084 44.9766 718.759 45.1328L719.82 45.3789C720.433 45.5195 720.882 45.7266 721.168 46C721.457 46.2812 721.601 46.6543 721.601 47.1191C721.601 47.7129 721.351 48.1973 720.851 48.5723C720.359 48.9395 719.728 49.123 718.959 49.123C718.201 49.123 717.589 48.9609 717.125 48.6367C716.656 48.3164 716.394 47.873 716.339 47.3066H717.599C717.771 47.8379 718.234 48.1035 718.988 48.1035C719.382 48.1035 719.705 48.0234 719.955 47.8633C720.205 47.7031 720.33 47.4961 720.33 47.2422C720.33 46.8711 720.017 46.6113 719.392 46.4629L718.279 46.2051C717.67 46.0605 717.222 45.8457 716.937 45.5605C716.648 45.2754 716.504 44.8965 716.504 44.4238ZM728.421 49H727.214V47.9863H727.114C726.79 48.7441 726.124 49.123 725.116 49.123C724.405 49.123 723.852 48.916 723.458 48.502C723.059 48.0879 722.86 47.5039 722.86 46.75V42.6191H724.12V46.4336C724.12 47.4492 724.589 47.957 725.526 47.957C726.034 47.957 726.434 47.8145 726.727 47.5293C727.02 47.2441 727.167 46.8516 727.167 46.3516V42.6191H728.421V49ZM730.055 42.6191H731.268V43.6445H731.361C731.658 42.8789 732.25 42.4961 733.137 42.4961C734 42.4961 734.586 42.8789 734.895 43.6445H734.994C735.158 43.293 735.412 43.0137 735.756 42.8066C736.104 42.5996 736.496 42.4961 736.934 42.4961C737.578 42.4961 738.08 42.6816 738.439 43.0527C738.795 43.4238 738.973 43.9414 738.973 44.6055V49H737.713V44.9336C737.713 44.0781 737.301 43.6504 736.477 43.6504C736.074 43.6504 735.748 43.7793 735.498 44.0371C735.252 44.2871 735.129 44.6035 735.129 44.9863V49H733.893V44.8105C733.893 44.4512 733.781 44.168 733.559 43.9609C733.336 43.7539 733.037 43.6504 732.662 43.6504C732.279 43.6504 731.959 43.7891 731.701 44.0664C731.443 44.3438 731.314 44.6875 731.314 45.0977V49H730.055V42.6191Z" fill="#E9E9EA"/>
<path d="M660.694 49V50H661.694V49H660.694ZM655.421 49H654.421V50H655.421V49ZM655.421 40.5449V39.5449H654.421V40.5449H655.421ZM656.733 40.5449H657.733V39.5449H656.733V40.5449ZM656.733 47.793H655.733V48.793H656.733V47.793ZM660.694 47.793H661.694V46.793H660.694V47.793ZM660.694 48H655.421V50H660.694V48ZM656.421 49V40.5449H654.421V49H656.421ZM655.421 41.5449H656.733V39.5449H655.421V41.5449ZM655.733 40.5449V47.793H657.733V40.5449H655.733ZM656.733 48.793H660.694V46.793H656.733V48.793ZM659.694 47.793V49H661.694V47.793H659.694ZM665.68 47.4238L666.469 48.0378L666.47 48.0367L665.68 47.4238ZM665.68 44.1895L666.473 43.5805L666.466 43.5716L665.68 44.1895ZM662.211 43.3809L662.949 44.0555L662.952 44.0528L662.211 43.3809ZM666.611 43.3809L665.871 44.0528L665.873 44.0555L666.611 43.3809ZM664.414 49.0039C665.227 49.0039 665.957 48.6967 666.469 48.0378L664.89 46.8099C664.801 46.9244 664.687 47.0039 664.414 47.0039V49.0039ZM666.47 48.0367C666.951 47.4166 667.125 46.6301 667.125 45.8066H665.125C665.125 46.3738 665.002 46.6655 664.889 46.811L666.47 48.0367ZM667.125 45.8066C667.125 44.9847 666.95 44.2017 666.473 43.5805L664.886 44.7984C665.003 44.9506 665.125 45.2458 665.125 45.8066H667.125ZM666.466 43.5716C665.952 42.9175 665.224 42.6152 664.414 42.6152V44.6152C664.69 44.6152 664.806 44.6958 664.893 44.8073L666.466 43.5716ZM664.414 42.6152C663.603 42.6152 662.871 42.9158 662.358 43.5766L663.939 44.8023C664.02 44.6974 664.131 44.6152 664.414 44.6152V42.6152ZM662.358 43.5766C661.877 44.1967 661.703 44.9832 661.703 45.8066H663.703C663.703 45.2395 663.826 44.9478 663.939 44.8023L662.358 43.5766ZM661.703 45.8066C661.703 46.6325 661.877 47.4216 662.358 48.0425L663.939 46.8169C663.826 46.6722 663.703 46.3793 663.703 45.8066H661.703ZM662.358 48.0425C662.871 48.7033 663.603 49.0039 664.414 49.0039V47.0039C664.131 47.0039 664.02 46.9217 663.939 46.8169L662.358 48.0425ZM664.414 48.123C663.704 48.123 663.257 47.91 662.946 47.5663L661.464 48.9102C662.223 49.7463 663.249 50.123 664.414 50.123V48.123ZM662.946 47.5663C662.622 47.2095 662.402 46.6648 662.402 45.8066H660.402C660.402 47.011 660.718 48.0873 661.464 48.9102L662.946 47.5663ZM662.402 45.8066C662.402 44.9553 662.622 44.4131 662.949 44.0555L661.473 42.7062C660.721 43.5283 660.402 44.6033 660.402 45.8066H662.402ZM662.952 44.0528C663.264 43.7083 663.709 43.4961 664.414 43.4961V41.4961C663.252 41.4961 662.228 41.8738 661.47 42.7089L662.952 44.0528ZM664.414 43.4961C665.113 43.4961 665.557 43.7074 665.871 44.0528L667.352 42.7089C666.595 41.8747 665.574 41.4961 664.414 41.4961V43.4961ZM665.873 44.0555C666.2 44.4131 666.42 44.9553 666.42 45.8066H668.42C668.42 44.6033 668.101 43.5283 667.349 42.7062L665.873 44.0555ZM666.42 45.8066C666.42 46.6648 666.2 47.2095 665.877 47.5663L667.358 48.9102C668.104 48.0873 668.42 47.011 668.42 45.8066H666.42ZM665.877 47.5663C665.564 47.9109 665.119 48.123 664.414 48.123V50.123C665.577 50.123 666.6 49.7454 667.358 48.9102L665.877 47.5663ZM668.737 42.6191V41.6191H667.737V42.6191H668.737ZM669.95 42.6191H670.95V41.6191H669.95V42.6191ZM669.95 43.5977H668.95V44.5977H669.95V43.5977ZM670.044 43.5977V44.5977H670.8L671.006 43.8708L670.044 43.5977ZM672.318 42.5664H673.318V41.7967L672.573 41.5997L672.318 42.5664ZM672.318 43.8086L671.986 44.7521L673.318 45.2199V43.8086H672.318ZM670.454 44.1484L671.127 44.888L671.132 44.8836L670.454 44.1484ZM669.997 49V50H670.997V49H669.997ZM668.737 49H667.737V50H668.737V49ZM668.737 43.6191H669.95V41.6191H668.737V43.6191ZM668.95 42.6191V43.5977H670.95V42.6191H668.95ZM669.95 44.5977H670.044V42.5977H669.95V44.5977ZM671.006 43.8708C671.019 43.8267 671.048 43.7559 671.195 43.6629L670.124 41.9739C669.63 42.2871 669.249 42.7358 669.082 43.3245L671.006 43.8708ZM671.195 43.6629C671.34 43.5706 671.518 43.5137 671.761 43.5137V41.5137C671.175 41.5137 670.619 41.6599 670.124 41.9739L671.195 43.6629ZM671.761 43.5137C671.857 43.5137 671.93 43.5173 671.984 43.5224C672.041 43.5277 672.063 43.5335 672.062 43.5331L672.573 41.5997C672.318 41.532 672.032 41.5137 671.761 41.5137V43.5137ZM671.318 42.5664V43.8086H673.318V42.5664H671.318ZM672.649 42.8651C672.335 42.7547 671.958 42.7324 671.62 42.7324V44.7324C671.756 44.7324 671.857 44.7379 671.926 44.7456C672.002 44.7538 672.013 44.7615 671.986 44.7521L672.649 42.8651ZM671.62 42.7324C670.937 42.7324 670.292 42.9379 669.776 43.4133L671.132 44.8836C671.218 44.8043 671.351 44.7324 671.62 44.7324V42.7324ZM669.781 43.4089C669.25 43.8923 668.997 44.5311 668.997 45.2324H670.997C670.997 45.0431 671.049 44.9593 671.127 44.8879L669.781 43.4089ZM668.997 45.2324V49H670.997V45.2324H668.997ZM669.997 48H668.737V50H669.997V48ZM669.737 49V42.6191H667.737V49H669.737ZM674.133 45.2207L673.136 45.1506L673.06 46.2207H674.133V45.2207ZM677.356 45.2207V46.2207H678.387L678.355 45.1897L677.356 45.2207ZM676.911 44.0195L677.636 43.3318L677.636 43.3315L676.911 44.0195ZM678.563 47.2773L679.533 47.5214L679.846 46.2773H678.563V47.2773ZM677.62 48.6309L678.177 49.4609L678.18 49.4588L677.62 48.6309ZM673.641 48.2383L674.389 47.5745L674.384 47.5693L673.641 48.2383ZM677.883 43.3516L678.633 42.6894L678.63 42.6866L677.883 43.3516ZM678.639 46.1523V47.1523H679.639V46.1523H678.639ZM674.133 46.1523V45.1523H673.133V46.1523H674.133ZM674.133 46.2227H673.133V46.24L673.134 46.2574L674.133 46.2227ZM677.35 47.2773V46.2773H676.715L676.445 46.8522L677.35 47.2773ZM675.786 42.5684C675.083 42.5684 674.437 42.8058 673.93 43.3124L675.344 44.7266C675.439 44.6317 675.559 44.5684 675.786 44.5684V42.5684ZM673.93 43.3124C673.429 43.8131 673.185 44.4554 673.136 45.1506L675.131 45.2908C675.152 44.986 675.243 44.8275 675.344 44.7266L673.93 43.3124ZM674.133 46.2207H677.356V44.2207H674.133V46.2207ZM678.355 45.1897C678.334 44.5002 678.123 43.8456 677.636 43.3318L676.185 44.7073C676.26 44.7872 676.346 44.9333 676.356 45.2517L678.355 45.1897ZM677.636 43.3315C677.138 42.8064 676.488 42.5684 675.786 42.5684V44.5684C676.013 44.5684 676.112 44.6311 676.185 44.7075L677.636 43.3315ZM677.593 47.0333C677.508 47.3724 677.337 47.6144 677.059 47.8029L678.18 49.4588C678.871 48.991 679.329 48.3307 679.533 47.5214L677.593 47.0333ZM677.062 47.8009C676.774 47.9946 676.372 48.123 675.797 48.123V50.123C676.676 50.123 677.489 49.9234 678.177 49.4609L677.062 47.8009ZM675.797 48.123C675.119 48.123 674.692 47.9157 674.389 47.5745L672.893 48.902C673.637 49.7406 674.647 50.123 675.797 50.123V48.123ZM674.384 47.5693C674.066 47.2157 673.85 46.6771 673.85 45.8301H671.85C671.85 47.0222 672.161 48.089 672.898 48.9072L674.384 47.5693ZM673.85 45.8301C673.85 44.9864 674.067 44.434 674.396 44.0604L672.897 42.7365C672.165 43.566 671.85 44.6347 671.85 45.8301H673.85ZM674.396 44.0604C674.714 43.7008 675.142 43.4961 675.791 43.4961V41.4961C674.644 41.4961 673.642 41.8929 672.897 42.7365L674.396 44.0604ZM675.791 43.4961C676.443 43.4961 676.85 43.6945 677.136 44.0166L678.63 42.6866C677.901 41.868 676.913 41.4961 675.791 41.4961V43.4961ZM677.134 44.0137C677.431 44.3495 677.639 44.8736 677.639 45.7129H679.639C679.639 44.5443 679.344 43.4943 678.633 42.6894L677.134 44.0137ZM677.639 45.7129V46.1523H679.639V45.7129H677.639ZM678.639 45.1523H674.133V47.1523H678.639V45.1523ZM673.133 46.1523V46.2227H675.133V46.1523H673.133ZM673.134 46.2574C673.159 46.9964 673.38 47.693 673.887 48.239L675.352 46.8781C675.25 46.7679 675.146 46.5739 675.133 46.188L673.134 46.2574ZM673.887 48.239C674.405 48.7975 675.089 49.0508 675.832 49.0508V47.0508C675.568 47.0508 675.443 46.9759 675.352 46.8781L673.887 48.239ZM675.832 49.0508C676.829 49.0508 677.789 48.6938 678.255 47.7025L676.445 46.8522C676.418 46.9097 676.389 46.9388 676.335 46.9665C676.263 47.0028 676.113 47.0508 675.832 47.0508V49.0508ZM677.35 48.2773H678.563V46.2773H677.35V48.2773ZM679.951 42.6191V41.6191H678.951V42.6191H679.951ZM681.164 42.6191H682.164V41.6191H681.164V42.6191ZM681.164 43.6445H680.164V44.6445H681.164V43.6445ZM681.257 43.6445V44.6445H681.942L682.19 44.0061L681.257 43.6445ZM684.791 43.6445L683.863 44.0184L684.116 44.6445H684.791V43.6445ZM684.89 43.6445V44.6445H685.527L685.796 44.0674L684.89 43.6445ZM685.652 42.8066L685.14 41.9474L685.136 41.95L685.652 42.8066ZM688.336 43.0527L689.058 42.361L689.054 42.3571L688.336 43.0527ZM688.869 49V50H689.869V49H688.869ZM687.609 49H686.609V50H687.609V49ZM685.394 44.0371L686.107 44.7386L686.112 44.7333L685.394 44.0371ZM685.025 49V50H686.025V49H685.025ZM683.789 49H682.789V50H683.789V49ZM681.211 49V50H682.211V49H681.211ZM679.951 49H678.951V50H679.951V49ZM679.951 43.6191H681.164V41.6191H679.951V43.6191ZM680.164 42.6191V43.6445H682.164V42.6191H680.164ZM681.164 44.6445H681.257V42.6445H681.164V44.6445ZM682.19 44.0061C682.275 43.7861 682.376 43.6818 682.467 43.6228C682.564 43.5601 682.733 43.4961 683.033 43.4961V41.4961C682.446 41.4961 681.876 41.6235 681.381 41.9436C680.88 42.2675 680.537 42.7373 680.325 43.283L682.19 44.0061ZM683.033 43.4961C683.316 43.4961 683.477 43.5576 683.573 43.6204C683.665 43.6809 683.771 43.7904 683.863 44.0184L685.718 43.2707C685.501 42.7331 685.16 42.2683 684.667 41.946C684.177 41.626 683.613 41.4961 683.033 41.4961V43.4961ZM684.791 44.6445H684.89V42.6445H684.791V44.6445ZM685.796 44.0674C685.873 43.9025 685.988 43.7715 686.168 43.6633L685.136 41.95C684.628 42.2559 684.235 42.6835 683.984 43.2216L685.796 44.0674ZM686.164 43.6658C686.344 43.5584 686.557 43.4961 686.83 43.4961V41.4961C686.227 41.4961 685.655 41.6408 685.14 41.9474L686.164 43.6658ZM686.83 43.4961C687.275 43.4961 687.491 43.6177 687.617 43.7484L689.054 42.3571C688.462 41.7456 687.674 41.4961 686.83 41.4961V43.4961ZM687.613 43.7445C687.743 43.8797 687.869 44.121 687.869 44.6055H689.869C689.869 43.7618 689.639 42.9679 689.058 42.361L687.613 43.7445ZM687.869 44.6055V49H689.869V44.6055H687.869ZM688.869 48H687.609V50H688.869V48ZM688.609 49V44.9336H686.609V49H688.609ZM688.609 44.9336C688.609 44.3608 688.472 43.746 688.02 43.2774C687.562 42.8018 686.949 42.6504 686.373 42.6504V44.6504C686.621 44.6504 686.626 44.7128 686.58 44.665C686.54 44.6242 686.609 44.6509 686.609 44.9336H688.609ZM686.373 42.6504C685.736 42.6504 685.138 42.8647 684.676 43.341L686.112 44.7333C686.15 44.6939 686.205 44.6504 686.373 44.6504V42.6504ZM684.681 43.3356C684.234 43.7906 684.025 44.3673 684.025 44.9863H686.025C686.025 44.8397 686.063 44.7836 686.107 44.7386L684.681 43.3356ZM684.025 44.9863V49H686.025V44.9863H684.025ZM685.025 48H683.789V50H685.025V48ZM684.789 49V44.8105H682.789V49H684.789ZM684.789 44.8105C684.789 44.2284 684.599 43.6593 684.136 43.2286L682.774 44.6933C682.776 44.6955 682.776 44.6955 682.774 44.6935C682.773 44.6916 682.773 44.6913 682.774 44.6945C682.777 44.7005 682.789 44.7339 682.789 44.8105H684.789ZM684.136 43.2286C683.687 42.8116 683.124 42.6504 682.558 42.6504V44.6504C682.654 44.6504 682.71 44.6637 682.736 44.6729C682.76 44.6811 682.768 44.6882 682.774 44.6933L684.136 43.2286ZM682.558 42.6504C681.901 42.6504 681.314 42.9022 680.865 43.3856L682.33 44.7473C682.396 44.676 682.45 44.6504 682.558 44.6504V42.6504ZM680.865 43.3856C680.42 43.864 680.211 44.4578 680.211 45.0977H682.211C682.211 44.9172 682.259 44.8235 682.33 44.7473L680.865 43.3856ZM680.211 45.0977V49H682.211V45.0977H680.211ZM681.211 48H679.951V50H681.211V48ZM680.951 49V42.6191H678.951V49H680.951ZM690.462 46.2109H689.462V47.2109H690.462V46.2109ZM690.462 44.9746V43.9746H689.462V44.9746H690.462ZM694.305 44.9746H695.305V43.9746H694.305V44.9746ZM694.305 46.2109V47.2109H695.305V46.2109H694.305ZM691.462 46.2109V44.9746H689.462V46.2109H691.462ZM690.462 45.9746H694.305V43.9746H690.462V45.9746ZM693.305 44.9746V46.2109H695.305V44.9746H693.305ZM694.305 45.2109H690.462V47.2109H694.305V45.2109ZM695.98 42.6191V41.6191H694.98V42.6191H695.98ZM697.234 42.6191H698.234V41.6191H697.234V42.6191ZM697.234 49V50H698.234V49H697.234ZM695.98 49H694.98V50H695.98V49ZM696.027 41.2773L696.725 40.5611L696.716 40.5521L696.706 40.5432L696.027 41.2773ZM696.027 40.1816L696.716 40.9067L696.725 40.8979L696.027 40.1816ZM697.193 40.1816L697.891 39.4654L697.882 39.4566L697.193 40.1816ZM697.193 41.2773L696.505 40.5519L696.505 40.5523L697.193 41.2773ZM695.98 43.6191H697.234V41.6191H695.98V43.6191ZM696.234 42.6191V49H698.234V42.6191H696.234ZM697.234 48H695.98V50H697.234V48ZM696.98 49V42.6191H694.98V49H696.98ZM696.607 40.5C696.597 40.5 696.613 40.4986 696.645 40.5107C696.679 40.5236 696.707 40.5432 696.725 40.5611L695.329 41.9936C695.688 42.3433 696.141 42.5 696.607 42.5V40.5ZM696.706 40.5432C696.723 40.5586 696.75 40.5903 696.77 40.6376C696.79 40.6843 696.793 40.7204 696.793 40.7324H694.793C694.793 41.2211 694.981 41.6718 695.348 42.0114L696.706 40.5432ZM696.793 40.7324C696.793 40.7446 696.79 40.7787 696.772 40.8222C696.753 40.866 696.729 40.8943 696.716 40.9066L695.339 39.4566C694.98 39.7971 694.793 40.2442 694.793 40.7324H696.793ZM696.725 40.8979C696.707 40.9158 696.679 40.9354 696.645 40.9482C696.613 40.9604 696.597 40.959 696.607 40.959V38.959C696.141 38.959 695.688 39.1157 695.329 39.4654L696.725 40.8979ZM696.607 40.959C696.618 40.959 696.603 40.9604 696.574 40.9494C696.544 40.9379 696.52 40.9208 696.505 40.9066L697.882 39.4566C697.523 39.1154 697.074 38.959 696.607 38.959V40.959ZM696.495 40.8979C696.482 40.8842 696.458 40.8558 696.441 40.8139C696.424 40.7725 696.422 40.7413 696.422 40.7324H698.422C698.422 40.2526 698.243 39.808 697.891 39.4654L696.495 40.8979ZM696.422 40.7324C696.422 40.7237 696.424 40.6905 696.443 40.646C696.462 40.6006 696.487 40.5687 696.505 40.5519L697.882 42.0028C698.242 41.6608 698.422 41.2127 698.422 40.7324H696.422ZM696.505 40.5523C696.52 40.5381 696.544 40.5211 696.574 40.5096C696.603 40.4986 696.618 40.5 696.607 40.5V42.5C697.074 42.5 697.523 42.3435 697.882 42.0023L696.505 40.5523ZM698.886 42.6191V41.6191H697.886V42.6191H698.886ZM700.099 42.6191H701.099V41.6191H700.099V42.6191ZM700.099 43.6445H699.099V44.6445H700.099V43.6445ZM700.193 43.6445V44.6445H700.877L701.125 44.0061L700.193 43.6445ZM703.726 43.6445L702.798 44.0184L703.051 44.6445H703.726V43.6445ZM703.825 43.6445V44.6445H704.462L704.732 44.0674L703.825 43.6445ZM704.587 42.8066L704.075 41.9474L704.071 41.95L704.587 42.8066ZM707.271 43.0527L707.993 42.361L707.989 42.3571L707.271 43.0527ZM707.804 49V50H708.804V49H707.804ZM706.544 49H705.544V50H706.544V49ZM704.329 44.0371L705.042 44.7386L705.047 44.7333L704.329 44.0371ZM703.96 49V50H704.96V49H703.96ZM702.724 49H701.724V50H702.724V49ZM700.146 49V50H701.146V49H700.146ZM698.886 49H697.886V50H698.886V49ZM698.886 43.6191H700.099V41.6191H698.886V43.6191ZM699.099 42.6191V43.6445H701.099V42.6191H699.099ZM700.099 44.6445H700.193V42.6445H700.099V44.6445ZM701.125 44.0061C701.21 43.7861 701.311 43.6818 701.402 43.6228C701.499 43.5601 701.668 43.4961 701.968 43.4961V41.4961C701.381 41.4961 700.811 41.6235 700.316 41.9436C699.815 42.2675 699.472 42.7373 699.26 43.283L701.125 44.0061ZM701.968 43.4961C702.251 43.4961 702.412 43.5576 702.508 43.6204C702.601 43.6809 702.706 43.7904 702.798 44.0184L704.653 43.2707C704.437 42.7331 704.095 42.2683 703.602 41.946C703.112 41.626 702.548 41.4961 701.968 41.4961V43.4961ZM703.726 44.6445H703.825V42.6445H703.726V44.6445ZM704.732 44.0674C704.809 43.9025 704.923 43.7715 705.103 43.6633L704.071 41.95C703.563 42.2559 703.17 42.6835 702.919 43.2216L704.732 44.0674ZM705.099 43.6658C705.279 43.5584 705.492 43.4961 705.765 43.4961V41.4961C705.162 41.4961 704.59 41.6408 704.075 41.9474L705.099 43.6658ZM705.765 43.4961C706.21 43.4961 706.426 43.6177 706.552 43.7484L707.989 42.3571C707.397 41.7456 706.609 41.4961 705.765 41.4961V43.4961ZM706.549 43.7445C706.678 43.8797 706.804 44.121 706.804 44.6055H708.804C708.804 43.7618 708.574 42.9679 707.993 42.361L706.549 43.7445ZM706.804 44.6055V49H708.804V44.6055H706.804ZM707.804 48H706.544V50H707.804V48ZM707.544 49V44.9336H705.544V49H707.544ZM707.544 44.9336C707.544 44.3608 707.407 43.746 706.955 43.2774C706.497 42.8018 705.884 42.6504 705.308 42.6504V44.6504C705.556 44.6504 705.561 44.7128 705.515 44.665C705.476 44.6242 705.544 44.6509 705.544 44.9336H707.544ZM705.308 42.6504C704.671 42.6504 704.073 42.8647 703.611 43.341L705.047 44.7333C705.085 44.6939 705.14 44.6504 705.308 44.6504V42.6504ZM703.617 43.3356C703.169 43.7906 702.96 44.3673 702.96 44.9863H704.96C704.96 44.8397 704.998 44.7836 705.042 44.7386L703.617 43.3356ZM702.96 44.9863V49H704.96V44.9863H702.96ZM703.96 48H702.724V50H703.96V48ZM703.724 49V44.8105H701.724V49H703.724ZM703.724 44.8105C703.724 44.2284 703.534 43.6593 703.071 43.2286L701.709 44.6933C701.711 44.6955 701.711 44.6955 701.71 44.6935C701.708 44.6916 701.708 44.6913 701.71 44.6945C701.712 44.7005 701.724 44.7339 701.724 44.8105H703.724ZM703.071 43.2286C702.622 42.8116 702.059 42.6504 701.493 42.6504V44.6504C701.59 44.6504 701.645 44.6637 701.671 44.6729C701.695 44.6811 701.703 44.6882 701.709 44.6933L703.071 43.2286ZM701.493 42.6504C700.836 42.6504 700.249 42.9022 699.8 43.3856L701.265 44.7473C701.331 44.676 701.385 44.6504 701.493 44.6504V42.6504ZM699.8 43.3856C699.355 43.864 699.146 44.4578 699.146 45.0977H701.146C701.146 44.9172 701.194 44.8235 701.265 44.7473L699.8 43.3856ZM699.146 45.0977V49H701.146V45.0977H699.146ZM700.146 48H698.886V50H700.146V48ZM699.886 49V42.6191H697.886V49H699.886ZM714.618 43.3984L715.397 42.7725L715.395 42.77L714.618 43.3984ZM714.618 48.2148L713.838 47.5889L713.835 47.592L714.618 48.2148ZM710.733 48.0332L711.628 47.5879L711.352 47.0332H710.733V48.0332ZM710.633 48.0332V47.0332H709.633V48.0332H710.633ZM710.633 51.0684V52.0684H711.633V51.0684H710.633ZM709.373 51.0684H708.373V52.0684H709.373V51.0684ZM709.373 42.6191V41.6191H708.373V42.6191H709.373ZM710.586 42.6191H711.586V41.6191H710.586V42.6191ZM710.586 43.6738H709.586V44.6738H710.586V43.6738ZM710.68 43.6738V44.6738H711.284L711.565 44.14L710.68 43.6738ZM711.5 42.8184L711.004 41.9501L710.997 41.9542L711.5 42.8184ZM713.586 47.4004L714.369 48.0232L714.376 48.0143L713.586 47.4004ZM713.586 44.2188L714.373 43.6009L714.369 43.596L713.586 44.2188ZM711.073 44.2246L710.291 43.6009L710.288 43.6047L711.073 44.2246ZM711.073 47.3945L710.288 48.0144L710.291 48.0183L711.073 47.3945ZM712.684 43.5137C713.219 43.5137 713.568 43.6906 713.84 44.0269L715.395 42.77C714.714 41.9265 713.774 41.5137 712.684 41.5137V43.5137ZM713.838 44.0244C714.131 44.3898 714.332 44.9475 714.332 45.8066H716.332C716.332 44.6423 716.057 43.5946 715.397 42.7725L713.838 44.0244ZM714.332 45.8066C714.332 46.6658 714.131 47.2235 713.838 47.5889L715.397 48.8408C716.057 48.0187 716.332 46.9709 716.332 45.8066H714.332ZM713.835 47.592C713.566 47.93 713.223 48.1055 712.696 48.1055V50.1055C713.786 50.1055 714.724 49.6872 715.4 48.8377L713.835 47.592ZM712.696 48.1055C712.341 48.1055 712.114 48.0389 711.97 47.9598C711.835 47.8863 711.722 47.7758 711.628 47.5879L709.837 48.4785C710.099 49.0055 710.491 49.4311 711.011 49.715C711.52 49.9933 712.097 50.1055 712.696 50.1055V48.1055ZM710.733 47.0332H710.633V49.0332H710.733V47.0332ZM709.633 48.0332V51.0684H711.633V48.0332H709.633ZM710.633 50.0684H709.373V52.0684H710.633V50.0684ZM710.373 51.0684V42.6191H708.373V51.0684H710.373ZM709.373 43.6191H710.586V41.6191H709.373V43.6191ZM709.586 42.6191V43.6738H711.586V42.6191H709.586ZM710.586 44.6738H710.68V42.6738H710.586V44.6738ZM711.565 44.14C711.669 43.9428 711.81 43.7954 712.004 43.6825L710.997 41.9542C710.48 42.2554 710.074 42.6783 709.795 43.2077L711.565 44.14ZM711.997 43.6866C712.192 43.575 712.414 43.5137 712.684 43.5137V41.5137C712.087 41.5137 711.52 41.6555 711.004 41.9501L711.997 43.6866ZM712.327 48.9746C713.134 48.9746 713.855 48.6688 714.369 48.0231L712.804 46.7776C712.708 46.8976 712.59 46.9746 712.327 46.9746V48.9746ZM714.376 48.0143C714.857 47.3961 715.038 46.6217 715.038 45.8066H713.038C713.038 46.3432 712.918 46.6312 712.797 46.7865L714.376 48.0143ZM715.038 45.8066C715.038 44.9924 714.857 44.2171 714.373 43.6009L712.8 44.8366C712.917 44.986 713.038 45.2693 713.038 45.8066H715.038ZM714.369 43.596C713.856 42.9523 713.138 42.6445 712.332 42.6445V44.6445C712.589 44.6445 712.707 44.7196 712.804 44.8415L714.369 43.596ZM712.332 42.6445C711.523 42.6445 710.805 42.9569 710.291 43.6009L711.854 44.8483C711.958 44.7189 712.08 44.6445 712.332 44.6445V42.6445ZM710.288 43.6047C709.799 44.2239 709.61 44.9962 709.61 45.8125H711.61C711.61 45.2928 711.729 45.0066 711.857 44.8445L710.288 43.6047ZM709.61 45.8125C709.61 46.6265 709.8 47.3962 710.288 48.0144L711.857 46.7746C711.729 46.6116 711.61 46.3267 711.61 45.8125H709.61ZM710.291 48.0183C710.803 48.6602 711.518 48.9746 712.327 48.9746V46.9746C712.08 46.9746 711.959 46.9023 711.854 46.7708L710.291 48.0183ZM717.201 43.0352L716.589 42.244L716.585 42.2472L717.201 43.0352ZM721.478 44.2891V45.2891H722.595L722.472 44.1786L721.478 44.2891ZM720.271 44.2891L719.301 44.5333L719.492 45.2891H720.271V44.2891ZM718.103 43.75L718.651 44.5863L718.655 44.5842L718.103 43.75ZM718.759 45.1328L718.985 44.1587L718.985 44.1585L718.759 45.1328ZM719.82 45.3789L719.594 46.353L719.596 46.3536L719.82 45.3789ZM721.168 46L721.865 45.2833L721.86 45.2782L721.168 46ZM720.851 48.5723L721.449 49.3738L721.451 49.3723L720.851 48.5723ZM717.125 48.6367L717.697 47.8165L717.689 47.8111L717.125 48.6367ZM716.339 47.3066V46.3066H715.238L715.344 47.4027L716.339 47.3066ZM717.599 47.3066L718.551 46.9988L718.327 46.3066H717.599V47.3066ZM719.392 46.4629L719.623 45.4899L719.618 45.4887L719.392 46.4629ZM718.279 46.2051L718.048 47.1781L718.053 47.1793L718.279 46.2051ZM716.937 45.5605L717.644 44.8534L717.639 44.8486L716.937 45.5605ZM717.504 44.4238C717.504 44.1861 717.58 44.0076 717.817 43.8231L716.585 42.2472C715.891 42.7893 715.504 43.5365 715.504 44.4238H717.504ZM717.812 43.8263C718.065 43.6311 718.429 43.4961 718.982 43.4961V41.4961C718.09 41.4961 717.266 41.7205 716.589 42.244L717.812 43.8263ZM718.982 43.4961C719.559 43.4961 719.915 43.6227 720.14 43.7835L721.305 42.1579C720.646 41.6858 719.843 41.4961 718.982 41.4961V43.4961ZM720.14 43.7835C720.34 43.9269 720.452 44.1054 720.484 44.3995L722.472 44.1786C722.38 43.3478 721.988 42.6473 721.305 42.1579L720.14 43.7835ZM721.478 43.2891H720.271V45.2891H721.478V43.2891ZM721.241 44.0448C721.115 43.547 720.821 43.1262 720.364 42.8542C719.939 42.6011 719.45 42.5215 718.982 42.5215V44.5215C719.245 44.5215 719.336 44.5698 719.341 44.5726C719.341 44.5726 719.339 44.572 719.337 44.5705C719.335 44.5689 719.333 44.5667 719.329 44.5638C719.322 44.5576 719.316 44.55 719.309 44.5417C719.296 44.5233 719.297 44.5155 719.301 44.5333L721.241 44.0448ZM718.982 42.5215C718.486 42.5215 717.987 42.6282 717.552 42.9158L718.655 44.5842C718.68 44.5671 718.767 44.5215 718.982 44.5215V42.5215ZM717.555 42.9138C717.086 43.2208 716.746 43.7127 716.746 44.3535H718.746C718.746 44.3999 718.732 44.4657 718.695 44.5276C718.662 44.5839 718.632 44.5987 718.651 44.5862L717.555 42.9138ZM716.746 44.3535C716.746 44.9017 717.023 45.3314 717.39 45.6136C717.722 45.8688 718.134 46.0145 718.534 46.1071L718.985 44.1585C718.855 44.1286 718.761 44.098 718.696 44.0711C718.629 44.0437 718.606 44.026 718.609 44.028C718.613 44.0314 718.651 44.0623 718.688 44.1298C718.727 44.2021 718.746 44.2822 718.746 44.3535H716.746ZM718.533 46.1069L719.594 46.353L720.046 44.4048L718.985 44.1587L718.533 46.1069ZM719.596 46.3536C720.128 46.4755 720.377 46.6269 720.475 46.7218L721.86 45.2782C721.388 44.8262 720.738 44.5635 720.043 44.4042L719.596 46.3536ZM720.47 46.7167C720.536 46.7806 720.601 46.8794 720.601 47.1191H722.601C722.601 46.4292 722.377 45.7819 721.865 45.2833L720.47 46.7167ZM720.601 47.1191C720.601 47.3793 720.515 47.5745 720.251 47.7723L721.451 49.3723C722.187 48.82 722.601 48.0465 722.601 47.1191H720.601ZM720.253 47.7707C719.973 47.9795 719.568 48.123 718.959 48.123V50.123C719.888 50.123 720.745 49.8994 721.449 49.3738L720.253 47.7707ZM718.959 48.123C718.338 48.123 717.946 47.9901 717.697 47.8165L716.553 49.4569C717.233 49.9318 718.064 50.123 718.959 50.123V48.123ZM717.689 47.8111C717.465 47.6585 717.361 47.4827 717.335 47.2105L715.344 47.4027C715.427 48.2634 715.846 48.9744 716.56 49.4624L717.689 47.8111ZM716.339 48.3066H717.599V46.3066H716.339V48.3066ZM716.648 47.6145C716.806 48.1045 717.12 48.509 717.578 48.7716C718.01 49.02 718.504 49.1035 718.988 49.1035V47.1035C718.717 47.1035 718.603 47.0542 718.573 47.037C718.561 47.0303 718.562 47.0285 718.565 47.0322C718.567 47.0353 718.56 47.0282 718.551 46.9988L716.648 47.6145ZM718.988 49.1035C719.512 49.1035 720.038 48.9974 720.494 48.7053L719.415 47.0212C719.371 47.0495 719.253 47.1035 718.988 47.1035V49.1035ZM720.494 48.7053C720.974 48.3976 721.33 47.8992 721.33 47.2422H719.33C719.33 47.2228 719.332 47.195 719.341 47.1621C719.35 47.1289 719.364 47.0978 719.38 47.071C719.413 47.0168 719.44 47.0054 719.415 47.0212L720.494 48.7053ZM721.33 47.2422C721.33 46.7288 721.095 46.2994 720.735 46C720.411 45.7307 720.008 45.5812 719.623 45.49L719.161 47.4358C719.274 47.4626 719.352 47.4897 719.403 47.512C719.455 47.5345 719.466 47.5467 719.456 47.5381C719.443 47.5274 719.407 47.4928 719.375 47.4286C719.342 47.362 719.33 47.2948 719.33 47.2422H721.33ZM719.618 45.4887L718.505 45.2309L718.053 47.1793L719.167 47.4371L719.618 45.4887ZM718.51 45.2321C717.989 45.1086 717.745 44.954 717.644 44.8534L716.23 46.2677C716.7 46.7374 717.35 47.0125 718.048 47.1781L718.51 45.2321ZM717.639 44.8486C717.572 44.7823 717.504 44.6764 717.504 44.4238H715.504C715.504 45.1165 715.724 45.7684 716.235 46.2724L717.639 44.8486ZM728.421 49V50H729.421V49H728.421ZM727.214 49H726.214V50H727.214V49ZM727.214 47.9863H728.214V46.9863H727.214V47.9863ZM727.114 47.9863V46.9863H726.454L726.195 47.593L727.114 47.9863ZM723.458 48.502L724.182 47.8121L724.178 47.8086L723.458 48.502ZM722.86 42.6191V41.6191H721.86V42.6191H722.86ZM724.12 42.6191H725.12V41.6191H724.12V42.6191ZM727.167 42.6191V41.6191H726.167V42.6191H727.167ZM728.421 42.6191H729.421V41.6191H728.421V42.6191ZM728.421 48H727.214V50H728.421V48ZM728.214 49V47.9863H726.214V49H728.214ZM727.214 46.9863H727.114V48.9863H727.214V46.9863ZM726.195 47.593C726.112 47.7873 726.005 47.8966 725.877 47.9697C725.735 48.0505 725.5 48.123 725.116 48.123V50.123C725.74 50.123 726.342 50.0061 726.866 49.708C727.403 49.4022 727.792 48.9432 728.033 48.3797L726.195 47.593ZM725.116 48.123C724.608 48.123 724.344 47.9821 724.182 47.8121L722.734 49.1918C723.361 49.85 724.202 50.123 725.116 50.123V48.123ZM724.178 47.8086C724.01 47.6333 723.86 47.3287 723.86 46.75H721.86C721.86 47.6791 722.109 48.5425 722.737 49.1953L724.178 47.8086ZM723.86 46.75V42.6191H721.86V46.75H723.86ZM722.86 43.6191H724.12V41.6191H722.86V43.6191ZM723.12 42.6191V46.4336H725.12V42.6191H723.12ZM723.12 46.4336C723.12 47.0766 723.267 47.7452 723.737 48.2545C724.221 48.7788 724.882 48.957 725.526 48.957V46.957C725.379 46.957 725.294 46.9369 725.251 46.9213C725.23 46.9138 725.219 46.9074 725.214 46.9044C725.21 46.9015 725.208 46.8996 725.206 46.8979C725.205 46.8965 725.185 46.8753 725.164 46.806C725.141 46.7328 725.12 46.6137 725.12 46.4336H723.12ZM725.526 48.957C726.228 48.957 726.902 48.7544 727.425 48.2459L726.03 46.8127C725.966 46.8745 725.84 46.957 725.526 46.957V48.957ZM727.425 48.2459C727.953 47.7319 728.167 47.0572 728.167 46.3516H726.167C726.167 46.646 726.088 46.7564 726.03 46.8127L727.425 48.2459ZM728.167 46.3516V42.6191H726.167V46.3516H728.167ZM727.167 43.6191H728.421V41.6191H727.167V43.6191ZM727.421 42.6191V49H729.421V42.6191H727.421ZM730.055 42.6191V41.6191H729.055V42.6191H730.055ZM731.268 42.6191H732.268V41.6191H731.268V42.6191ZM731.268 43.6445H730.268V44.6445H731.268V43.6445ZM731.361 43.6445V44.6445H732.046L732.294 44.0061L731.361 43.6445ZM734.895 43.6445L733.967 44.0184L734.219 44.6445H734.895V43.6445ZM734.994 43.6445V44.6445H735.631L735.9 44.0674L734.994 43.6445ZM735.756 42.8066L735.244 41.9474L735.24 41.95L735.756 42.8066ZM738.439 43.0527L739.162 42.361L739.158 42.3571L738.439 43.0527ZM738.973 49V50H739.973V49H738.973ZM737.713 49H736.713V50H737.713V49ZM735.498 44.0371L736.211 44.7386L736.216 44.7333L735.498 44.0371ZM735.129 49V50H736.129V49H735.129ZM733.893 49H732.893V50H733.893V49ZM731.314 49V50H732.314V49H731.314ZM730.055 49H729.055V50H730.055V49ZM730.055 43.6191H731.268V41.6191H730.055V43.6191ZM730.268 42.6191V43.6445H732.268V42.6191H730.268ZM731.268 44.6445H731.361V42.6445H731.268V44.6445ZM732.294 44.0061C732.379 43.7861 732.48 43.6818 732.571 43.6228C732.668 43.5601 732.837 43.4961 733.137 43.4961V41.4961C732.55 41.4961 731.98 41.6235 731.485 41.9436C730.984 42.2675 730.641 42.7373 730.429 43.283L732.294 44.0061ZM733.137 43.4961C733.42 43.4961 733.581 43.5576 733.677 43.6204C733.769 43.6809 733.875 43.7904 733.967 44.0184L735.822 43.2707C735.605 42.7331 735.264 42.2683 734.771 41.946C734.281 41.626 733.717 41.4961 733.137 41.4961V43.4961ZM734.895 44.6445H734.994V42.6445H734.895V44.6445ZM735.9 44.0674C735.977 43.9025 736.092 43.7715 736.272 43.6633L735.24 41.95C734.732 42.2559 734.339 42.6835 734.088 43.2216L735.9 44.0674ZM736.268 43.6658C736.448 43.5584 736.661 43.4961 736.934 43.4961V41.4961C736.331 41.4961 735.759 41.6408 735.244 41.9474L736.268 43.6658ZM736.934 43.4961C737.379 43.4961 737.594 43.6177 737.721 43.7484L739.158 42.3571C738.566 41.7456 737.778 41.4961 736.934 41.4961V43.4961ZM737.717 43.7445C737.847 43.8797 737.973 44.121 737.973 44.6055H739.973C739.973 43.7618 739.743 42.9679 739.162 42.361L737.717 43.7445ZM737.973 44.6055V49H739.973V44.6055H737.973ZM738.973 48H737.713V50H738.973V48ZM738.713 49V44.9336H736.713V49H738.713ZM738.713 44.9336C738.713 44.3608 738.575 43.746 738.124 43.2774C737.666 42.8018 737.052 42.6504 736.477 42.6504V44.6504C736.725 44.6504 736.73 44.7128 736.684 44.665C736.644 44.6242 736.713 44.6509 736.713 44.9336H738.713ZM736.477 42.6504C735.839 42.6504 735.242 42.8647 734.78 43.341L736.216 44.7333C736.254 44.6939 736.309 44.6504 736.477 44.6504V42.6504ZM734.785 43.3356C734.337 43.7906 734.129 44.3673 734.129 44.9863H736.129C736.129 44.8397 736.166 44.7836 736.211 44.7386L734.785 43.3356ZM734.129 44.9863V49H736.129V44.9863H734.129ZM735.129 48H733.893V50H735.129V48ZM734.893 49V44.8105H732.893V49H734.893ZM734.893 44.8105C734.893 44.2284 734.703 43.6593 734.24 43.2286L732.878 44.6933C732.88 44.6955 732.88 44.6955 732.878 44.6935C732.877 44.6916 732.877 44.6913 732.878 44.6945C732.881 44.7005 732.893 44.7339 732.893 44.8105H734.893ZM734.24 43.2286C733.791 42.8116 733.228 42.6504 732.662 42.6504V44.6504C732.758 44.6504 732.814 44.6637 732.84 44.6729C732.864 44.6811 732.872 44.6882 732.878 44.6933L734.24 43.2286ZM732.662 42.6504C732.005 42.6504 731.418 42.9022 730.969 43.3856L732.434 44.7473C732.5 44.676 732.554 44.6504 732.662 44.6504V42.6504ZM730.969 43.3856C730.524 43.864 730.314 44.4578 730.314 45.0977H732.314C732.314 44.9172 732.363 44.8235 732.434 44.7473L730.969 43.3856ZM730.314 45.0977V49H732.314V45.0977H730.314ZM731.314 48H730.055V50H731.314V48ZM731.055 49V42.6191H729.055V49H731.055Z" fill="black" mask="url(#path-13-outside-2_3_137)"/>
<path d="M660.694 49V50H661.694V49H660.694ZM655.421 49H654.421V50H655.421V49ZM655.421 40.5449V39.5449H654.421V40.5449H655.421ZM656.733 40.5449H657.733V39.5449H656.733V40.5449ZM656.733 47.793H655.733V48.793H656.733V47.793ZM660.694 47.793H661.694V46.793H660.694V47.793ZM660.694 48H655.421V50H660.694V48ZM656.421 49V40.5449H654.421V49H656.421ZM655.421 41.5449H656.733V39.5449H655.421V41.5449ZM655.733 40.5449V47.793H657.733V40.5449H655.733ZM656.733 48.793H660.694V46.793H656.733V48.793ZM659.694 47.793V49H661.694V47.793H659.694ZM665.68 47.4238L666.469 48.0378L666.47 48.0367L665.68 47.4238ZM665.68 44.1895L666.473 43.5805L666.466 43.5716L665.68 44.1895ZM662.211 43.3809L662.949 44.0555L662.952 44.0528L662.211 43.3809ZM666.611 43.3809L665.871 44.0528L665.873 44.0555L666.611 43.3809ZM664.414 49.0039C665.227 49.0039 665.957 48.6967 666.469 48.0378L664.89 46.8099C664.801 46.9244 664.687 47.0039 664.414 47.0039V49.0039ZM666.47 48.0367C666.951 47.4166 667.125 46.6301 667.125 45.8066H665.125C665.125 46.3738 665.002 46.6655 664.889 46.811L666.47 48.0367ZM667.125 45.8066C667.125 44.9847 666.95 44.2017 666.473 43.5805L664.886 44.7984C665.003 44.9506 665.125 45.2458 665.125 45.8066H667.125ZM666.466 43.5716C665.952 42.9175 665.224 42.6152 664.414 42.6152V44.6152C664.69 44.6152 664.806 44.6958 664.893 44.8073L666.466 43.5716ZM664.414 42.6152C663.603 42.6152 662.871 42.9158 662.358 43.5766L663.939 44.8023C664.02 44.6974 664.131 44.6152 664.414 44.6152V42.6152ZM662.358 43.5766C661.877 44.1967 661.703 44.9832 661.703 45.8066H663.703C663.703 45.2395 663.826 44.9478 663.939 44.8023L662.358 43.5766ZM661.703 45.8066C661.703 46.6325 661.877 47.4216 662.358 48.0425L663.939 46.8169C663.826 46.6722 663.703 46.3793 663.703 45.8066H661.703ZM662.358 48.0425C662.871 48.7033 663.603 49.0039 664.414 49.0039V47.0039C664.131 47.0039 664.02 46.9217 663.939 46.8169L662.358 48.0425ZM664.414 48.123C663.704 48.123 663.257 47.91 662.946 47.5663L661.464 48.9102C662.223 49.7463 663.249 50.123 664.414 50.123V48.123ZM662.946 47.5663C662.622 47.2095 662.402 46.6648 662.402 45.8066H660.402C660.402 47.011 660.718 48.0873 661.464 48.9102L662.946 47.5663ZM662.402 45.8066C662.402 44.9553 662.622 44.4131 662.949 44.0555L661.473 42.7062C660.721 43.5283 660.402 44.6033 660.402 45.8066H662.402ZM662.952 44.0528C663.264 43.7083 663.709 43.4961 664.414 43.4961V41.4961C663.252 41.4961 662.228 41.8738 661.47 42.7089L662.952 44.0528ZM664.414 43.4961C665.113 43.4961 665.557 43.7074 665.871 44.0528L667.352 42.7089C666.595 41.8747 665.574 41.4961 664.414 41.4961V43.4961ZM665.873 44.0555C666.2 44.4131 666.42 44.9553 666.42 45.8066H668.42C668.42 44.6033 668.101 43.5283 667.349 42.7062L665.873 44.0555ZM666.42 45.8066C666.42 46.6648 666.2 47.2095 665.877 47.5663L667.358 48.9102C668.104 48.0873 668.42 47.011 668.42 45.8066H666.42ZM665.877 47.5663C665.564 47.9109 665.119 48.123 664.414 48.123V50.123C665.577 50.123 666.6 49.7454 667.358 48.9102L665.877 47.5663ZM668.737 42.6191V41.6191H667.737V42.6191H668.737ZM669.95 42.6191H670.95V41.6191H669.95V42.6191ZM669.95 43.5977H668.95V44.5977H669.95V43.5977ZM670.044 43.5977V44.5977H670.8L671.006 43.8708L670.044 43.5977ZM672.318 42.5664H673.318V41.7967L672.573 41.5997L672.318 42.5664ZM672.318 43.8086L671.986 44.7521L673.318 45.2199V43.8086H672.318ZM670.454 44.1484L671.127 44.888L671.132 44.8836L670.454 44.1484ZM669.997 49V50H670.997V49H669.997ZM668.737 49H667.737V50H668.737V49ZM668.737 43.6191H669.95V41.6191H668.737V43.6191ZM668.95 42.6191V43.5977H670.95V42.6191H668.95ZM669.95 44.5977H670.044V42.5977H669.95V44.5977ZM671.006 43.8708C671.019 43.8267 671.048 43.7559 671.195 43.6629L670.124 41.9739C669.63 42.2871 669.249 42.7358 669.082 43.3245L671.006 43.8708ZM671.195 43.6629C671.34 43.5706 671.518 43.5137 671.761 43.5137V41.5137C671.175 41.5137 670.619 41.6599 670.124 41.9739L671.195 43.6629ZM671.761 43.5137C671.857 43.5137 671.93 43.5173 671.984 43.5224C672.041 43.5277 672.063 43.5335 672.062 43.5331L672.573 41.5997C672.318 41.532 672.032 41.5137 671.761 41.5137V43.5137ZM671.318 42.5664V43.8086H673.318V42.5664H671.318ZM672.649 42.8651C672.335 42.7547 671.958 42.7324 671.62 42.7324V44.7324C671.756 44.7324 671.857 44.7379 671.926 44.7456C672.002 44.7538 672.013 44.7615 671.986 44.7521L672.649 42.8651ZM671.62 42.7324C670.937 42.7324 670.292 42.9379 669.776 43.4133L671.132 44.8836C671.218 44.8043 671.351 44.7324 671.62 44.7324V42.7324ZM669.781 43.4089C669.25 43.8923 668.997 44.5311 668.997 45.2324H670.997C670.997 45.0431 671.049 44.9593 671.127 44.8879L669.781 43.4089ZM668.997 45.2324V49H670.997V45.2324H668.997ZM669.997 48H668.737V50H669.997V48ZM669.737 49V42.6191H667.737V49H669.737ZM674.133 45.2207L673.136 45.1506L673.06 46.2207H674.133V45.2207ZM677.356 45.2207V46.2207H678.387L678.355 45.1897L677.356 45.2207ZM676.911 44.0195L677.636 43.3318L677.636 43.3315L676.911 44.0195ZM678.563 47.2773L679.533 47.5214L679.846 46.2773H678.563V47.2773ZM677.62 48.6309L678.177 49.4609L678.18 49.4588L677.62 48.6309ZM673.641 48.2383L674.389 47.5745L674.384 47.5693L673.641 48.2383ZM677.883 43.3516L678.633 42.6894L678.63 42.6866L677.883 43.3516ZM678.639 46.1523V47.1523H679.639V46.1523H678.639ZM674.133 46.1523V45.1523H673.133V46.1523H674.133ZM674.133 46.2227H673.133V46.24L673.134 46.2574L674.133 46.2227ZM677.35 47.2773V46.2773H676.715L676.445 46.8522L677.35 47.2773ZM675.786 42.5684C675.083 42.5684 674.437 42.8058 673.93 43.3124L675.344 44.7266C675.439 44.6317 675.559 44.5684 675.786 44.5684V42.5684ZM673.93 43.3124C673.429 43.8131 673.185 44.4554 673.136 45.1506L675.131 45.2908C675.152 44.986 675.243 44.8275 675.344 44.7266L673.93 43.3124ZM674.133 46.2207H677.356V44.2207H674.133V46.2207ZM678.355 45.1897C678.334 44.5002 678.123 43.8456 677.636 43.3318L676.185 44.7073C676.26 44.7872 676.346 44.9333 676.356 45.2517L678.355 45.1897ZM677.636 43.3315C677.138 42.8064 676.488 42.5684 675.786 42.5684V44.5684C676.013 44.5684 676.112 44.6311 676.185 44.7075L677.636 43.3315ZM677.593 47.0333C677.508 47.3724 677.337 47.6144 677.059 47.8029L678.18 49.4588C678.871 48.991 679.329 48.3307 679.533 47.5214L677.593 47.0333ZM677.062 47.8009C676.774 47.9946 676.372 48.123 675.797 48.123V50.123C676.676 50.123 677.489 49.9234 678.177 49.4609L677.062 47.8009ZM675.797 48.123C675.119 48.123 674.692 47.9157 674.389 47.5745L672.893 48.902C673.637 49.7406 674.647 50.123 675.797 50.123V48.123ZM674.384 47.5693C674.066 47.2157 673.85 46.6771 673.85 45.8301H671.85C671.85 47.0222 672.161 48.089 672.898 48.9072L674.384 47.5693ZM673.85 45.8301C673.85 44.9864 674.067 44.434 674.396 44.0604L672.897 42.7365C672.165 43.566 671.85 44.6347 671.85 45.8301H673.85ZM674.396 44.0604C674.714 43.7008 675.142 43.4961 675.791 43.4961V41.4961C674.644 41.4961 673.642 41.8929 672.897 42.7365L674.396 44.0604ZM675.791 43.4961C676.443 43.4961 676.85 43.6945 677.136 44.0166L678.63 42.6866C677.901 41.868 676.913 41.4961 675.791 41.4961V43.4961ZM677.134 44.0137C677.431 44.3495 677.639 44.8736 677.639 45.7129H679.639C679.639 44.5443 679.344 43.4943 678.633 42.6894L677.134 44.0137ZM677.639 45.7129V46.1523H679.639V45.7129H677.639ZM678.639 45.1523H674.133V47.1523H678.639V45.1523ZM673.133 46.1523V46.2227H675.133V46.1523H673.133ZM673.134 46.2574C673.159 46.9964 673.38 47.693 673.887 48.239L675.352 46.8781C675.25 46.7679 675.146 46.5739 675.133 46.188L673.134 46.2574ZM673.887 48.239C674.405 48.7975 675.089 49.0508 675.832 49.0508V47.0508C675.568 47.0508 675.443 46.9759 675.352 46.8781L673.887 48.239ZM675.832 49.0508C676.829 49.0508 677.789 48.6938 678.255 47.7025L676.445 46.8522C676.418 46.9097 676.389 46.9388 676.335 46.9665C676.263 47.0028 676.113 47.0508 675.832 47.0508V49.0508ZM677.35 48.2773H678.563V46.2773H677.35V48.2773ZM679.951 42.6191V41.6191H678.951V42.6191H679.951ZM681.164 42.6191H682.164V41.6191H681.164V42.6191ZM681.164 43.6445H680.164V44.6445H681.164V43.6445ZM681.257 43.6445V44.6445H681.942L682.19 44.0061L681.257 43.6445ZM684.791 43.6445L683.863 44.0184L684.116 44.6445H684.791V43.6445ZM684.89 43.6445V44.6445H685.527L685.796 44.0674L684.89 43.6445ZM685.652 42.8066L685.14 41.9474L685.136 41.95L685.652 42.8066ZM688.336 43.0527L689.058 42.361L689.054 42.3571L688.336 43.0527ZM688.869 49V50H689.869V49H688.869ZM687.609 49H686.609V50H687.609V49ZM685.394 44.0371L686.107 44.7386L686.112 44.7333L685.394 44.0371ZM685.025 49V50H686.025V49H685.025ZM683.789 49H682.789V50H683.789V49ZM681.211 49V50H682.211V49H681.211ZM679.951 49H678.951V50H679.951V49ZM679.951 43.6191H681.164V41.6191H679.951V43.6191ZM680.164 42.6191V43.6445H682.164V42.6191H680.164ZM681.164 44.6445H681.257V42.6445H681.164V44.6445ZM682.19 44.0061C682.275 43.7861 682.376 43.6818 682.467 43.6228C682.564 43.5601 682.733 43.4961 683.033 43.4961V41.4961C682.446 41.4961 681.876 41.6235 681.381 41.9436C680.88 42.2675 680.537 42.7373 680.325 43.283L682.19 44.0061ZM683.033 43.4961C683.316 43.4961 683.477 43.5576 683.573 43.6204C683.665 43.6809 683.771 43.7904 683.863 44.0184L685.718 43.2707C685.501 42.7331 685.16 42.2683 684.667 41.946C684.177 41.626 683.613 41.4961 683.033 41.4961V43.4961ZM684.791 44.6445H684.89V42.6445H684.791V44.6445ZM685.796 44.0674C685.873 43.9025 685.988 43.7715 686.168 43.6633L685.136 41.95C684.628 42.2559 684.235 42.6835 683.984 43.2216L685.796 44.0674ZM686.164 43.6658C686.344 43.5584 686.557 43.4961 686.83 43.4961V41.4961C686.227 41.4961 685.655 41.6408 685.14 41.9474L686.164 43.6658ZM686.83 43.4961C687.275 43.4961 687.491 43.6177 687.617 43.7484L689.054 42.3571C688.462 41.7456 687.674 41.4961 686.83 41.4961V43.4961ZM687.613 43.7445C687.743 43.8797 687.869 44.121 687.869 44.6055H689.869C689.869 43.7618 689.639 42.9679 689.058 42.361L687.613 43.7445ZM687.869 44.6055V49H689.869V44.6055H687.869ZM688.869 48H687.609V50H688.869V48ZM688.609 49V44.9336H686.609V49H688.609ZM688.609 44.9336C688.609 44.3608 688.472 43.746 688.02 43.2774C687.562 42.8018 686.949 42.6504 686.373 42.6504V44.6504C686.621 44.6504 686.626 44.7128 686.58 44.665C686.54 44.6242 686.609 44.6509 686.609 44.9336H688.609ZM686.373 42.6504C685.736 42.6504 685.138 42.8647 684.676 43.341L686.112 44.7333C686.15 44.6939 686.205 44.6504 686.373 44.6504V42.6504ZM684.681 43.3356C684.234 43.7906 684.025 44.3673 684.025 44.9863H686.025C686.025 44.8397 686.063 44.7836 686.107 44.7386L684.681 43.3356ZM684.025 44.9863V49H686.025V44.9863H684.025ZM685.025 48H683.789V50H685.025V48ZM684.789 49V44.8105H682.789V49H684.789ZM684.789 44.8105C684.789 44.2284 684.599 43.6593 684.136 43.2286L682.774 44.6933C682.776 44.6955 682.776 44.6955 682.774 44.6935C682.773 44.6916 682.773 44.6913 682.774 44.6945C682.777 44.7005 682.789 44.7339 682.789 44.8105H684.789ZM684.136 43.2286C683.687 42.8116 683.124 42.6504 682.558 42.6504V44.6504C682.654 44.6504 682.71 44.6637 682.736 44.6729C682.76 44.6811 682.768 44.6882 682.774 44.6933L684.136 43.2286ZM682.558 42.6504C681.901 42.6504 681.314 42.9022 680.865 43.3856L682.33 44.7473C682.396 44.676 682.45 44.6504 682.558 44.6504V42.6504ZM680.865 43.3856C680.42 43.864 680.211 44.4578 680.211 45.0977H682.211C682.211 44.9172 682.259 44.8235 682.33 44.7473L680.865 43.3856ZM680.211 45.0977V49H682.211V45.0977H680.211ZM681.211 48H679.951V50H681.211V48ZM680.951 49V42.6191H678.951V49H680.951ZM690.462 46.2109H689.462V47.2109H690.462V46.2109ZM690.462 44.9746V43.9746H689.462V44.9746H690.462ZM694.305 44.9746H695.305V43.9746H694.305V44.9746ZM694.305 46.2109V47.2109H695.305V46.2109H694.305ZM691.462 46.2109V44.9746H689.462V46.2109H691.462ZM690.462 45.9746H694.305V43.9746H690.462V45.9746ZM693.305 44.9746V46.2109H695.305V44.9746H693.305ZM694.305 45.2109H690.462V47.2109H694.305V45.2109ZM695.98 42.6191V41.6191H694.98V42.6191H695.98ZM697.234 42.6191H698.234V41.6191H697.234V42.6191ZM697.234 49V50H698.234V49H697.234ZM695.98 49H694.98V50H695.98V49ZM696.027 41.2773L696.725 40.5611L696.716 40.5521L696.706 40.5432L696.027 41.2773ZM696.027 40.1816L696.716 40.9067L696.725 40.8979L696.027 40.1816ZM697.193 40.1816L697.891 39.4654L697.882 39.4566L697.193 40.1816ZM697.193 41.2773L696.505 40.5519L696.505 40.5523L697.193 41.2773ZM695.98 43.6191H697.234V41.6191H695.98V43.6191ZM696.234 42.6191V49H698.234V42.6191H696.234ZM697.234 48H695.98V50H697.234V48ZM696.98 49V42.6191H694.98V49H696.98ZM696.607 40.5C696.597 40.5 696.613 40.4986 696.645 40.5107C696.679 40.5236 696.707 40.5432 696.725 40.5611L695.329 41.9936C695.688 42.3433 696.141 42.5 696.607 42.5V40.5ZM696.706 40.5432C696.723 40.5586 696.75 40.5903 696.77 40.6376C696.79 40.6843 696.793 40.7204 696.793 40.7324H694.793C694.793 41.2211 694.981 41.6718 695.348 42.0114L696.706 40.5432ZM696.793 40.7324C696.793 40.7446 696.79 40.7787 696.772 40.8222C696.753 40.866 696.729 40.8943 696.716 40.9066L695.339 39.4566C694.98 39.7971 694.793 40.2442 694.793 40.7324H696.793ZM696.725 40.8979C696.707 40.9158 696.679 40.9354 696.645 40.9482C696.613 40.9604 696.597 40.959 696.607 40.959V38.959C696.141 38.959 695.688 39.1157 695.329 39.4654L696.725 40.8979ZM696.607 40.959C696.618 40.959 696.603 40.9604 696.574 40.9494C696.544 40.9379 696.52 40.9208 696.505 40.9066L697.882 39.4566C697.523 39.1154 697.074 38.959 696.607 38.959V40.959ZM696.495 40.8979C696.482 40.8842 696.458 40.8558 696.441 40.8139C696.424 40.7725 696.422 40.7413 696.422 40.7324H698.422C698.422 40.2526 698.243 39.808 697.891 39.4654L696.495 40.8979ZM696.422 40.7324C696.422 40.7237 696.424 40.6905 696.443 40.646C696.462 40.6006 696.487 40.5687 696.505 40.5519L697.882 42.0028C698.242 41.6608 698.422 41.2127 698.422 40.7324H696.422ZM696.505 40.5523C696.52 40.5381 696.544 40.5211 696.574 40.5096C696.603 40.4986 696.618 40.5 696.607 40.5V42.5C697.074 42.5 697.523 42.3435 697.882 42.0023L696.505 40.5523ZM698.886 42.6191V41.6191H697.886V42.6191H698.886ZM700.099 42.6191H701.099V41.6191H700.099V42.6191ZM700.099 43.6445H699.099V44.6445H700.099V43.6445ZM700.193 43.6445V44.6445H700.877L701.125 44.0061L700.193 43.6445ZM703.726 43.6445L702.798 44.0184L703.051 44.6445H703.726V43.6445ZM703.825 43.6445V44.6445H704.462L704.732 44.0674L703.825 43.6445ZM704.587 42.8066L704.075 41.9474L704.071 41.95L704.587 42.8066ZM707.271 43.0527L707.993 42.361L707.989 42.3571L707.271 43.0527ZM707.804 49V50H708.804V49H707.804ZM706.544 49H705.544V50H706.544V49ZM704.329 44.0371L705.042 44.7386L705.047 44.7333L704.329 44.0371ZM703.96 49V50H704.96V49H703.96ZM702.724 49H701.724V50H702.724V49ZM700.146 49V50H701.146V49H700.146ZM698.886 49H697.886V50H698.886V49ZM698.886 43.6191H700.099V41.6191H698.886V43.6191ZM699.099 42.6191V43.6445H701.099V42.6191H699.099ZM700.099 44.6445H700.193V42.6445H700.099V44.6445ZM701.125 44.0061C701.21 43.7861 701.311 43.6818 701.402 43.6228C701.499 43.5601 701.668 43.4961 701.968 43.4961V41.4961C701.381 41.4961 700.811 41.6235 700.316 41.9436C699.815 42.2675 699.472 42.7373 699.26 43.283L701.125 44.0061ZM701.968 43.4961C702.251 43.4961 702.412 43.5576 702.508 43.6204C702.601 43.6809 702.706 43.7904 702.798 44.0184L704.653 43.2707C704.437 42.7331 704.095 42.2683 703.602 41.946C703.112 41.626 702.548 41.4961 701.968 41.4961V43.4961ZM703.726 44.6445H703.825V42.6445H703.726V44.6445ZM704.732 44.0674C704.809 43.9025 704.923 43.7715 705.103 43.6633L704.071 41.95C703.563 42.2559 703.17 42.6835 702.919 43.2216L704.732 44.0674ZM705.099 43.6658C705.279 43.5584 705.492 43.4961 705.765 43.4961V41.4961C705.162 41.4961 704.59 41.6408 704.075 41.9474L705.099 43.6658ZM705.765 43.4961C706.21 43.4961 706.426 43.6177 706.552 43.7484L707.989 42.3571C707.397 41.7456 706.609 41.4961 705.765 41.4961V43.4961ZM706.549 43.7445C706.678 43.8797 706.804 44.121 706.804 44.6055H708.804C708.804 43.7618 708.574 42.9679 707.993 42.361L706.549 43.7445ZM706.804 44.6055V49H708.804V44.6055H706.804ZM707.804 48H706.544V50H707.804V48ZM707.544 49V44.9336H705.544V49H707.544ZM707.544 44.9336C707.544 44.3608 707.407 43.746 706.955 43.2774C706.497 42.8018 705.884 42.6504 705.308 42.6504V44.6504C705.556 44.6504 705.561 44.7128 705.515 44.665C705.476 44.6242 705.544 44.6509 705.544 44.9336H707.544ZM705.308 42.6504C704.671 42.6504 704.073 42.8647 703.611 43.341L705.047 44.7333C705.085 44.6939 705.14 44.6504 705.308 44.6504V42.6504ZM703.617 43.3356C703.169 43.7906 702.96 44.3673 702.96 44.9863H704.96C704.96 44.8397 704.998 44.7836 705.042 44.7386L703.617 43.3356ZM702.96 44.9863V49H704.96V44.9863H702.96ZM703.96 48H702.724V50H703.96V48ZM703.724 49V44.8105H701.724V49H703.724ZM703.724 44.8105C703.724 44.2284 703.534 43.6593 703.071 43.2286L701.709 44.6933C701.711 44.6955 701.711 44.6955 701.71 44.6935C701.708 44.6916 701.708 44.6913 701.71 44.6945C701.712 44.7005 701.724 44.7339 701.724 44.8105H703.724ZM703.071 43.2286C702.622 42.8116 702.059 42.6504 701.493 42.6504V44.6504C701.59 44.6504 701.645 44.6637 701.671 44.6729C701.695 44.6811 701.703 44.6882 701.709 44.6933L703.071 43.2286ZM701.493 42.6504C700.836 42.6504 700.249 42.9022 699.8 43.3856L701.265 44.7473C701.331 44.676 701.385 44.6504 701.493 44.6504V42.6504ZM699.8 43.3856C699.355 43.864 699.146 44.4578 699.146 45.0977H701.146C701.146 44.9172 701.194 44.8235 701.265 44.7473L699.8 43.3856ZM699.146 45.0977V49H701.146V45.0977H699.146ZM700.146 48H698.886V50H700.146V48ZM699.886 49V42.6191H697.886V49H699.886ZM714.618 43.3984L715.397 42.7725L715.395 42.77L714.618 43.3984ZM714.618 48.2148L713.838 47.5889L713.835 47.592L714.618 48.2148ZM710.733 48.0332L711.628 47.5879L711.352 47.0332H710.733V48.0332ZM710.633 48.0332V47.0332H709.633V48.0332H710.633ZM710.633 51.0684V52.0684H711.633V51.0684H710.633ZM709.373 51.0684H708.373V52.0684H709.373V51.0684ZM709.373 42.6191V41.6191H708.373V42.6191H709.373ZM710.586 42.6191H711.586V41.6191H710.586V42.6191ZM710.586 43.6738H709.586V44.6738H710.586V43.6738ZM710.68 43.6738V44.6738H711.284L711.565 44.14L710.68 43.6738ZM711.5 42.8184L711.004 41.9501L710.997 41.9542L711.5 42.8184ZM713.586 47.4004L714.369 48.0232L714.376 48.0143L713.586 47.4004ZM713.586 44.2188L714.373 43.6009L714.369 43.596L713.586 44.2188ZM711.073 44.2246L710.291 43.6009L710.288 43.6047L711.073 44.2246ZM711.073 47.3945L710.288 48.0144L710.291 48.0183L711.073 47.3945ZM712.684 43.5137C713.219 43.5137 713.568 43.6906 713.84 44.0269L715.395 42.77C714.714 41.9265 713.774 41.5137 712.684 41.5137V43.5137ZM713.838 44.0244C714.131 44.3898 714.332 44.9475 714.332 45.8066H716.332C716.332 44.6423 716.057 43.5946 715.397 42.7725L713.838 44.0244ZM714.332 45.8066C714.332 46.6658 714.131 47.2235 713.838 47.5889L715.397 48.8408C716.057 48.0187 716.332 46.9709 716.332 45.8066H714.332ZM713.835 47.592C713.566 47.93 713.223 48.1055 712.696 48.1055V50.1055C713.786 50.1055 714.724 49.6872 715.4 48.8377L713.835 47.592ZM712.696 48.1055C712.341 48.1055 712.114 48.0389 711.97 47.9598C711.835 47.8863 711.722 47.7758 711.628 47.5879L709.837 48.4785C710.099 49.0055 710.491 49.4311 711.011 49.715C711.52 49.9933 712.097 50.1055 712.696 50.1055V48.1055ZM710.733 47.0332H710.633V49.0332H710.733V47.0332ZM709.633 48.0332V51.0684H711.633V48.0332H709.633ZM710.633 50.0684H709.373V52.0684H710.633V50.0684ZM710.373 51.0684V42.6191H708.373V51.0684H710.373ZM709.373 43.6191H710.586V41.6191H709.373V43.6191ZM709.586 42.6191V43.6738H711.586V42.6191H709.586ZM710.586 44.6738H710.68V42.6738H710.586V44.6738ZM711.565 44.14C711.669 43.9428 711.81 43.7954 712.004 43.6825L710.997 41.9542C710.48 42.2554 710.074 42.6783 709.795 43.2077L711.565 44.14ZM711.997 43.6866C712.192 43.575 712.414 43.5137 712.684 43.5137V41.5137C712.087 41.5137 711.52 41.6555 711.004 41.9501L711.997 43.6866ZM712.327 48.9746C713.134 48.9746 713.855 48.6688 714.369 48.0231L712.804 46.7776C712.708 46.8976 712.59 46.9746 712.327 46.9746V48.9746ZM714.376 48.0143C714.857 47.3961 715.038 46.6217 715.038 45.8066H713.038C713.038 46.3432 712.918 46.6312 712.797 46.7865L714.376 48.0143ZM715.038 45.8066C715.038 44.9924 714.857 44.2171 714.373 43.6009L712.8 44.8366C712.917 44.986 713.038 45.2693 713.038 45.8066H715.038ZM714.369 43.596C713.856 42.9523 713.138 42.6445 712.332 42.6445V44.6445C712.589 44.6445 712.707 44.7196 712.804 44.8415L714.369 43.596ZM712.332 42.6445C711.523 42.6445 710.805 42.9569 710.291 43.6009L711.854 44.8483C711.958 44.7189 712.08 44.6445 712.332 44.6445V42.6445ZM710.288 43.6047C709.799 44.2239 709.61 44.9962 709.61 45.8125H711.61C711.61 45.2928 711.729 45.0066 711.857 44.8445L710.288 43.6047ZM709.61 45.8125C709.61 46.6265 709.8 47.3962 710.288 48.0144L711.857 46.7746C711.729 46.6116 711.61 46.3267 711.61 45.8125H709.61ZM710.291 48.0183C710.803 48.6602 711.518 48.9746 712.327 48.9746V46.9746C712.08 46.9746 711.959 46.9023 711.854 46.7708L710.291 48.0183ZM717.201 43.0352L716.589 42.244L716.585 42.2472L717.201 43.0352ZM721.478 44.2891V45.2891H722.595L722.472 44.1786L721.478 44.2891ZM720.271 44.2891L719.301 44.5333L719.492 45.2891H720.271V44.2891ZM718.103 43.75L718.651 44.5863L718.655 44.5842L718.103 43.75ZM718.759 45.1328L718.985 44.1587L718.985 44.1585L718.759 45.1328ZM719.82 45.3789L719.594 46.353L719.596 46.3536L719.82 45.3789ZM721.168 46L721.865 45.2833L721.86 45.2782L721.168 46ZM720.851 48.5723L721.449 49.3738L721.451 49.3723L720.851 48.5723ZM717.125 48.6367L717.697 47.8165L717.689 47.8111L717.125 48.6367ZM716.339 47.3066V46.3066H715.238L715.344 47.4027L716.339 47.3066ZM717.599 47.3066L718.551 46.9988L718.327 46.3066H717.599V47.3066ZM719.392 46.4629L719.623 45.4899L719.618 45.4887L719.392 46.4629ZM718.279 46.2051L718.048 47.1781L718.053 47.1793L718.279 46.2051ZM716.937 45.5605L717.644 44.8534L717.639 44.8486L716.937 45.5605ZM717.504 44.4238C717.504 44.1861 717.58 44.0076 717.817 43.8231L716.585 42.2472C715.891 42.7893 715.504 43.5365 715.504 44.4238H717.504ZM717.812 43.8263C718.065 43.6311 718.429 43.4961 718.982 43.4961V41.4961C718.09 41.4961 717.266 41.7205 716.589 42.244L717.812 43.8263ZM718.982 43.4961C719.559 43.4961 719.915 43.6227 720.14 43.7835L721.305 42.1579C720.646 41.6858 719.843 41.4961 718.982 41.4961V43.4961ZM720.14 43.7835C720.34 43.9269 720.452 44.1054 720.484 44.3995L722.472 44.1786C722.38 43.3478 721.988 42.6473 721.305 42.1579L720.14 43.7835ZM721.478 43.2891H720.271V45.2891H721.478V43.2891ZM721.241 44.0448C721.115 43.547 720.821 43.1262 720.364 42.8542C719.939 42.6011 719.45 42.5215 718.982 42.5215V44.5215C719.245 44.5215 719.336 44.5698 719.341 44.5726C719.341 44.5726 719.339 44.572 719.337 44.5705C719.335 44.5689 719.333 44.5667 719.329 44.5638C719.322 44.5576 719.316 44.55 719.309 44.5417C719.296 44.5233 719.297 44.5155 719.301 44.5333L721.241 44.0448ZM718.982 42.5215C718.486 42.5215 717.987 42.6282 717.552 42.9158L718.655 44.5842C718.68 44.5671 718.767 44.5215 718.982 44.5215V42.5215ZM717.555 42.9138C717.086 43.2208 716.746 43.7127 716.746 44.3535H718.746C718.746 44.3999 718.732 44.4657 718.695 44.5276C718.662 44.5839 718.632 44.5987 718.651 44.5862L717.555 42.9138ZM716.746 44.3535C716.746 44.9017 717.023 45.3314 717.39 45.6136C717.722 45.8688 718.134 46.0145 718.534 46.1071L718.985 44.1585C718.855 44.1286 718.761 44.098 718.696 44.0711C718.629 44.0437 718.606 44.026 718.609 44.028C718.613 44.0314 718.651 44.0623 718.688 44.1298C718.727 44.2021 718.746 44.2822 718.746 44.3535H716.746ZM718.533 46.1069L719.594 46.353L720.046 44.4048L718.985 44.1587L718.533 46.1069ZM719.596 46.3536C720.128 46.4755 720.377 46.6269 720.475 46.7218L721.86 45.2782C721.388 44.8262 720.738 44.5635 720.043 44.4042L719.596 46.3536ZM720.47 46.7167C720.536 46.7806 720.601 46.8794 720.601 47.1191H722.601C722.601 46.4292 722.377 45.7819 721.865 45.2833L720.47 46.7167ZM720.601 47.1191C720.601 47.3793 720.515 47.5745 720.251 47.7723L721.451 49.3723C722.187 48.82 722.601 48.0465 722.601 47.1191H720.601ZM720.253 47.7707C719.973 47.9795 719.568 48.123 718.959 48.123V50.123C719.888 50.123 720.745 49.8994 721.449 49.3738L720.253 47.7707ZM718.959 48.123C718.338 48.123 717.946 47.9901 717.697 47.8165L716.553 49.4569C717.233 49.9318 718.064 50.123 718.959 50.123V48.123ZM717.689 47.8111C717.465 47.6585 717.361 47.4827 717.335 47.2105L715.344 47.4027C715.427 48.2634 715.846 48.9744 716.56 49.4624L717.689 47.8111ZM716.339 48.3066H717.599V46.3066H716.339V48.3066ZM716.648 47.6145C716.806 48.1045 717.12 48.509 717.578 48.7716C718.01 49.02 718.504 49.1035 718.988 49.1035V47.1035C718.717 47.1035 718.603 47.0542 718.573 47.037C718.561 47.0303 718.562 47.0285 718.565 47.0322C718.567 47.0353 718.56 47.0282 718.551 46.9988L716.648 47.6145ZM718.988 49.1035C719.512 49.1035 720.038 48.9974 720.494 48.7053L719.415 47.0212C719.371 47.0495 719.253 47.1035 718.988 47.1035V49.1035ZM720.494 48.7053C720.974 48.3976 721.33 47.8992 721.33 47.2422H719.33C719.33 47.2228 719.332 47.195 719.341 47.1621C719.35 47.1289 719.364 47.0978 719.38 47.071C719.413 47.0168 719.44 47.0054 719.415 47.0212L720.494 48.7053ZM721.33 47.2422C721.33 46.7288 721.095 46.2994 720.735 46C720.411 45.7307 720.008 45.5812 719.623 45.49L719.161 47.4358C719.274 47.4626 719.352 47.4897 719.403 47.512C719.455 47.5345 719.466 47.5467 719.456 47.5381C719.443 47.5274 719.407 47.4928 719.375 47.4286C719.342 47.362 719.33 47.2948 719.33 47.2422H721.33ZM719.618 45.4887L718.505 45.2309L718.053 47.1793L719.167 47.4371L719.618 45.4887ZM718.51 45.2321C717.989 45.1086 717.745 44.954 717.644 44.8534L716.23 46.2677C716.7 46.7374 717.35 47.0125 718.048 47.1781L718.51 45.2321ZM717.639 44.8486C717.572 44.7823 717.504 44.6764 717.504 44.4238H715.504C715.504 45.1165 715.724 45.7684 716.235 46.2724L717.639 44.8486ZM728.421 49V50H729.421V49H728.421ZM727.214 49H726.214V50H727.214V49ZM727.214 47.9863H728.214V46.9863H727.214V47.9863ZM727.114 47.9863V46.9863H726.454L726.195 47.593L727.114 47.9863ZM723.458 48.502L724.182 47.8121L724.178 47.8086L723.458 48.502ZM722.86 42.6191V41.6191H721.86V42.6191H722.86ZM724.12 42.6191H725.12V41.6191H724.12V42.6191ZM727.167 42.6191V41.6191H726.167V42.6191H727.167ZM728.421 42.6191H729.421V41.6191H728.421V42.6191ZM728.421 48H727.214V50H728.421V48ZM728.214 49V47.9863H726.214V49H728.214ZM727.214 46.9863H727.114V48.9863H727.214V46.9863ZM726.195 47.593C726.112 47.7873 726.005 47.8966 725.877 47.9697C725.735 48.0505 725.5 48.123 725.116 48.123V50.123C725.74 50.123 726.342 50.0061 726.866 49.708C727.403 49.4022 727.792 48.9432 728.033 48.3797L726.195 47.593ZM725.116 48.123C724.608 48.123 724.344 47.9821 724.182 47.8121L722.734 49.1918C723.361 49.85 724.202 50.123 725.116 50.123V48.123ZM724.178 47.8086C724.01 47.6333 723.86 47.3287 723.86 46.75H721.86C721.86 47.6791 722.109 48.5425 722.737 49.1953L724.178 47.8086ZM723.86 46.75V42.6191H721.86V46.75H723.86ZM722.86 43.6191H724.12V41.6191H722.86V43.6191ZM723.12 42.6191V46.4336H725.12V42.6191H723.12ZM723.12 46.4336C723.12 47.0766 723.267 47.7452 723.737 48.2545C724.221 48.7788 724.882 48.957 725.526 48.957V46.957C725.379 46.957 725.294 46.9369 725.251 46.9213C725.23 46.9138 725.219 46.9074 725.214 46.9044C725.21 46.9015 725.208 46.8996 725.206 46.8979C725.205 46.8965 725.185 46.8753 725.164 46.806C725.141 46.7328 725.12 46.6137 725.12 46.4336H723.12ZM725.526 48.957C726.228 48.957 726.902 48.7544 727.425 48.2459L726.03 46.8127C725.966 46.8745 725.84 46.957 725.526 46.957V48.957ZM727.425 48.2459C727.953 47.7319 728.167 47.0572 728.167 46.3516H726.167C726.167 46.646 726.088 46.7564 726.03 46.8127L727.425 48.2459ZM728.167 46.3516V42.6191H726.167V46.3516H728.167ZM727.167 43.6191H728.421V41.6191H727.167V43.6191ZM727.421 42.6191V49H729.421V42.6191H727.421ZM730.055 42.6191V41.6191H729.055V42.6191H730.055ZM731.268 42.6191H732.268V41.6191H731.268V42.6191ZM731.268 43.6445H730.268V44.6445H731.268V43.6445ZM731.361 43.6445V44.6445H732.046L732.294 44.0061L731.361 43.6445ZM734.895 43.6445L733.967 44.0184L734.219 44.6445H734.895V43.6445ZM734.994 43.6445V44.6445H735.631L735.9 44.0674L734.994 43.6445ZM735.756 42.8066L735.244 41.9474L735.24 41.95L735.756 42.8066ZM738.439 43.0527L739.162 42.361L739.158 42.3571L738.439 43.0527ZM738.973 49V50H739.973V49H738.973ZM737.713 49H736.713V50H737.713V49ZM735.498 44.0371L736.211 44.7386L736.216 44.7333L735.498 44.0371ZM735.129 49V50H736.129V49H735.129ZM733.893 49H732.893V50H733.893V49ZM731.314 49V50H732.314V49H731.314ZM730.055 49H729.055V50H730.055V49ZM730.055 43.6191H731.268V41.6191H730.055V43.6191ZM730.268 42.6191V43.6445H732.268V42.6191H730.268ZM731.268 44.6445H731.361V42.6445H731.268V44.6445ZM732.294 44.0061C732.379 43.7861 732.48 43.6818 732.571 43.6228C732.668 43.5601 732.837 43.4961 733.137 43.4961V41.4961C732.55 41.4961 731.98 41.6235 731.485 41.9436C730.984 42.2675 730.641 42.7373 730.429 43.283L732.294 44.0061ZM733.137 43.4961C733.42 43.4961 733.581 43.5576 733.677 43.6204C733.769 43.6809 733.875 43.7904 733.967 44.0184L735.822 43.2707C735.605 42.7331 735.264 42.2683 734.771 41.946C734.281 41.626 733.717 41.4961 733.137 41.4961V43.4961ZM734.895 44.6445H734.994V42.6445H734.895V44.6445ZM735.9 44.0674C735.977 43.9025 736.092 43.7715 736.272 43.6633L735.24 41.95C734.732 42.2559 734.339 42.6835 734.088 43.2216L735.9 44.0674ZM736.268 43.6658C736.448 43.5584 736.661 43.4961 736.934 43.4961V41.4961C736.331 41.4961 735.759 41.6408 735.244 41.9474L736.268 43.6658ZM736.934 43.4961C737.379 43.4961 737.594 43.6177 737.721 43.7484L739.158 42.3571C738.566 41.7456 737.778 41.4961 736.934 41.4961V43.4961ZM737.717 43.7445C737.847 43.8797 737.973 44.121 737.973 44.6055H739.973C739.973 43.7618 739.743 42.9679 739.162 42.361L737.717 43.7445ZM737.973 44.6055V49H739.973V44.6055H737.973ZM738.973 48H737.713V50H738.973V48ZM738.713 49V44.9336H736.713V49H738.713ZM738.713 44.9336C738.713 44.3608 738.575 43.746 738.124 43.2774C737.666 42.8018 737.052 42.6504 736.477 42.6504V44.6504C736.725 44.6504 736.73 44.7128 736.684 44.665C736.644 44.6242 736.713 44.6509 736.713 44.9336H738.713ZM736.477 42.6504C735.839 42.6504 735.242 42.8647 734.78 43.341L736.216 44.7333C736.254 44.6939 736.309 44.6504 736.477 44.6504V42.6504ZM734.785 43.3356C734.337 43.7906 734.129 44.3673 734.129 44.9863H736.129C736.129 44.8397 736.166 44.7836 736.211 44.7386L734.785 43.3356ZM734.129 44.9863V49H736.129V44.9863H734.129ZM735.129 48H733.893V50H735.129V48ZM734.893 49V44.8105H732.893V49H734.893ZM734.893 44.8105C734.893 44.2284 734.703 43.6593 734.24 43.2286L732.878 44.6933C732.88 44.6955 732.88 44.6955 732.878 44.6935C732.877 44.6916 732.877 44.6913 732.878 44.6945C732.881 44.7005 732.893 44.7339 732.893 44.8105H734.893ZM734.24 43.2286C733.791 42.8116 733.228 42.6504 732.662 42.6504V44.6504C732.758 44.6504 732.814 44.6637 732.84 44.6729C732.864 44.6811 732.872 44.6882 732.878 44.6933L734.24 43.2286ZM732.662 42.6504C732.005 42.6504 731.418 42.9022 730.969 43.3856L732.434 44.7473C732.5 44.676 732.554 44.6504 732.662 44.6504V42.6504ZM730.969 43.3856C730.524 43.864 730.314 44.4578 730.314 45.0977H732.314C732.314 44.9172 732.363 44.8235 732.434 44.7473L730.969 43.3856ZM730.314 45.0977V49H732.314V45.0977H730.314ZM731.314 48H730.055V50H731.314V48ZM731.055 49V42.6191H729.055V49H731.055Z" fill="black" fill-opacity="0.2" mask="url(#path-13-outside-2_3_137)"/>
<rect x="553" y="43" width="8" height="6" fill="#E9E9EA"/>
<path d="M554 42V43H555V42C555 40.8954 555.895 40 557 40C558.105 40 559 40.8954 559 42V43H560V42C560 40.3431 558.657 39 557 39C555.343 39 554 40.3431 554 42Z" fill="#E9E9EA"/>
<path d="M972.5 39V40C970.015 40 968 42.0147 968 44.5C968 46.9853 970.015 49 972.5 49C974.985 49 977 46.9853 977 44.5H978C978 47.5376 975.538 50 972.5 50C969.462 50 967 47.5376 967 44.5C967 41.4624 969.462 39 972.5 39Z" fill="#DADADA"/>
<path d="M976 39.5L972 42V37L976 39.5Z" fill="#DADADA"/>
<g filter="url(#filter4_i_3_137)">
<rect x="188" y="33" width="37" height="22" rx="3" fill="url(#paint4_linear_3_137)"/>
</g>
<path fill-rule="evenodd" clip-rule="evenodd" d="M201 41V40H203.013V41H201ZM201 43V42H203.05V43H201ZM201 44V45H203.05V44H201Z" fill="#BBBEC0"/>
<path fill-rule="evenodd" clip-rule="evenodd" d="M205 38H212.993C213.551 38 214 38.4488 214 39.0025V48.9975C214 49.5442 213.549 50 212.993 50H205H204H200.007C199.449 50 199 49.5512 199 48.9975V39.0025C199 38.4558 199.451 38 200.007 38H204H205ZM204 39.0004C201.772 39.0002 200.007 39 200.007 39C200.006 39 200 48.9975 200 48.9975C200 48.998 201.768 48.9985 204 48.9989V39.0004ZM205 48.999V39.0005C208.663 39.001 213 39.0017 213 39.0025C213 39.0025 212.994 49 212.993 49C212.993 49 208.661 48.9996 205 48.999Z" fill="#E9E9EA"/>
<path fill-rule="evenodd" clip-rule="evenodd" d="M108 50C111.314 50 114 47.3137 114 44C114 40.6863 111.314 38 108 38C104.686 38 102 40.6863 102 44C102 47.3137 104.686 50 108 50Z" fill="#53C22B"/>
<path fill-rule="evenodd" clip-rule="evenodd" d="M88 50C91.3137 50 94 47.3137 94 44C94 40.6863 91.3137 38 88 38C84.6863 38 82 40.6863 82 44C82 47.3137 84.6863 50 88 50Z" fill="#E6C02A"/>
<path fill-rule="evenodd" clip-rule="evenodd" d="M68 50C71.3137 50 74 47.3137 74 44C74 40.6863 71.3137 38 68 38C64.6863 38 62 40.6863 62 44C62 47.3137 64.6863 50 68 50Z" fill="#FF5A52"/>
<g filter="url(#filter5_i_3_137)">
<rect x="153" y="33" width="25" height="22" rx="3" fill="url(#paint5_linear_3_137)"/>
</g>
<path d="M162.616 47.9844C162.271 48.3478 162.271 48.9181 162.616 49.2816C162.988 49.6723 163.61 49.6723 163.982 49.2816L168.949 44.0537C168.978 44.0236 168.978 43.9764 168.949 43.9463L163.982 38.7184C163.61 38.3277 162.988 38.3277 162.616 38.7184C162.271 39.0819 162.271 39.6522 162.616 40.0156L166.402 44L162.616 47.9844Z" fill="#75787A"/>
<g filter="url(#filter6_i_3_137)">
<path d="M127 37.8C127 36.1198 127 35.2798 127.327 34.638C127.615 34.0735 128.074 33.6146 128.638 33.327C129.28 33 130.12 33 131.8 33H147.2C148.88 33 149.72 33 150.362 33.327C150.926 33.6146 151.385 34.0735 151.673 34.638C152 35.2798 152 36.1198 152 37.8V50.2C152 51.8802 152 52.7202 151.673 53.362C151.385 53.9265 150.926 54.3854 150.362 54.673C149.72 55 148.88 55 147.2 55H131.8C130.12 55 129.28 55 128.638 54.673C128.074 54.3854 127.615 53.9265 127.327 53.362C127 52.7202 127 51.8802 127 50.2V37.8Z" fill="url(#paint6_linear_3_137)"/>
</g>
<path d="M142.384 47.9844C142.729 48.3478 142.729 48.9181 142.384 49.2816C142.012 49.6723 141.39 49.6723 141.018 49.2816L136.051 44.0537C136.022 44.0236 136.022 43.9764 136.051 43.9463L141.018 38.7184C141.39 38.3277 142.012 38.3277 142.384 38.7184C142.729 39.0819 142.729 39.6522 142.384 40.0156L138.598 44L142.384 47.9844Z" fill="#E9E9EA"/>
<rect x="48.5" y="24.5" width="1281" height="759" rx="5.5" stroke="url(#paint7_linear_3_137)"/>
<rect x="49.5" y="25.5" width="1279" height="757" rx="4.5" stroke="url(#paint8_linear_3_137)"/>
<rect x="49" y="62" width="1" height="1" fill="#333333"/>
<rect x="1328" y="62" width="1" height="1" fill="#333333"/>
<rect x="1328" y="37" width="1" height="1" fill="#757779"/>
<rect x="1328" y="38" width="1" height="24" fill="url(#paint9_linear_3_137)"/>
</g>
<defs>
<filter id="filter0_d_3_137" x="0" y="0" width="1378" height="856" filterUnits="userSpaceOnUse" color-interpolation-filters="sRGB">
<feFlood flood-opacity="0" result="BackgroundImageFix"/>
<feColorMatrix in="SourceAlpha" type="matrix" values="0 0 0 0 0 0 0 0 0 0 0 0 0 0 0 0 0 0 127 0" result="hardAlpha"/>
<feOffset dy="24"/>
<feGaussianBlur stdDeviation="24"/>
<feColorMatrix type="matrix" values="0 0 0 0 0.419608 0 0 0 0 0.419608 0 0 0 0 0.419608 0 0 0 1 0"/>
<feBlend mode="normal" in2="BackgroundImageFix" result="effect1_dropShadow_3_137"/>
<feBlend mode="normal" in="SourceGraphic" in2="effect1_dropShadow_3_137" result="shape"/>
</filter>
<filter id="filter1_i_3_137" x="1259" y="33" width="37" height="22" filterUnits="userSpaceOnUse" color-interpolation-filters="sRGB">
<feFlood flood-opacity="0" result="BackgroundImageFix"/>
<feBlend mode="normal" in="SourceGraphic" in2="BackgroundImageFix" result="shape"/>
<feColorMatrix in="SourceAlpha" type="matrix" values="0 0 0 0 0 0 0 0 0 0 0 0 0 0 0 0 0 0 127 0" result="hardAlpha"/>
<feOffset dy="1"/>
<feComposite in2="hardAlpha" operator="arithmetic" k2="-1" k3="1"/>
<feColorMatrix type="matrix" values="0 0 0 0 0.458824 0 0 0 0 0.470588 0 0 0 0 0.478431 0 0 0 1 0"/>
<feBlend mode="normal" in2="shape" result="effect1_innerShadow_3_137"/>
</filter>
<filter id="filter2_i_3_137" x="1214" y="33" width="37" height="22" filterUnits="userSpaceOnUse" color-interpolation-filters="sRGB">
<feFlood flood-opacity="0" result="BackgroundImageFix"/>
<feBlend mode="normal" in="SourceGraphic" in2="BackgroundImageFix" result="shape"/>
<feColorMatrix in="SourceAlpha" type="matrix" values="0 0 0 0 0 0 0 0 0 0 0 0 0 0 0 0 0 0 127 0" result="hardAlpha"/>
<feOffset dy="1"/>
<feComposite in2="hardAlpha" operator="arithmetic" k2="-1" k3="1"/>
<feColorMatrix type="matrix" values="0 0 0 0 0.458824 0 0 0 0 0.470588 0 0 0 0 0.478431 0 0 0 1 0"/>
<feBlend mode="normal" in2="shape" result="effect1_innerShadow_3_137"/>
</filter>
<filter id="filter3_i_3_137" x="395" y="33" width="590" height="22" filterUnits="userSpaceOnUse" color-interpolation-filters="sRGB">
<feFlood flood-opacity="0" result="BackgroundImageFix"/>
<feBlend mode="normal" in="SourceGraphic" in2="BackgroundImageFix" result="shape"/>
<feColorMatrix in="SourceAlpha" type="matrix" values="0 0 0 0 0 0 0 0 0 0 0 0 0 0 0 0 0 0 127 0" result="hardAlpha"/>
<feOffset dy="1"/>
<feComposite in2="hardAlpha" operator="arithmetic" k2="-1" k3="1"/>
<feColorMatrix type="matrix" values="0 0 0 0 0.458824 0 0 0 0 0.470588 0 0 0 0 0.478431 0 0 0 1 0"/>
<feBlend mode="normal" in2="shape" result="effect1_innerShadow_3_137"/>
</filter>
<filter id="filter4_i_3_137" x="188" y="33" width="37" height="22" filterUnits="userSpaceOnUse" color-interpolation-filters="sRGB">
<feFlood flood-opacity="0" result="BackgroundImageFix"/>
<feBlend mode="normal" in="SourceGraphic" in2="BackgroundImageFix" result="shape"/>
<feColorMatrix in="SourceAlpha" type="matrix" values="0 0 0 0 0 0 0 0 0 0 0 0 0 0 0 0 0 0 127 0" result="hardAlpha"/>
<feOffset dy="1"/>
<feComposite in2="hardAlpha" operator="arithmetic" k2="-1" k3="1"/>
<feColorMatrix type="matrix" values="0 0 0 0 0.458824 0 0 0 0 0.470588 0 0 0 0 0.478431 0 0 0 1 0"/>
<feBlend mode="normal" in2="shape" result="effect1_innerShadow_3_137"/>
</filter>
<filter id="filter5_i_3_137" x="153" y="33" width="25" height="22" filterUnits="userSpaceOnUse" color-interpolation-filters="sRGB">
<feFlood flood-opacity="0" result="BackgroundImageFix"/>
<feBlend mode="normal" in="SourceGraphic" in2="BackgroundImageFix" result="shape"/>
<feColorMatrix in="SourceAlpha" type="matrix" values="0 0 0 0 0 0 0 0 0 0 0 0 0 0 0 0 0 0 127 0" result="hardAlpha"/>
<feOffset dy="1"/>
<feComposite in2="hardAlpha" operator="arithmetic" k2="-1" k3="1"/>
<feColorMatrix type="matrix" values="0 0 0 0 0.458824 0 0 0 0 0.470588 0 0 0 0 0.478431 0 0 0 1 0"/>
<feBlend mode="normal" in2="shape" result="effect1_innerShadow_3_137"/>
</filter>
<filter id="filter6_i_3_137" x="127" y="33" width="25" height="22" filterUnits="userSpaceOnUse" color-interpolation-filters="sRGB">
<feFlood flood-opacity="0" result="BackgroundImageFix"/>
<feBlend mode="normal" in="SourceGraphic" in2="BackgroundImageFix" result="shape"/>
<feColorMatrix in="SourceAlpha" type="matrix" values="0 0 0 0 0 0 0 0 0 0 0 0 0 0 0 0 0 0 127 0" result="hardAlpha"/>
<feOffset dy="1"/>
<feComposite in2="hardAlpha" operator="arithmetic" k2="-1" k3="1"/>
<feColorMatrix type="matrix" values="0 0 0 0 0.458824 0 0 0 0 0.470588 0 0 0 0 0.478431 0 0 0 1 0"/>
<feBlend mode="normal" in2="shape" result="effect1_innerShadow_3_137"/>
</filter>
<linearGradient id="paint0_linear_3_137" x1="689.5" y1="25" x2="689.5" y2="62" gradientUnits="userSpaceOnUse">
<stop stop-color="#3A3E3F"/>
<stop offset="1" stop-color="#2F3234"/>
</linearGradient>
<linearGradient id="paint1_linear_3_137" x1="1259" y1="33" x2="1259" y2="55" gradientUnits="userSpaceOnUse">
<stop stop-color="#65686A"/>
<stop offset="1" stop-color="#5F6263"/>
</linearGradient>
<linearGradient id="paint2_linear_3_137" x1="1214" y1="33" x2="1214" y2="55" gradientUnits="userSpaceOnUse">
<stop stop-color="#65686A"/>
<stop offset="1" stop-color="#5F6263"/>
</linearGradient>
<linearGradient id="paint3_linear_3_137" x1="395" y1="33" x2="395" y2="55" gradientUnits="userSpaceOnUse">
<stop stop-color="#65686A"/>
<stop offset="1" stop-color="#5F6263"/>
</linearGradient>
<linearGradient id="paint4_linear_3_137" x1="188" y1="33" x2="188" y2="55" gradientUnits="userSpaceOnUse">
<stop stop-color="#65686A"/>
<stop offset="1" stop-color="#5F6263"/>
</linearGradient>
<linearGradient id="paint5_linear_3_137" x1="153" y1="33" x2="153" y2="55" gradientUnits="userSpaceOnUse">
<stop stop-color="#65686A"/>
<stop offset="1" stop-color="#5F6263"/>
</linearGradient>
<linearGradient id="paint6_linear_3_137" x1="127" y1="33" x2="127" y2="55" gradientUnits="userSpaceOnUse">
<stop stop-color="#65686A"/>
<stop offset="1" stop-color="#5F6263"/>
</linearGradient>
<linearGradient id="paint7_linear_3_137" x1="689" y1="23.9987" x2="689" y2="784.001" gradientUnits="userSpaceOnUse">
<stop stop-color="#141414"/>
</linearGradient>
<linearGradient id="paint8_linear_3_137" x1="689" y1="25" x2="689" y2="783" gradientUnits="userSpaceOnUse">
<stop stop-color="#808383"/>
<stop offset="1" stop-color="#585B5D"/>
</linearGradient>
<linearGradient id="paint9_linear_3_137" x1="1328.5" y1="38" x2="1328.5" y2="62" gradientUnits="userSpaceOnUse">
<stop stop-color="#525354"/>
<stop offset="1" stop-color="#4E4F50"/>
</linearGradient>
</defs>
</svg>
