<svg preserveAspectRatio="none" width="1279" height="38" viewBox="0 0 1279 38" fill="none" xmlns="http://www.w3.org/2000/svg">
<path d="M0 6.4C0 4.15979 0 3.03969 0.435974 2.18404C0.819467 1.43139 1.43139 0.819467 2.18404 0.435974C3.03969 0 4.15979 0 6.4 0H1272.6C1274.84 0 1275.96 0 1276.82 0.435974C1277.57 0.819467 1278.18 1.43139 1278.56 2.18404C1279 3.03969 1279 4.15979 1279 6.4V37H0V6.4Z" fill="url(#paint0_linear_3_137)"/>
<rect opacity="0.95" y="37" width="1278" height="1" fill="black"/>
<g filter="url(#filter0_i_3_137)">
<rect x="1209" y="8" width="37" height="22" rx="3" fill="url(#paint1_linear_3_137)"/>
</g>
<rect x="1222.5" y="16.5" width="8" height="8" rx="0.5" stroke="#E9E9EA"/>
<mask id="path-5-inside-1_3_137" fill="white">
<path d="M1225 14.6V15H1226V14H1233V21H1232V22H1232.4C1232.96 22 1233.24 22 1233.45 21.891C1233.64 21.7951 1233.8 21.6422 1233.89 21.454C1234 21.2401 1234 20.9601 1234 20.4V14.6C1234 14.0399 1234 13.7599 1233.89 13.546C1233.8 13.3578 1233.64 13.2049 1233.45 13.109C1233.24 13 1232.96 13 1232.4 13H1226.6C1226.04 13 1225.76 13 1225.55 13.109C1225.36 13.2049 1225.2 13.3578 1225.11 13.546C1225 13.7599 1225 14.0399 1225 14.6Z"/>
</mask>
<path d="M1225 15H1224V16H1225V15ZM1232 22H1231V23H1232V22ZM1232 21V20H1231V21H1232ZM1233 21V22H1234V21H1233ZM1233 14H1234V13H1233V14ZM1226 14V13H1225V14H1226ZM1226 15V16H1227V15H1226ZM1233.89 21.454L1233 21L1233 21L1233.89 21.454ZM1233.45 21.891L1233 21L1233 21L1233.45 21.891ZM1233.45 13.109L1233.91 12.218L1233.91 12.218L1233.45 13.109ZM1233.89 13.546L1233 14L1233 14L1233.89 13.546ZM1225.11 13.546L1224.22 13.092L1224.22 13.092L1225.11 13.546ZM1225.55 13.109L1225.09 12.218L1225.09 12.218L1225.55 13.109ZM1226 15V14.6H1224V15H1226ZM1226.6 14H1232.4V12H1226.6V14ZM1233 14.6V20.4H1235V14.6H1233ZM1232.4 21H1232V23H1232.4V21ZM1233 22V21H1231V22H1233ZM1232 22H1233V20H1232V22ZM1234 21V14H1232V21H1234ZM1233 13H1226V15H1233V13ZM1225 14V15H1227V14H1225ZM1226 14H1225V16H1226V14ZM1233 20.4C1233 20.6965 1233 20.8588 1232.99 20.9754C1232.98 21.0803 1232.97 21.0575 1233 21L1234.78 21.908C1234.92 21.6366 1234.96 21.3668 1234.98 21.1382C1235 20.9213 1235 20.6635 1235 20.4H1233ZM1232.4 23C1232.66 23 1232.92 23.0008 1233.14 22.9831C1233.37 22.9644 1233.64 22.9203 1233.91 22.782L1233 21C1233.06 20.9707 1233.08 20.9811 1232.98 20.9897C1232.86 20.9992 1232.7 21 1232.4 21V23ZM1233 21L1233 21L1233.91 22.782C1234.28 22.5903 1234.59 22.2843 1234.78 21.908L1233 21ZM1232.4 14C1232.7 14 1232.86 14.0008 1232.98 14.0103C1233.08 14.0189 1233.06 14.0293 1233 14L1233.91 12.218C1233.64 12.0797 1233.37 12.0356 1233.14 12.0169C1232.92 11.9992 1232.66 12 1232.4 12V14ZM1235 14.6C1235 14.3365 1235 14.0787 1234.98 13.8618C1234.96 13.6332 1234.92 13.3634 1234.78 13.092L1233 14C1232.97 13.9425 1232.98 13.9197 1232.99 14.0246C1233 14.1412 1233 14.3035 1233 14.6H1235ZM1233 14L1233 14L1234.78 13.092C1234.59 12.7157 1234.28 12.4097 1233.91 12.218L1233 14ZM1226 14.6C1226 14.3035 1226 14.1412 1226.01 14.0246C1226.02 13.9197 1226.03 13.9425 1226 14L1224.22 13.092C1224.08 13.3634 1224.04 13.6332 1224.02 13.8618C1224 14.0787 1224 14.3365 1224 14.6H1226ZM1226.6 12C1226.34 12 1226.08 11.9992 1225.86 12.0169C1225.63 12.0356 1225.36 12.0797 1225.09 12.218L1226 14C1225.94 14.0293 1225.92 14.0189 1226.02 14.0103C1226.14 14.0008 1226.3 14 1226.6 14V12ZM1226 14L1225.09 12.218C1224.72 12.4097 1224.41 12.7157 1224.22 13.092L1226 14Z" fill="#E9E9EA" mask="url(#path-5-inside-1_3_137)"/>
<g filter="url(#filter1_i_3_137)">
<rect x="1164" y="8" width="37" height="22" rx="3" fill="url(#paint2_linear_3_137)"/>
</g>
<path d="M1178 25H1187C1187 25 1187 16.9983 1187 16.9983L1184 17V16H1186.99C1187.56 16 1188 16.4457 1188 16.9954V25.0046C1188 25.5443 1187.55 26 1187 26H1178C1177.44 26 1177 25.5543 1177 25.0046V16.9954C1177 16.4557 1177.45 16 1178.01 16H1181V17H1178.01C1178.01 17 1178 25 1178 25Z" fill="#8B8D8F"/>
<path d="M1182.49 12.3434L1179.95 14.9149C1179.76 15.1003 1179.47 15.1003 1179.28 14.9149C1179.1 14.7294 1179.1 14.4287 1179.28 14.2432L1182.15 11.3358C1182.34 11.1504 1182.63 11.1504 1182.82 11.3358L1185.69 14.2432C1185.87 14.4287 1185.87 14.7294 1185.69 14.9149C1185.51 15.1003 1185.21 15.1003 1185.03 14.9149L1182.49 12.3434Z" fill="#8B8D8F"/>
<path d="M1182 12H1183V21H1182V12Z" fill="#8B8D8F"/>
<g filter="url(#filter2_i_3_137)">
<rect x="345" y="8" width="590" height="22" rx="4" fill="url(#paint3_linear_3_137)"/>
</g>
<mask id="path-12-outside-2_3_137" maskUnits="userSpaceOnUse" x="617" y="15" width="60" height="11" fill="black">
<rect fill="white" x="617" y="15" width="60" height="11"/>
<path d="M620.718 23.0449C621.191 23.0449 621.586 22.9121 621.902 22.6465C622.214 22.3809 622.371 22.0488 622.371 21.6504V21.1172L620.812 21.2168C619.961 21.2754 619.535 21.582 619.535 22.1367C619.535 22.418 619.646 22.6406 619.869 22.8047C620.084 22.9648 620.367 23.0449 620.718 23.0449ZM620.396 24.1055C619.771 24.1055 619.263 23.9336 618.873 23.5898C618.47 23.2344 618.269 22.7695 618.269 22.1953C618.269 21.625 618.474 21.1758 618.884 20.8477C619.295 20.5234 619.88 20.3379 620.642 20.291L622.371 20.1914V19.6406C622.371 18.9375 621.935 18.5859 621.064 18.5859C620.326 18.5859 619.882 18.8223 619.734 19.2949H618.515C618.578 18.748 618.847 18.3105 619.324 17.9824C619.796 17.6582 620.396 17.4961 621.123 17.4961C621.92 17.4961 622.537 17.6855 622.974 18.0645C623.408 18.4395 623.625 18.9648 623.625 19.6406V24H622.412V23.1035H622.312C621.914 23.7715 621.275 24.1055 620.396 24.1055ZM625.071 19.4238C625.071 18.8613 625.304 18.3984 625.768 18.0352C626.233 17.6758 626.827 17.4961 627.55 17.4961C628.268 17.4961 628.848 17.6543 629.29 17.9707C629.731 18.2871 629.983 18.7266 630.046 19.2891H628.839C628.71 18.7773 628.28 18.5215 627.55 18.5215C627.194 18.5215 626.901 18.5977 626.671 18.75C626.432 18.9062 626.313 19.1074 626.313 19.3535C626.313 19.7168 626.651 19.9766 627.327 20.1328L628.388 20.3789C629.001 20.5195 629.45 20.7266 629.735 21C630.024 21.2812 630.169 21.6543 630.169 22.1191C630.169 22.7129 629.919 23.1973 629.419 23.5723C628.927 23.9395 628.296 24.123 627.526 24.123C626.768 24.123 626.157 23.9609 625.692 23.6367C625.223 23.3164 624.962 22.873 624.907 22.3066H626.167C626.339 22.8379 626.802 23.1035 627.555 23.1035C627.95 23.1035 628.272 23.0234 628.522 22.8633C628.772 22.7031 628.897 22.4961 628.897 22.2422C628.897 21.8711 628.585 21.6113 627.96 21.4629L626.846 21.2051C626.237 21.0605 625.79 20.8457 625.505 20.5605C625.216 20.2754 625.071 19.8965 625.071 19.4238ZM633.145 16.0723V17.6484H634.574V18.709H633.145V21.9902C633.145 22.3223 633.217 22.5664 633.361 22.7227C633.506 22.875 633.734 22.9512 634.047 22.9512C634.164 22.9512 634.32 22.9414 634.516 22.9219V23.9707C634.273 24.0137 634.049 24.0352 633.842 24.0352C633.143 24.0352 632.641 23.9023 632.336 23.6367C632.035 23.3711 631.885 22.9297 631.885 22.3125V18.709H630.836V17.6484H631.885V16.0723H633.145ZM635.81 17.6191H637.023V18.5977H637.116C637.206 18.2812 637.411 18.0215 637.732 17.8184C638.052 17.6152 638.419 17.5137 638.833 17.5137C639.071 17.5137 639.257 17.5312 639.39 17.5664V18.8086C639.245 18.7578 639.013 18.7324 638.693 18.7324C638.216 18.7324 637.827 18.8711 637.527 19.1484C637.222 19.4258 637.07 19.7871 637.07 20.2324V24H635.81V17.6191ZM642.934 23.0039C643.477 23.0039 643.899 22.8105 644.2 22.4238C644.496 22.041 644.645 21.502 644.645 20.8066C644.645 20.1152 644.496 19.5762 644.2 19.1895C643.899 18.8066 643.477 18.6152 642.934 18.6152C642.387 18.6152 641.965 18.8066 641.668 19.1895C641.371 19.5723 641.223 20.1113 641.223 20.8066C641.223 21.5059 641.371 22.0469 641.668 22.4297C641.965 22.8125 642.387 23.0039 642.934 23.0039ZM642.934 24.123C641.996 24.123 641.26 23.8281 640.725 23.2383C640.19 22.6484 639.922 21.8379 639.922 20.8066C639.922 19.7793 640.192 18.9707 640.731 18.3809C641.266 17.791 642 17.4961 642.934 17.4961C643.864 17.4961 644.596 17.791 645.131 18.3809C645.67 18.9707 645.94 19.7793 645.94 20.8066C645.94 21.8379 645.672 22.6484 645.137 23.2383C644.602 23.8281 643.868 24.123 642.934 24.123ZM647.281 21.2109V19.9746H651.125V21.2109H647.281ZM655.395 18.5684C654.93 18.5684 654.548 18.7188 654.247 19.0195C653.946 19.3203 653.778 19.7207 653.743 20.2207H656.966C656.95 19.7168 656.802 19.3164 656.52 19.0195C656.235 18.7188 655.86 18.5684 655.395 18.5684ZM658.173 22.2773C658.028 22.8516 657.714 23.3027 657.229 23.6309C656.741 23.959 656.134 24.123 655.407 24.123C654.493 24.123 653.774 23.8281 653.251 23.2383C652.723 22.6523 652.46 21.8496 652.46 20.8301C652.46 19.8105 652.725 19 653.257 18.3984C653.788 17.7969 654.503 17.4961 655.401 17.4961C656.288 17.4961 656.985 17.7812 657.493 18.3516C657.997 18.9219 658.249 19.709 658.249 20.7129V21.1523H653.743V21.2227C653.762 21.7852 653.925 22.2305 654.229 22.5586C654.534 22.8867 654.938 23.0508 655.442 23.0508C656.212 23.0508 656.718 22.793 656.96 22.2773H658.173ZM659.561 17.6191H660.773V18.6445H660.867C661.164 17.8789 661.756 17.4961 662.643 17.4961C663.506 17.4961 664.092 17.8789 664.4 18.6445H664.5C664.664 18.293 664.918 18.0137 665.262 17.8066C665.609 17.5996 666.002 17.4961 666.439 17.4961C667.084 17.4961 667.586 17.6816 667.945 18.0527C668.301 18.4238 668.479 18.9414 668.479 19.6055V24H667.219V19.9336C667.219 19.0781 666.807 18.6504 665.982 18.6504C665.58 18.6504 665.254 18.7793 665.004 19.0371C664.758 19.2871 664.635 19.6035 664.635 19.9863V24H663.398V19.8105C663.398 19.4512 663.287 19.168 663.064 18.9609C662.842 18.7539 662.543 18.6504 662.168 18.6504C661.785 18.6504 661.465 18.7891 661.207 19.0664C660.949 19.3438 660.82 19.6875 660.82 20.0977V24H659.561V17.6191ZM675.55 24H674.343V22.9863H674.243C673.919 23.7441 673.253 24.123 672.245 24.123C671.534 24.123 670.982 23.916 670.587 23.502C670.189 23.0879 669.989 22.5039 669.989 21.75V17.6191H671.249V21.4336C671.249 22.4492 671.718 22.957 672.655 22.957C673.163 22.957 673.564 22.8145 673.857 22.5293C674.15 22.2441 674.296 21.8516 674.296 21.3516V17.6191H675.55V24Z"/>
</mask>
<path d="M620.718 23.0449C621.191 23.0449 621.586 22.9121 621.902 22.6465C622.214 22.3809 622.371 22.0488 622.371 21.6504V21.1172L620.812 21.2168C619.961 21.2754 619.535 21.582 619.535 22.1367C619.535 22.418 619.646 22.6406 619.869 22.8047C620.084 22.9648 620.367 23.0449 620.718 23.0449ZM620.396 24.1055C619.771 24.1055 619.263 23.9336 618.873 23.5898C618.47 23.2344 618.269 22.7695 618.269 22.1953C618.269 21.625 618.474 21.1758 618.884 20.8477C619.295 20.5234 619.88 20.3379 620.642 20.291L622.371 20.1914V19.6406C622.371 18.9375 621.935 18.5859 621.064 18.5859C620.326 18.5859 619.882 18.8223 619.734 19.2949H618.515C618.578 18.748 618.847 18.3105 619.324 17.9824C619.796 17.6582 620.396 17.4961 621.123 17.4961C621.92 17.4961 622.537 17.6855 622.974 18.0645C623.408 18.4395 623.625 18.9648 623.625 19.6406V24H622.412V23.1035H622.312C621.914 23.7715 621.275 24.1055 620.396 24.1055ZM625.071 19.4238C625.071 18.8613 625.304 18.3984 625.768 18.0352C626.233 17.6758 626.827 17.4961 627.55 17.4961C628.268 17.4961 628.848 17.6543 629.29 17.9707C629.731 18.2871 629.983 18.7266 630.046 19.2891H628.839C628.71 18.7773 628.28 18.5215 627.55 18.5215C627.194 18.5215 626.901 18.5977 626.671 18.75C626.432 18.9062 626.313 19.1074 626.313 19.3535C626.313 19.7168 626.651 19.9766 627.327 20.1328L628.388 20.3789C629.001 20.5195 629.45 20.7266 629.735 21C630.024 21.2812 630.169 21.6543 630.169 22.1191C630.169 22.7129 629.919 23.1973 629.419 23.5723C628.927 23.9395 628.296 24.123 627.526 24.123C626.768 24.123 626.157 23.9609 625.692 23.6367C625.223 23.3164 624.962 22.873 624.907 22.3066H626.167C626.339 22.8379 626.802 23.1035 627.555 23.1035C627.95 23.1035 628.272 23.0234 628.522 22.8633C628.772 22.7031 628.897 22.4961 628.897 22.2422C628.897 21.8711 628.585 21.6113 627.96 21.4629L626.846 21.2051C626.237 21.0605 625.79 20.8457 625.505 20.5605C625.216 20.2754 625.071 19.8965 625.071 19.4238ZM633.145 16.0723V17.6484H634.574V18.709H633.145V21.9902C633.145 22.3223 633.217 22.5664 633.361 22.7227C633.506 22.875 633.734 22.9512 634.047 22.9512C634.164 22.9512 634.32 22.9414 634.516 22.9219V23.9707C634.273 24.0137 634.049 24.0352 633.842 24.0352C633.143 24.0352 632.641 23.9023 632.336 23.6367C632.035 23.3711 631.885 22.9297 631.885 22.3125V18.709H630.836V17.6484H631.885V16.0723H633.145ZM635.81 17.6191H637.023V18.5977H637.116C637.206 18.2812 637.411 18.0215 637.732 17.8184C638.052 17.6152 638.419 17.5137 638.833 17.5137C639.071 17.5137 639.257 17.5312 639.39 17.5664V18.8086C639.245 18.7578 639.013 18.7324 638.693 18.7324C638.216 18.7324 637.827 18.8711 637.527 19.1484C637.222 19.4258 637.07 19.7871 637.07 20.2324V24H635.81V17.6191ZM642.934 23.0039C643.477 23.0039 643.899 22.8105 644.2 22.4238C644.496 22.041 644.645 21.502 644.645 20.8066C644.645 20.1152 644.496 19.5762 644.2 19.1895C643.899 18.8066 643.477 18.6152 642.934 18.6152C642.387 18.6152 641.965 18.8066 641.668 19.1895C641.371 19.5723 641.223 20.1113 641.223 20.8066C641.223 21.5059 641.371 22.0469 641.668 22.4297C641.965 22.8125 642.387 23.0039 642.934 23.0039ZM642.934 24.123C641.996 24.123 641.26 23.8281 640.725 23.2383C640.19 22.6484 639.922 21.8379 639.922 20.8066C639.922 19.7793 640.192 18.9707 640.731 18.3809C641.266 17.791 642 17.4961 642.934 17.4961C643.864 17.4961 644.596 17.791 645.131 18.3809C645.67 18.9707 645.94 19.7793 645.94 20.8066C645.94 21.8379 645.672 22.6484 645.137 23.2383C644.602 23.8281 643.868 24.123 642.934 24.123ZM647.281 21.2109V19.9746H651.125V21.2109H647.281ZM655.395 18.5684C654.93 18.5684 654.548 18.7188 654.247 19.0195C653.946 19.3203 653.778 19.7207 653.743 20.2207H656.966C656.95 19.7168 656.802 19.3164 656.52 19.0195C656.235 18.7188 655.86 18.5684 655.395 18.5684ZM658.173 22.2773C658.028 22.8516 657.714 23.3027 657.229 23.6309C656.741 23.959 656.134 24.123 655.407 24.123C654.493 24.123 653.774 23.8281 653.251 23.2383C652.723 22.6523 652.46 21.8496 652.46 20.8301C652.46 19.8105 652.725 19 653.257 18.3984C653.788 17.7969 654.503 17.4961 655.401 17.4961C656.288 17.4961 656.985 17.7812 657.493 18.3516C657.997 18.9219 658.249 19.709 658.249 20.7129V21.1523H653.743V21.2227C653.762 21.7852 653.925 22.2305 654.229 22.5586C654.534 22.8867 654.938 23.0508 655.442 23.0508C656.212 23.0508 656.718 22.793 656.96 22.2773H658.173ZM659.561 17.6191H660.773V18.6445H660.867C661.164 17.8789 661.756 17.4961 662.643 17.4961C663.506 17.4961 664.092 17.8789 664.4 18.6445H664.5C664.664 18.293 664.918 18.0137 665.262 17.8066C665.609 17.5996 666.002 17.4961 666.439 17.4961C667.084 17.4961 667.586 17.6816 667.945 18.0527C668.301 18.4238 668.479 18.9414 668.479 19.6055V24H667.219V19.9336C667.219 19.0781 666.807 18.6504 665.982 18.6504C665.58 18.6504 665.254 18.7793 665.004 19.0371C664.758 19.2871 664.635 19.6035 664.635 19.9863V24H663.398V19.8105C663.398 19.4512 663.287 19.168 663.064 18.9609C662.842 18.7539 662.543 18.6504 662.168 18.6504C661.785 18.6504 661.465 18.7891 661.207 19.0664C660.949 19.3438 660.82 19.6875 660.82 20.0977V24H659.561V17.6191ZM675.55 24H674.343V22.9863H674.243C673.919 23.7441 673.253 24.123 672.245 24.123C671.534 24.123 670.982 23.916 670.587 23.502C670.189 23.0879 669.989 22.5039 669.989 21.75V17.6191H671.249V21.4336C671.249 22.4492 671.718 22.957 672.655 22.957C673.163 22.957 673.564 22.8145 673.857 22.5293C674.15 22.2441 674.296 21.8516 674.296 21.3516V17.6191H675.55V24Z" fill="#E9E9EA"/>
<path d="M621.902 22.6465L622.545 23.4124L622.55 23.4084L621.902 22.6465ZM622.371 21.1172H623.371V20.0512L622.307 20.1192L622.371 21.1172ZM620.812 21.2168L620.748 20.2188L620.743 20.2192L620.812 21.2168ZM619.869 22.8047L620.466 22.0029L620.462 21.9996L619.869 22.8047ZM618.873 23.5898L618.211 24.3393L618.212 24.3406L618.873 23.5898ZM618.884 20.8477L618.264 20.0631L618.26 20.0668L618.884 20.8477ZM620.642 20.291L620.585 19.2927L620.581 19.2929L620.642 20.291ZM622.371 20.1914L622.428 21.1897L623.371 21.1354V20.1914H622.371ZM619.734 19.2949V20.2949H620.468L620.688 19.5945L619.734 19.2949ZM618.515 19.2949L617.522 19.1814L617.394 20.2949H618.515V19.2949ZM619.324 17.9824L618.758 17.1578L618.757 17.1588L619.324 17.9824ZM622.974 18.0645L622.32 18.8204L622.32 18.8208L622.974 18.0645ZM623.625 24V25H624.625V24H623.625ZM622.412 24H621.412V25H622.412V24ZM622.412 23.1035H623.412V22.1035H622.412V23.1035ZM622.312 23.1035V22.1035H621.744L621.453 22.5912L622.312 23.1035ZM620.718 24.0449C621.39 24.0449 622.023 23.8508 622.545 23.4124L621.259 21.8806C621.148 21.9734 620.992 22.0449 620.718 22.0449V24.0449ZM622.55 23.4084C623.078 22.9592 623.371 22.352 623.371 21.6504H621.371C621.371 21.7457 621.351 21.8025 621.254 21.8845L622.55 23.4084ZM623.371 21.6504V21.1172H621.371V21.6504H623.371ZM622.307 20.1192L620.748 20.2188L620.876 22.2148L622.434 22.1152L622.307 20.1192ZM620.743 20.2192C620.237 20.254 619.701 20.3686 619.27 20.6793C618.779 21.0328 618.535 21.5594 618.535 22.1367H620.535C620.535 22.128 620.536 22.1604 620.511 22.2104C620.485 22.2623 620.452 22.2924 620.439 22.3022C620.43 22.3083 620.451 22.2907 620.528 22.2687C620.605 22.2468 620.719 22.2256 620.881 22.2144L620.743 20.2192ZM618.535 22.1367C618.535 22.7294 618.792 23.2535 619.276 23.6097L620.462 21.9996C620.461 21.9992 620.469 22.0045 620.479 22.017C620.491 22.0299 620.502 22.0469 620.513 22.0674C620.535 22.1121 620.535 22.1424 620.535 22.1367H618.535ZM619.271 23.6064C619.706 23.9303 620.218 24.0449 620.718 24.0449V22.0449C620.617 22.0449 620.552 22.0333 620.514 22.0226C620.479 22.0125 620.467 22.0033 620.466 22.0029L619.271 23.6064ZM620.396 23.1055C619.963 23.1055 619.706 22.9913 619.533 22.8391L618.212 24.3406C618.82 24.8759 619.579 25.1055 620.396 25.1055V23.1055ZM619.535 22.8404C619.364 22.6892 619.269 22.5054 619.269 22.1953H617.269C617.269 23.0337 617.577 23.7795 618.211 24.3393L619.535 22.8404ZM619.269 22.1953C619.269 21.8989 619.358 21.749 619.509 21.6285L618.26 20.0668C617.59 20.6026 617.269 21.3511 617.269 22.1953H619.269ZM619.505 21.6322C619.696 21.4804 620.056 21.329 620.704 21.2891L620.581 19.2929C619.705 19.3468 618.893 19.5665 618.264 20.0632L619.505 21.6322ZM620.7 21.2894L622.428 21.1897L622.313 19.1931L620.585 19.2927L620.7 21.2894ZM623.371 20.1914V19.6406H621.371V20.1914H623.371ZM623.371 19.6406C623.371 19.0714 623.184 18.4845 622.672 18.0715C622.201 17.6915 621.608 17.5859 621.064 17.5859V19.5859C621.218 19.5859 621.318 19.6018 621.376 19.6175C621.432 19.6327 621.436 19.6436 621.416 19.6277C621.392 19.6083 621.373 19.5808 621.365 19.5609C621.359 19.5471 621.371 19.5663 621.371 19.6406H623.371ZM621.064 17.5859C620.602 17.5859 620.126 17.6576 619.707 17.8807C619.258 18.1203 618.934 18.5049 618.78 18.9953L620.688 19.5945C620.689 19.592 620.684 19.6066 620.668 19.6255C620.653 19.6443 620.641 19.6495 620.648 19.6456C620.673 19.6324 620.788 19.5859 621.064 19.5859V17.5859ZM619.734 18.2949H618.515V20.2949H619.734V18.2949ZM619.509 19.4085C619.537 19.1651 619.639 18.9798 619.891 18.8061L618.757 17.1588C618.056 17.6413 617.619 18.331 617.522 19.1814L619.509 19.4085ZM619.889 18.8071C620.156 18.6242 620.544 18.4961 621.123 18.4961V16.4961C620.248 16.4961 619.437 16.6922 618.758 17.1578L619.889 18.8071ZM621.123 18.4961C621.77 18.4961 622.122 18.6495 622.32 18.8204L623.629 17.3085C622.951 16.7216 622.069 16.4961 621.123 16.4961V18.4961ZM622.32 18.8208C622.494 18.9714 622.625 19.198 622.625 19.6406H624.625C624.625 18.7317 624.321 17.9075 623.628 17.3081L622.32 18.8208ZM622.625 19.6406V24H624.625V19.6406H622.625ZM623.625 23H622.412V25H623.625V23ZM623.412 24V23.1035H621.412V24H623.412ZM622.412 22.1035H622.312V24.1035H622.412V22.1035ZM621.453 22.5912C621.262 22.9125 620.978 23.1055 620.396 23.1055V25.1055C621.572 25.1055 622.566 24.6305 623.171 23.6158L621.453 22.5912ZM625.768 18.0352L625.157 17.244L625.153 17.2472L625.768 18.0352ZM630.046 19.2891V20.2891H631.163L631.04 19.1786L630.046 19.2891ZM628.839 19.2891L627.869 19.5333L628.059 20.2891H628.839V19.2891ZM626.671 18.75L627.219 19.5863L627.222 19.5842L626.671 18.75ZM627.327 20.1328L627.553 19.1587L627.552 19.1585L627.327 20.1328ZM628.388 20.3789L628.161 21.353L628.164 21.3536L628.388 20.3789ZM629.735 21L630.433 20.2833L630.427 20.2782L629.735 21ZM629.419 23.5723L630.017 24.3738L630.019 24.3723L629.419 23.5723ZM625.692 23.6367L626.264 22.8165L626.256 22.8111L625.692 23.6367ZM624.907 22.3066V21.3066H623.806L623.912 22.4027L624.907 22.3066ZM626.167 22.3066L627.118 21.9988L626.894 21.3066H626.167V22.3066ZM627.96 21.4629L628.191 20.4899L628.185 20.4887L627.96 21.4629ZM626.846 21.2051L626.616 22.1781L626.621 22.1793L626.846 21.2051ZM625.505 20.5605L626.212 19.8534L626.207 19.8486L625.505 20.5605ZM626.071 19.4238C626.071 19.1861 626.148 19.0076 626.384 18.8231L625.153 17.2472C624.459 17.7893 624.071 18.5365 624.071 19.4238H626.071ZM626.38 18.8263C626.633 18.6311 626.996 18.4961 627.55 18.4961V16.4961C626.658 16.4961 625.834 16.7205 625.157 17.244L626.38 18.8263ZM627.55 18.4961C628.126 18.4961 628.483 18.6227 628.707 18.7835L629.872 17.1579C629.214 16.6858 628.41 16.4961 627.55 16.4961V18.4961ZM628.707 18.7835C628.907 18.9269 629.019 19.1054 629.052 19.3995L631.04 19.1786C630.947 18.3478 630.555 17.6473 629.872 17.1579L628.707 18.7835ZM630.046 18.2891H628.839V20.2891H630.046V18.2891ZM629.808 19.0448C629.683 18.547 629.388 18.1262 628.931 17.8542C628.506 17.6011 628.017 17.5215 627.55 17.5215V19.5215C627.813 19.5215 627.903 19.5698 627.908 19.5726C627.908 19.5726 627.907 19.572 627.905 19.5705C627.903 19.5689 627.9 19.5667 627.897 19.5638C627.89 19.5576 627.883 19.55 627.877 19.5417C627.864 19.5233 627.864 19.5155 627.869 19.5333L629.808 19.0448ZM627.55 17.5215C627.054 17.5215 626.554 17.6282 626.119 17.9158L627.222 19.5842C627.248 19.5671 627.335 19.5215 627.55 19.5215V17.5215ZM626.122 17.9138C625.654 18.2208 625.313 18.7127 625.313 19.3535H627.313C627.313 19.3999 627.3 19.4657 627.263 19.5276C627.23 19.5839 627.2 19.5987 627.219 19.5862L626.122 17.9138ZM625.313 19.3535C625.313 19.9017 625.59 20.3314 625.957 20.6136C626.289 20.8688 626.701 21.0145 627.102 21.1071L627.552 19.1585C627.423 19.1286 627.329 19.098 627.263 19.0711C627.196 19.0437 627.174 19.026 627.176 19.028C627.181 19.0314 627.219 19.0623 627.256 19.1298C627.295 19.2021 627.313 19.2822 627.313 19.3535H625.313ZM627.101 21.1069L628.161 21.353L628.614 19.4048L627.553 19.1587L627.101 21.1069ZM628.164 21.3536C628.696 21.4755 628.944 21.6269 629.043 21.7218L630.427 20.2782C629.956 19.8262 629.306 19.5635 628.611 19.4042L628.164 21.3536ZM629.038 21.7167C629.103 21.7806 629.169 21.8794 629.169 22.1191H631.169C631.169 21.4292 630.945 20.7819 630.433 20.2833L629.038 21.7167ZM629.169 22.1191C629.169 22.3793 629.082 22.5745 628.819 22.7723L630.019 24.3723C630.755 23.82 631.169 23.0465 631.169 22.1191H629.169ZM628.821 22.7707C628.541 22.9795 628.136 23.123 627.526 23.123V25.123C628.456 25.123 629.312 24.8994 630.017 24.3738L628.821 22.7707ZM627.526 23.123C626.905 23.123 626.513 22.9901 626.264 22.8165L625.12 24.4569C625.801 24.9318 626.632 25.123 627.526 25.123V23.123ZM626.256 22.8111C626.033 22.6585 625.929 22.4827 625.902 22.2105L623.912 22.4027C623.995 23.2634 624.414 23.9744 625.128 24.4624L626.256 22.8111ZM624.907 23.3066H626.167V21.3066H624.907V23.3066ZM625.215 22.6145C625.374 23.1045 625.688 23.509 626.145 23.7716C626.578 24.02 627.072 24.1035 627.555 24.1035V22.1035C627.285 22.1035 627.171 22.0542 627.141 22.037C627.129 22.0303 627.13 22.0285 627.132 22.0322C627.135 22.0353 627.128 22.0282 627.118 21.9988L625.215 22.6145ZM627.555 24.1035C628.08 24.1035 628.606 23.9974 629.062 23.7053L627.983 22.0212C627.939 22.0495 627.82 22.1035 627.555 22.1035V24.1035ZM629.062 23.7053C629.542 23.3976 629.897 22.8992 629.897 22.2422H627.897C627.897 22.2228 627.9 22.195 627.909 22.1621C627.918 22.1289 627.931 22.0978 627.947 22.071C627.98 22.0168 628.008 22.0054 627.983 22.0212L629.062 23.7053ZM629.897 22.2422C629.897 21.7288 629.662 21.2994 629.302 21C628.978 20.7307 628.575 20.5812 628.191 20.49L627.729 22.4358C627.841 22.4626 627.92 22.4897 627.971 22.512C628.023 22.5345 628.034 22.5467 628.024 22.5381C628.011 22.5274 627.974 22.4928 627.943 22.4286C627.91 22.362 627.897 22.2948 627.897 22.2422H629.897ZM628.185 20.4887L627.072 20.2309L626.621 22.1793L627.734 22.4371L628.185 20.4887ZM627.077 20.2321C626.557 20.1086 626.312 19.954 626.212 19.8534L624.798 21.2677C625.267 21.7374 625.918 22.0125 626.616 22.1781L627.077 20.2321ZM626.207 19.8486C626.14 19.7823 626.071 19.6764 626.071 19.4238H624.071C624.071 20.1165 624.291 20.7684 624.802 21.2724L626.207 19.8486ZM633.145 16.0723H634.145V15.0723H633.145V16.0723ZM633.145 17.6484H632.145V18.6484H633.145V17.6484ZM634.574 17.6484H635.574V16.6484H634.574V17.6484ZM634.574 18.709V19.709H635.574V18.709H634.574ZM633.145 18.709V17.709H632.145V18.709H633.145ZM633.361 22.7227L632.627 23.4018L632.636 23.4109L633.361 22.7227ZM634.516 22.9219H635.516V21.8169L634.416 21.9268L634.516 22.9219ZM634.516 23.9707L634.69 24.9553L635.516 24.8089V23.9707H634.516ZM632.336 23.6367L631.674 24.3863L631.679 24.3905L632.336 23.6367ZM631.885 18.709H632.885V17.709H631.885V18.709ZM630.836 18.709H629.836V19.709H630.836V18.709ZM630.836 17.6484V16.6484H629.836V17.6484H630.836ZM631.885 17.6484V18.6484H632.885V17.6484H631.885ZM631.885 16.0723V15.0723H630.885V16.0723H631.885ZM632.145 16.0723V17.6484H634.145V16.0723H632.145ZM633.145 18.6484H634.574V16.6484H633.145V18.6484ZM633.574 17.6484V18.709H635.574V17.6484H633.574ZM634.574 17.709H633.145V19.709H634.574V17.709ZM632.145 18.709V21.9902H634.145V18.709H632.145ZM632.145 21.9902C632.145 22.4385 632.238 22.9807 632.627 23.4017L634.095 22.0436C634.146 22.0982 634.159 22.142 634.158 22.1385C634.157 22.1363 634.153 22.1237 634.15 22.0983C634.147 22.0729 634.145 22.0374 634.145 21.9902H632.145ZM632.636 23.4109C633.045 23.8421 633.594 23.9512 634.047 23.9512V21.9512C633.968 21.9512 633.944 21.9411 633.957 21.9454C633.965 21.948 633.983 21.955 634.008 21.9699C634.033 21.9851 634.06 22.0064 634.087 22.0344L632.636 23.4109ZM634.047 23.9512C634.212 23.9512 634.406 23.9379 634.615 23.9169L634.416 21.9268C634.235 21.9449 634.116 21.9512 634.047 21.9512V23.9512ZM633.516 22.9219V23.9707H635.516V22.9219H633.516ZM634.341 22.9861C634.146 23.0207 633.981 23.0352 633.842 23.0352V25.0352C634.117 25.0352 634.401 25.0067 634.69 24.9553L634.341 22.9861ZM633.842 23.0352C633.223 23.0352 633.023 22.909 632.993 22.8829L631.679 24.3905C632.258 24.8957 633.062 25.0352 633.842 25.0352V23.0352ZM632.998 22.8872C632.998 22.887 632.972 22.8669 632.944 22.7839C632.914 22.6945 632.885 22.5447 632.885 22.3125H630.885C630.885 23.0625 631.065 23.8484 631.674 24.3863L632.998 22.8872ZM632.885 22.3125V18.709H630.885V22.3125H632.885ZM631.885 17.709H630.836V19.709H631.885V17.709ZM631.836 18.709V17.6484H629.836V18.709H631.836ZM630.836 18.6484H631.885V16.6484H630.836V18.6484ZM632.885 17.6484V16.0723H630.885V17.6484H632.885ZM631.885 17.0723H633.145V15.0723H631.885V17.0723ZM635.81 17.6191V16.6191H634.81V17.6191H635.81ZM637.023 17.6191H638.023V16.6191H637.023V17.6191ZM637.023 18.5977H636.023V19.5977H637.023V18.5977ZM637.116 18.5977V19.5977H637.872L638.078 18.8708L637.116 18.5977ZM639.39 17.5664H640.39V16.7967L639.646 16.5997L639.39 17.5664ZM639.39 18.8086L639.058 19.7521L640.39 20.2199V18.8086H639.39ZM637.527 19.1484L638.2 19.888L638.204 19.8836L637.527 19.1484ZM637.07 24V25H638.07V24H637.07ZM635.81 24H634.81V25H635.81V24ZM635.81 18.6191H637.023V16.6191H635.81V18.6191ZM636.023 17.6191V18.5977H638.023V17.6191H636.023ZM637.023 19.5977H637.116V17.5977H637.023V19.5977ZM638.078 18.8708C638.091 18.8267 638.121 18.7559 638.267 18.6629L637.196 16.9739C636.702 17.2871 636.322 17.7358 636.154 18.3245L638.078 18.8708ZM638.267 18.6629C638.413 18.5706 638.591 18.5137 638.833 18.5137V16.5137C638.248 16.5137 637.691 16.6599 637.196 16.9739L638.267 18.6629ZM638.833 18.5137C638.929 18.5137 639.003 18.5173 639.057 18.5224C639.113 18.5277 639.135 18.5335 639.134 18.5331L639.646 16.5997C639.39 16.532 639.105 16.5137 638.833 16.5137V18.5137ZM638.39 17.5664V18.8086H640.39V17.5664H638.39ZM639.721 17.8651C639.407 17.7547 639.03 17.7324 638.693 17.7324V19.7324C638.829 19.7324 638.929 19.7379 638.999 19.7456C639.074 19.7538 639.085 19.7615 639.058 19.7521L639.721 17.8651ZM638.693 17.7324C638.009 17.7324 637.364 17.9379 636.849 18.4133L638.204 19.8836C638.29 19.8043 638.423 19.7324 638.693 19.7324V17.7324ZM636.853 18.4089C636.322 18.8923 636.07 19.5311 636.07 20.2324H638.07C638.07 20.0431 638.121 19.9593 638.2 19.8879L636.853 18.4089ZM636.07 20.2324V24H638.07V20.2324H636.07ZM637.07 23H635.81V25H637.07V23ZM636.81 24V17.6191H634.81V24H636.81ZM644.2 22.4238L644.989 23.0378L644.99 23.0367L644.2 22.4238ZM644.2 19.1895L644.993 18.5805L644.986 18.5716L644.2 19.1895ZM640.731 18.3809L641.469 19.0555L641.471 19.0528L640.731 18.3809ZM645.131 18.3809L644.391 19.0528L644.393 19.0555L645.131 18.3809ZM642.934 24.0039C643.747 24.0039 644.476 23.6967 644.989 23.0378L643.41 21.8099C643.321 21.9244 643.207 22.0039 642.934 22.0039V24.0039ZM644.99 23.0367C645.471 22.4166 645.645 21.6301 645.645 20.8066H643.645C643.645 21.3738 643.522 21.6655 643.409 21.811L644.99 23.0367ZM645.645 20.8066C645.645 19.9847 645.47 19.2017 644.993 18.5805L643.406 19.7984C643.523 19.9506 643.645 20.2458 643.645 20.8066H645.645ZM644.986 18.5716C644.472 17.9175 643.743 17.6152 642.934 17.6152V19.6152C643.21 19.6152 643.326 19.6958 643.413 19.8073L644.986 18.5716ZM642.934 17.6152C642.123 17.6152 641.391 17.9158 640.878 18.5766L642.459 19.8023C642.54 19.6974 642.651 19.6152 642.934 19.6152V17.6152ZM640.878 18.5766C640.397 19.1967 640.223 19.9832 640.223 20.8066H642.223C642.223 20.2395 642.346 19.9478 642.459 19.8023L640.878 18.5766ZM640.223 20.8066C640.223 21.6325 640.397 22.4216 640.878 23.0425L642.459 21.8169C642.346 21.6722 642.223 21.3793 642.223 20.8066H640.223ZM640.878 23.0425C641.391 23.7033 642.123 24.0039 642.934 24.0039V22.0039C642.651 22.0039 642.54 21.9217 642.459 21.8169L640.878 23.0425ZM642.934 23.123C642.224 23.123 641.777 22.91 641.466 22.5663L639.984 23.9102C640.743 24.7463 641.769 25.123 642.934 25.123V23.123ZM641.466 22.5663C641.142 22.2095 640.922 21.6648 640.922 20.8066H638.922C638.922 22.011 639.238 23.0873 639.984 23.9102L641.466 22.5663ZM640.922 20.8066C640.922 19.9553 641.142 19.4131 641.469 19.0555L639.993 17.7062C639.241 18.5283 638.922 19.6033 638.922 20.8066H640.922ZM641.471 19.0528C641.784 18.7083 642.229 18.4961 642.934 18.4961V16.4961C641.772 16.4961 640.748 16.8738 639.99 17.7089L641.471 19.0528ZM642.934 18.4961C643.633 18.4961 644.077 18.7074 644.391 19.0528L645.872 17.7089C645.115 16.8747 644.094 16.4961 642.934 16.4961V18.4961ZM644.393 19.0555C644.72 19.4131 644.94 19.9553 644.94 20.8066H646.94C646.94 19.6033 646.621 18.5283 645.869 17.7062L644.393 19.0555ZM644.94 20.8066C644.94 21.6648 644.72 22.2095 644.397 22.5663L645.878 23.9102C646.624 23.0873 646.94 22.011 646.94 20.8066H644.94ZM644.397 22.5663C644.084 22.9109 643.639 23.123 642.934 23.123V25.123C644.096 25.123 645.12 24.7454 645.878 23.9102L644.397 22.5663ZM647.281 21.2109H646.281V22.2109H647.281V21.2109ZM647.281 19.9746V18.9746H646.281V19.9746H647.281ZM651.125 19.9746H652.125V18.9746H651.125V19.9746ZM651.125 21.2109V22.2109H652.125V21.2109H651.125ZM648.281 21.2109V19.9746H646.281V21.2109H648.281ZM647.281 20.9746H651.125V18.9746H647.281V20.9746ZM650.125 19.9746V21.2109H652.125V19.9746H650.125ZM651.125 20.2109H647.281V22.2109H651.125V20.2109ZM653.743 20.2207L652.745 20.1506L652.67 21.2207H653.743V20.2207ZM656.966 20.2207V21.2207H657.997L657.965 20.1897L656.966 20.2207ZM656.52 19.0195L657.246 18.3318L657.246 18.3315L656.52 19.0195ZM658.173 22.2773L659.142 22.5214L659.456 21.2773H658.173V22.2773ZM657.229 23.6309L657.787 24.4609L657.79 24.4588L657.229 23.6309ZM653.251 23.2383L653.999 22.5745L653.994 22.5693L653.251 23.2383ZM657.493 18.3516L658.242 17.6894L658.24 17.6866L657.493 18.3516ZM658.249 21.1523V22.1523H659.249V21.1523H658.249ZM653.743 21.1523V20.1523H652.743V21.1523H653.743ZM653.743 21.2227H652.743V21.24L652.744 21.2574L653.743 21.2227ZM656.96 22.2773V21.2773H656.325L656.055 21.8522L656.96 22.2773ZM655.395 17.5684C654.692 17.5684 654.046 17.8058 653.54 18.3124L654.954 19.7266C655.049 19.6317 655.169 19.5684 655.395 19.5684V17.5684ZM653.54 18.3124C653.039 18.8131 652.794 19.4554 652.745 20.1506L654.741 20.2908C654.762 19.986 654.853 19.8275 654.954 19.7266L653.54 18.3124ZM653.743 21.2207H656.966V19.2207H653.743V21.2207ZM657.965 20.1897C657.944 19.5002 657.733 18.8456 657.246 18.3318L655.794 19.7073C655.87 19.7872 655.956 19.9333 655.966 20.2517L657.965 20.1897ZM657.246 18.3315C656.748 17.8064 656.098 17.5684 655.395 17.5684V19.5684C655.622 19.5684 655.722 19.6311 655.795 19.7075L657.246 18.3315ZM657.203 22.0333C657.118 22.3724 656.947 22.6144 656.668 22.8029L657.79 24.4588C658.481 23.991 658.939 23.3307 659.142 22.5214L657.203 22.0333ZM656.672 22.8009C656.383 22.9946 655.982 23.123 655.407 23.123V25.123C656.285 25.123 657.099 24.9234 657.787 24.4609L656.672 22.8009ZM655.407 23.123C654.729 23.123 654.301 22.9157 653.999 22.5745L652.503 23.902C653.247 24.7406 654.257 25.123 655.407 25.123V23.123ZM653.994 22.5693C653.676 22.2157 653.46 21.6771 653.46 20.8301H651.46C651.46 22.0222 651.771 23.089 652.507 23.9072L653.994 22.5693ZM653.46 20.8301C653.46 19.9864 653.676 19.434 654.006 19.0604L652.507 17.7365C651.775 18.566 651.46 19.6347 651.46 20.8301H653.46ZM654.006 19.0604C654.324 18.7008 654.751 18.4961 655.401 18.4961V16.4961C654.254 16.4961 653.252 16.8929 652.507 17.7365L654.006 19.0604ZM655.401 18.4961C656.053 18.4961 656.459 18.6945 656.746 19.0166L658.24 17.6866C657.511 16.868 656.523 16.4961 655.401 16.4961V18.4961ZM656.744 19.0137C657.04 19.3495 657.249 19.8736 657.249 20.7129H659.249C659.249 19.5443 658.953 18.4943 658.242 17.6894L656.744 19.0137ZM657.249 20.7129V21.1523H659.249V20.7129H657.249ZM658.249 20.1523H653.743V22.1523H658.249V20.1523ZM652.743 21.1523V21.2227H654.743V21.1523H652.743ZM652.744 21.2574C652.769 21.9964 652.989 22.693 653.497 23.239L654.962 21.8781C654.86 21.7679 654.756 21.5739 654.742 21.188L652.744 21.2574ZM653.497 23.239C654.015 23.7975 654.699 24.0508 655.442 24.0508V22.0508C655.178 22.0508 655.053 21.9759 654.962 21.8781L653.497 23.239ZM655.442 24.0508C656.439 24.0508 657.399 23.6938 657.865 22.7025L656.055 21.8522C656.028 21.9097 655.999 21.9388 655.945 21.9665C655.873 22.0028 655.722 22.0508 655.442 22.0508V24.0508ZM656.96 23.2773H658.173V21.2773H656.96V23.2773ZM659.561 17.6191V16.6191H658.561V17.6191H659.561ZM660.773 17.6191H661.773V16.6191H660.773V17.6191ZM660.773 18.6445H659.773V19.6445H660.773V18.6445ZM660.867 18.6445V19.6445H661.552L661.8 19.0061L660.867 18.6445ZM664.4 18.6445L663.473 19.0184L663.725 19.6445H664.4V18.6445ZM664.5 18.6445V19.6445H665.137L665.406 19.0674L664.5 18.6445ZM665.262 17.8066L664.75 16.9474L664.746 16.95L665.262 17.8066ZM667.945 18.0527L668.667 17.361L668.664 17.3571L667.945 18.0527ZM668.479 24V25H669.479V24H668.479ZM667.219 24H666.219V25H667.219V24ZM665.004 19.0371L665.717 19.7386L665.722 19.7333L665.004 19.0371ZM664.635 24V25H665.635V24H664.635ZM663.398 24H662.398V25H663.398V24ZM660.82 24V25H661.82V24H660.82ZM659.561 24H658.561V25H659.561V24ZM659.561 18.6191H660.773V16.6191H659.561V18.6191ZM659.773 17.6191V18.6445H661.773V17.6191H659.773ZM660.773 19.6445H660.867V17.6445H660.773V19.6445ZM661.8 19.0061C661.885 18.7861 661.986 18.6818 662.077 18.6228C662.174 18.5601 662.342 18.4961 662.643 18.4961V16.4961C662.056 16.4961 661.485 16.6235 660.991 16.9436C660.49 17.2675 660.146 17.7373 659.935 18.283L661.8 19.0061ZM662.643 18.4961C662.925 18.4961 663.087 18.5576 663.183 18.6204C663.275 18.6809 663.381 18.7904 663.473 19.0184L665.328 18.2707C665.111 17.7331 664.77 17.2683 664.276 16.946C663.787 16.626 663.223 16.4961 662.643 16.4961V18.4961ZM664.4 19.6445H664.5V17.6445H664.4V19.6445ZM665.406 19.0674C665.483 18.9025 665.598 18.7715 665.778 18.6633L664.746 16.95C664.238 17.2559 663.845 17.6835 663.594 18.2216L665.406 19.0674ZM665.773 18.6658C665.954 18.5584 666.167 18.4961 666.439 18.4961V16.4961C665.837 16.4961 665.265 16.6408 664.75 16.9474L665.773 18.6658ZM666.439 18.4961C666.884 18.4961 667.1 18.6177 667.227 18.7484L668.664 17.3571C668.072 16.7456 667.284 16.4961 666.439 16.4961V18.4961ZM667.223 18.7445C667.353 18.8797 667.479 19.121 667.479 19.6055H669.479C669.479 18.7618 669.249 17.9679 668.667 17.361L667.223 18.7445ZM667.479 19.6055V24H669.479V19.6055H667.479ZM668.479 23H667.219V25H668.479V23ZM668.219 24V19.9336H666.219V24H668.219ZM668.219 19.9336C668.219 19.3608 668.081 18.746 667.63 18.2774C667.172 17.8018 666.558 17.6504 665.982 17.6504V19.6504C666.231 19.6504 666.236 19.7128 666.19 19.665C666.15 19.6242 666.219 19.6509 666.219 19.9336H668.219ZM665.982 17.6504C665.345 17.6504 664.748 17.8647 664.286 18.341L665.722 19.7333C665.76 19.6939 665.815 19.6504 665.982 19.6504V17.6504ZM664.291 18.3356C663.843 18.7906 663.635 19.3673 663.635 19.9863H665.635C665.635 19.8397 665.672 19.7836 665.717 19.7386L664.291 18.3356ZM663.635 19.9863V24H665.635V19.9863H663.635ZM664.635 23H663.398V25H664.635V23ZM664.398 24V19.8105H662.398V24H664.398ZM664.398 19.8105C664.398 19.2284 664.209 18.6593 663.745 18.2286L662.384 19.6933C662.386 19.6955 662.385 19.6955 662.384 19.6935C662.383 19.6916 662.383 19.6913 662.384 19.6945C662.387 19.7005 662.398 19.7339 662.398 19.8105H664.398ZM663.745 18.2286C663.297 17.8116 662.734 17.6504 662.168 17.6504V19.6504C662.264 19.6504 662.319 19.6637 662.346 19.6729C662.369 19.6811 662.378 19.6882 662.384 19.6933L663.745 18.2286ZM662.168 17.6504C661.511 17.6504 660.924 17.9022 660.475 18.3856L661.939 19.7473C662.006 19.676 662.06 19.6504 662.168 19.6504V17.6504ZM660.475 18.3856C660.03 18.864 659.82 19.4578 659.82 20.0977H661.82C661.82 19.9172 661.869 19.8235 661.939 19.7473L660.475 18.3856ZM659.82 20.0977V24H661.82V20.0977H659.82ZM660.82 23H659.561V25H660.82V23ZM660.561 24V17.6191H658.561V24H660.561ZM675.55 24V25H676.55V24H675.55ZM674.343 24H673.343V25H674.343V24ZM674.343 22.9863H675.343V21.9863H674.343V22.9863ZM674.243 22.9863V21.9863H673.584L673.324 22.593L674.243 22.9863ZM670.587 23.502L671.311 22.8121L671.308 22.8086L670.587 23.502ZM669.989 17.6191V16.6191H668.989V17.6191H669.989ZM671.249 17.6191H672.249V16.6191H671.249V17.6191ZM674.296 17.6191V16.6191H673.296V17.6191H674.296ZM675.55 17.6191H676.55V16.6191H675.55V17.6191ZM675.55 23H674.343V25H675.55V23ZM675.343 24V22.9863H673.343V24H675.343ZM674.343 21.9863H674.243V23.9863H674.343V21.9863ZM673.324 22.593C673.241 22.7873 673.135 22.8966 673.006 22.9697C672.864 23.0505 672.629 23.123 672.245 23.123V25.123C672.87 25.123 673.471 25.0061 673.995 24.708C674.533 24.4022 674.922 23.9432 675.163 23.3797L673.324 22.593ZM672.245 23.123C671.737 23.123 671.473 22.9821 671.311 22.8121L669.863 24.1918C670.49 24.85 671.332 25.123 672.245 25.123V23.123ZM671.308 22.8086C671.139 22.6333 670.989 22.3287 670.989 21.75H668.989C668.989 22.6791 669.238 23.5425 669.867 24.1953L671.308 22.8086ZM670.989 21.75V17.6191H668.989V21.75H670.989ZM669.989 18.6191H671.249V16.6191H669.989V18.6191ZM670.249 17.6191V21.4336H672.249V17.6191H670.249ZM670.249 21.4336C670.249 22.0766 670.396 22.7452 670.866 23.2545C671.35 23.7788 672.011 23.957 672.655 23.957V21.957C672.509 21.957 672.423 21.9369 672.38 21.9213C672.359 21.9138 672.348 21.9074 672.344 21.9044C672.339 21.9015 672.337 21.8996 672.336 21.8979C672.334 21.8965 672.314 21.8753 672.293 21.806C672.27 21.7328 672.249 21.6137 672.249 21.4336H670.249ZM672.655 23.957C673.357 23.957 674.032 23.7544 674.554 23.2459L673.159 21.8127C673.096 21.8745 672.969 21.957 672.655 21.957V23.957ZM674.554 23.2459C675.082 22.7319 675.296 22.0572 675.296 21.3516H673.296C673.296 21.646 673.217 21.7564 673.159 21.8127L674.554 23.2459ZM675.296 21.3516V17.6191H673.296V21.3516H675.296ZM674.296 18.6191H675.55V16.6191H674.296V18.6191ZM674.55 17.6191V24H676.55V17.6191H674.55Z" fill="black" fill-opacity="0.2" mask="url(#path-12-outside-2_3_137)"/>
<rect x="503" y="18" width="8" height="6" fill="#E9E9EA"/>
<path d="M504 17V18H505V17C505 15.8954 505.895 15 507 15C508.105 15 509 15.8954 509 17V18H510V17C510 15.3431 508.657 14 507 14C505.343 14 504 15.3431 504 17Z" fill="#E9E9EA"/>
<path d="M922.5 14V15C920.015 15 918 17.0147 918 19.5C918 21.9853 920.015 24 922.5 24C924.985 24 927 21.9853 927 19.5H928C928 22.5376 925.538 25 922.5 25C919.462 25 917 22.5376 917 19.5C917 16.4624 919.462 14 922.5 14Z" fill="#DADADA"/>
<path d="M926 14.5L922 17V12L926 14.5Z" fill="#DADADA"/>
<g filter="url(#filter3_i_3_137)">
<rect x="138" y="8" width="37" height="22" rx="3" fill="url(#paint4_linear_3_137)"/>
</g>
<path fill-rule="evenodd" clip-rule="evenodd" d="M151 16V15H153.013V16H151ZM151 18V17H153.05V18H151ZM151 19V20H153.05V19H151Z" fill="#BBBEC0"/>
<path fill-rule="evenodd" clip-rule="evenodd" d="M155 13H162.993C163.551 13 164 13.4488 164 14.0025V23.9975C164 24.5442 163.549 25 162.993 25H155H154H150.007C149.449 25 149 24.5512 149 23.9975V14.0025C149 13.4558 149.451 13 150.007 13H154H155ZM154 14.0004C151.772 14.0002 150.007 14 150.007 14C150.006 14 150 23.9975 150 23.9975C150 23.998 151.768 23.9985 154 23.9989V14.0004ZM155 23.999V14.0005C158.663 14.001 163 14.0017 163 14.0025C163 14.0025 162.994 24 162.993 24C162.993 24 158.661 23.9996 155 23.999Z" fill="#E9E9EA"/>
<path fill-rule="evenodd" clip-rule="evenodd" d="M58 25C61.3137 25 64 22.3137 64 19C64 15.6863 61.3137 13 58 13C54.6863 13 52 15.6863 52 19C52 22.3137 54.6863 25 58 25Z" fill="#53C22B"/>
<path fill-rule="evenodd" clip-rule="evenodd" d="M38 25C41.3137 25 44 22.3137 44 19C44 15.6863 41.3137 13 38 13C34.6863 13 32 15.6863 32 19C32 22.3137 34.6863 25 38 25Z" fill="#E6C02A"/>
<path fill-rule="evenodd" clip-rule="evenodd" d="M18 25C21.3137 25 24 22.3137 24 19C24 15.6863 21.3137 13 18 13C14.6863 13 12 15.6863 12 19C12 22.3137 14.6863 25 18 25Z" fill="#FF5A52"/>
<g filter="url(#filter4_i_3_137)">
<rect x="103" y="8" width="25" height="22" rx="3" fill="url(#paint5_linear_3_137)"/>
</g>
<path d="M112.616 22.9844C112.271 23.3478 112.271 23.9181 112.616 24.2816C112.988 24.6723 113.61 24.6723 113.982 24.2816L118.949 19.0537C118.978 19.0236 118.978 18.9764 118.949 18.9463L113.982 13.7184C113.61 13.3277 112.988 13.3277 112.616 13.7184C112.271 14.0819 112.271 14.6522 112.616 15.0156L116.402 19L112.616 22.9844Z" fill="#75787A"/>
<g filter="url(#filter5_i_3_137)">
<path d="M77 12.8C77 11.1198 77 10.2798 77.327 9.63803C77.6146 9.07354 78.0735 8.6146 78.638 8.32698C79.2798 8 80.1198 8 81.8 8H97.2C98.8802 8 99.7202 8 100.362 8.32698C100.926 8.6146 101.385 9.07354 101.673 9.63803C102 10.2798 102 11.1198 102 12.8V25.2C102 26.8802 102 27.7202 101.673 28.362C101.385 28.9265 100.926 29.3854 100.362 29.673C99.7202 30 98.8802 30 97.2 30H81.8C80.1198 30 79.2798 30 78.638 29.673C78.0735 29.3854 77.6146 28.9265 77.327 28.362C77 27.7202 77 26.8802 77 25.2V12.8Z" fill="url(#paint6_linear_3_137)"/>
</g>
<path d="M92.3837 22.9844C92.729 23.3478 92.729 23.9181 92.3837 24.2816C92.0125 24.6723 91.3897 24.6723 91.0185 24.2816L86.051 19.0537C86.0224 19.0236 86.0224 18.9764 86.051 18.9463L91.0185 13.7184C91.3897 13.3277 92.0125 13.3277 92.3837 13.7184C92.729 14.0819 92.729 14.6522 92.3837 15.0156L88.5978 19L92.3837 22.9844Z" fill="#E9E9EA"/>
<defs>
<filter id="filter0_i_3_137" x="1209" y="8" width="37" height="22" filterUnits="userSpaceOnUse" color-interpolation-filters="sRGB">
<feFlood flood-opacity="0" result="BackgroundImageFix"/>
<feBlend mode="normal" in="SourceGraphic" in2="BackgroundImageFix" result="shape"/>
<feColorMatrix in="SourceAlpha" type="matrix" values="0 0 0 0 0 0 0 0 0 0 0 0 0 0 0 0 0 0 127 0" result="hardAlpha"/>
<feOffset dy="1"/>
<feComposite in2="hardAlpha" operator="arithmetic" k2="-1" k3="1"/>
<feColorMatrix type="matrix" values="0 0 0 0 0.458824 0 0 0 0 0.470588 0 0 0 0 0.478431 0 0 0 1 0"/>
<feBlend mode="normal" in2="shape" result="effect1_innerShadow_3_137"/>
</filter>
<filter id="filter1_i_3_137" x="1164" y="8" width="37" height="22" filterUnits="userSpaceOnUse" color-interpolation-filters="sRGB">
<feFlood flood-opacity="0" result="BackgroundImageFix"/>
<feBlend mode="normal" in="SourceGraphic" in2="BackgroundImageFix" result="shape"/>
<feColorMatrix in="SourceAlpha" type="matrix" values="0 0 0 0 0 0 0 0 0 0 0 0 0 0 0 0 0 0 127 0" result="hardAlpha"/>
<feOffset dy="1"/>
<feComposite in2="hardAlpha" operator="arithmetic" k2="-1" k3="1"/>
<feColorMatrix type="matrix" values="0 0 0 0 0.458824 0 0 0 0 0.470588 0 0 0 0 0.478431 0 0 0 1 0"/>
<feBlend mode="normal" in2="shape" result="effect1_innerShadow_3_137"/>
</filter>
<filter id="filter2_i_3_137" x="345" y="8" width="590" height="22" filterUnits="userSpaceOnUse" color-interpolation-filters="sRGB">
<feFlood flood-opacity="0" result="BackgroundImageFix"/>
<feBlend mode="normal" in="SourceGraphic" in2="BackgroundImageFix" result="shape"/>
<feColorMatrix in="SourceAlpha" type="matrix" values="0 0 0 0 0 0 0 0 0 0 0 0 0 0 0 0 0 0 127 0" result="hardAlpha"/>
<feOffset dy="1"/>
<feComposite in2="hardAlpha" operator="arithmetic" k2="-1" k3="1"/>
<feColorMatrix type="matrix" values="0 0 0 0 0.458824 0 0 0 0 0.470588 0 0 0 0 0.478431 0 0 0 1 0"/>
<feBlend mode="normal" in2="shape" result="effect1_innerShadow_3_137"/>
</filter>
<filter id="filter3_i_3_137" x="138" y="8" width="37" height="22" filterUnits="userSpaceOnUse" color-interpolation-filters="sRGB">
<feFlood flood-opacity="0" result="BackgroundImageFix"/>
<feBlend mode="normal" in="SourceGraphic" in2="BackgroundImageFix" result="shape"/>
<feColorMatrix in="SourceAlpha" type="matrix" values="0 0 0 0 0 0 0 0 0 0 0 0 0 0 0 0 0 0 127 0" result="hardAlpha"/>
<feOffset dy="1"/>
<feComposite in2="hardAlpha" operator="arithmetic" k2="-1" k3="1"/>
<feColorMatrix type="matrix" values="0 0 0 0 0.458824 0 0 0 0 0.470588 0 0 0 0 0.478431 0 0 0 1 0"/>
<feBlend mode="normal" in2="shape" result="effect1_innerShadow_3_137"/>
</filter>
<filter id="filter4_i_3_137" x="103" y="8" width="25" height="22" filterUnits="userSpaceOnUse" color-interpolation-filters="sRGB">
<feFlood flood-opacity="0" result="BackgroundImageFix"/>
<feBlend mode="normal" in="SourceGraphic" in2="BackgroundImageFix" result="shape"/>
<feColorMatrix in="SourceAlpha" type="matrix" values="0 0 0 0 0 0 0 0 0 0 0 0 0 0 0 0 0 0 127 0" result="hardAlpha"/>
<feOffset dy="1"/>
<feComposite in2="hardAlpha" operator="arithmetic" k2="-1" k3="1"/>
<feColorMatrix type="matrix" values="0 0 0 0 0.458824 0 0 0 0 0.470588 0 0 0 0 0.478431 0 0 0 1 0"/>
<feBlend mode="normal" in2="shape" result="effect1_innerShadow_3_137"/>
</filter>
<filter id="filter5_i_3_137" x="77" y="8" width="25" height="22" filterUnits="userSpaceOnUse" color-interpolation-filters="sRGB">
<feFlood flood-opacity="0" result="BackgroundImageFix"/>
<feBlend mode="normal" in="SourceGraphic" in2="BackgroundImageFix" result="shape"/>
<feColorMatrix in="SourceAlpha" type="matrix" values="0 0 0 0 0 0 0 0 0 0 0 0 0 0 0 0 0 0 127 0" result="hardAlpha"/>
<feOffset dy="1"/>
<feComposite in2="hardAlpha" operator="arithmetic" k2="-1" k3="1"/>
<feColorMatrix type="matrix" values="0 0 0 0 0.458824 0 0 0 0 0.470588 0 0 0 0 0.478431 0 0 0 1 0"/>
<feBlend mode="normal" in2="shape" result="effect1_innerShadow_3_137"/>
</filter>
<linearGradient id="paint0_linear_3_137" x1="639.5" y1="0" x2="639.5" y2="37" gradientUnits="userSpaceOnUse">
<stop stop-color="#3A3E3F"/>
<stop offset="1" stop-color="#2F3234"/>
</linearGradient>
<linearGradient id="paint1_linear_3_137" x1="1209" y1="8" x2="1209" y2="30" gradientUnits="userSpaceOnUse">
<stop stop-color="#65686A"/>
<stop offset="1" stop-color="#5F6263"/>
</linearGradient>
<linearGradient id="paint2_linear_3_137" x1="1164" y1="8" x2="1164" y2="30" gradientUnits="userSpaceOnUse">
<stop stop-color="#65686A"/>
<stop offset="1" stop-color="#5F6263"/>
</linearGradient>
<linearGradient id="paint3_linear_3_137" x1="345" y1="8" x2="345" y2="30" gradientUnits="userSpaceOnUse">
<stop stop-color="#65686A"/>
<stop offset="1" stop-color="#5F6263"/>
</linearGradient>
<linearGradient id="paint4_linear_3_137" x1="138" y1="8" x2="138" y2="30" gradientUnits="userSpaceOnUse">
<stop stop-color="#65686A"/>
<stop offset="1" stop-color="#5F6263"/>
</linearGradient>
<linearGradient id="paint5_linear_3_137" x1="103" y1="8" x2="103" y2="30" gradientUnits="userSpaceOnUse">
<stop stop-color="#65686A"/>
<stop offset="1" stop-color="#5F6263"/>
</linearGradient>
<linearGradient id="paint6_linear_3_137" x1="77" y1="8" x2="77" y2="30" gradientUnits="userSpaceOnUse">
<stop stop-color="#65686A"/>
<stop offset="1" stop-color="#5F6263"/>
</linearGradient>
</defs>
</svg>
