<svg width="1279" height="38" viewBox="0 0 1279 38" fill="none" xmlns="http://www.w3.org/2000/svg">
<path d="M0 6.4C0 4.15979 0 3.03969 0.435974 2.18404C0.819467 1.43139 1.43139 0.819467 2.18404 0.435974C3.03969 0 4.15979 0 6.4 0H1272.6C1274.84 0 1275.96 0 1276.82 0.435974C1277.57 0.819467 1278.18 1.43139 1278.56 2.18404C1279 3.03969 1279 4.15979 1279 6.4V37H0V6.4Z" fill="url(#paint0_linear_3_137)"/>
<rect opacity="0.95" y="37" width="1278" height="1" fill="black"/>
<g filter="url(#filter0_i_3_137)">
<rect x="1209" y="8" width="37" height="22" rx="3" fill="url(#paint1_linear_3_137)"/>
</g>
<rect x="1222.5" y="16.5" width="8" height="8" rx="0.5" stroke="#E9E9EA"/>
<mask id="path-5-inside-1_3_137" fill="white">
<path d="M1225 14.6V15H1226V14H1233V21H1232V22H1232.4C1232.96 22 1233.24 22 1233.45 21.891C1233.64 21.7951 1233.8 21.6422 1233.89 21.454C1234 21.2401 1234 20.9601 1234 20.4V14.6C1234 14.0399 1234 13.7599 1233.89 13.546C1233.8 13.3578 1233.64 13.2049 1233.45 13.109C1233.24 13 1232.96 13 1232.4 13H1226.6C1226.04 13 1225.76 13 1225.55 13.109C1225.36 13.2049 1225.2 13.3578 1225.11 13.546C1225 13.7599 1225 14.0399 1225 14.6Z"/>
</mask>
<path d="M1225 15H1224V16H1225V15ZM1232 22H1231V23H1232V22ZM1232 21V20H1231V21H1232ZM1233 21V22H1234V21H1233ZM1233 14H1234V13H1233V14ZM1226 14V13H1225V14H1226ZM1226 15V16H1227V15H1226ZM1233.89 21.454L1233 21L1233 21L1233.89 21.454ZM1233.45 21.891L1233 21L1233 21L1233.45 21.891ZM1233.45 13.109L1233.91 12.218L1233.91 12.218L1233.45 13.109ZM1233.89 13.546L1233 14L1233 14L1233.89 13.546ZM1225.11 13.546L1224.22 13.092L1224.22 13.092L1225.11 13.546ZM1225.55 13.109L1225.09 12.218L1225.09 12.218L1225.55 13.109ZM1226 15V14.6H1224V15H1226ZM1226.6 14H1232.4V12H1226.6V14ZM1233 14.6V20.4H1235V14.6H1233ZM1232.4 21H1232V23H1232.4V21ZM1233 22V21H1231V22H1233ZM1232 22H1233V20H1232V22ZM1234 21V14H1232V21H1234ZM1233 13H1226V15H1233V13ZM1225 14V15H1227V14H1225ZM1226 14H1225V16H1226V14ZM1233 20.4C1233 20.6965 1233 20.8588 1232.99 20.9754C1232.98 21.0803 1232.97 21.0575 1233 21L1234.78 21.908C1234.92 21.6366 1234.96 21.3668 1234.98 21.1382C1235 20.9213 1235 20.6635 1235 20.4H1233ZM1232.4 23C1232.66 23 1232.92 23.0008 1233.14 22.9831C1233.37 22.9644 1233.64 22.9203 1233.91 22.782L1233 21C1233.06 20.9707 1233.08 20.9811 1232.98 20.9897C1232.86 20.9992 1232.7 21 1232.4 21V23ZM1233 21L1233 21L1233.91 22.782C1234.28 22.5903 1234.59 22.2843 1234.78 21.908L1233 21ZM1232.4 14C1232.7 14 1232.86 14.0008 1232.98 14.0103C1233.08 14.0189 1233.06 14.0293 1233 14L1233.91 12.218C1233.64 12.0797 1233.37 12.0356 1233.14 12.0169C1232.92 11.9992 1232.66 12 1232.4 12V14ZM1235 14.6C1235 14.3365 1235 14.0787 1234.98 13.8618C1234.96 13.6332 1234.92 13.3634 1234.78 13.092L1233 14C1232.97 13.9425 1232.98 13.9197 1232.99 14.0246C1233 14.1412 1233 14.3035 1233 14.6H1235ZM1233 14L1233 14L1234.78 13.092C1234.59 12.7157 1234.28 12.4097 1233.91 12.218L1233 14ZM1226 14.6C1226 14.3035 1226 14.1412 1226.01 14.0246C1226.02 13.9197 1226.03 13.9425 1226 14L1224.22 13.092C1224.08 13.3634 1224.04 13.6332 1224.02 13.8618C1224 14.0787 1224 14.3365 1224 14.6H1226ZM1226.6 12C1226.34 12 1226.08 11.9992 1225.86 12.0169C1225.63 12.0356 1225.36 12.0797 1225.09 12.218L1226 14C1225.94 14.0293 1225.92 14.0189 1226.02 14.0103C1226.14 14.0008 1226.3 14 1226.6 14V12ZM1226 14L1225.09 12.218C1224.72 12.4097 1224.41 12.7157 1224.22 13.092L1226 14Z" fill="#E9E9EA" mask="url(#path-5-inside-1_3_137)"/>
<g filter="url(#filter1_i_3_137)">
<rect x="1164" y="8" width="37" height="22" rx="3" fill="url(#paint2_linear_3_137)"/>
</g>
<path d="M1178 25H1187C1187 25 1187 16.9983 1187 16.9983L1184 17V16H1186.99C1187.56 16 1188 16.4457 1188 16.9954V25.0046C1188 25.5443 1187.55 26 1187 26H1178C1177.44 26 1177 25.5543 1177 25.0046V16.9954C1177 16.4557 1177.45 16 1178.01 16H1181V17H1178.01C1178.01 17 1178 25 1178 25Z" fill="#8B8D8F"/>
<path d="M1182.49 12.3434L1179.95 14.9149C1179.76 15.1003 1179.47 15.1003 1179.28 14.9149C1179.1 14.7294 1179.1 14.4287 1179.28 14.2432L1182.15 11.3358C1182.34 11.1504 1182.63 11.1504 1182.82 11.3358L1185.69 14.2432C1185.87 14.4287 1185.87 14.7294 1185.69 14.9149C1185.51 15.1003 1185.21 15.1003 1185.03 14.9149L1182.49 12.3434Z" fill="#8B8D8F"/>
<path d="M1182 12H1183V21H1182V12Z" fill="#8B8D8F"/>
<g filter="url(#filter2_i_3_137)">
<rect x="345" y="8" width="590" height="22" rx="4" fill="url(#paint3_linear_3_137)"/>
</g>
<mask id="path-12-outside-2_3_137" maskUnits="userSpaceOnUse" x="609" y="13" width="76" height="15" fill="black">
<rect fill="white" x="609" y="13" width="76" height="15"/>
<path d="M615.938 24H610.664V15.5449H611.977V22.793H615.938V24ZM619.658 23.0039C620.201 23.0039 620.623 22.8105 620.923 22.4238C621.22 22.041 621.369 21.502 621.369 20.8066C621.369 20.1152 621.22 19.5762 620.923 19.1895C620.623 18.8066 620.201 18.6152 619.658 18.6152C619.111 18.6152 618.689 18.8066 618.392 19.1895C618.095 19.5723 617.947 20.1113 617.947 20.8066C617.947 21.5059 618.095 22.0469 618.392 22.4297C618.689 22.8125 619.111 23.0039 619.658 23.0039ZM619.658 24.123C618.72 24.123 617.984 23.8281 617.449 23.2383C616.914 22.6484 616.646 21.8379 616.646 20.8066C616.646 19.7793 616.916 18.9707 617.455 18.3809C617.99 17.791 618.724 17.4961 619.658 17.4961C620.588 17.4961 621.32 17.791 621.855 18.3809C622.394 18.9707 622.664 19.7793 622.664 20.8066C622.664 21.8379 622.396 22.6484 621.861 23.2383C621.326 23.8281 620.591 24.123 619.658 24.123ZM623.981 17.6191H625.194V18.5977H625.288C625.378 18.2812 625.583 18.0215 625.903 17.8184C626.223 17.6152 626.591 17.5137 627.005 17.5137C627.243 17.5137 627.429 17.5312 627.561 17.5664V18.8086C627.417 18.7578 627.184 18.7324 626.864 18.7324C626.387 18.7324 625.999 18.8711 625.698 19.1484C625.393 19.4258 625.241 19.7871 625.241 20.2324V24H623.981V17.6191ZM631.029 18.5684C630.564 18.5684 630.182 18.7188 629.881 19.0195C629.58 19.3203 629.412 19.7207 629.377 20.2207H632.6C632.584 19.7168 632.436 19.3164 632.154 19.0195C631.869 18.7188 631.494 18.5684 631.029 18.5684ZM633.807 22.2773C633.662 22.8516 633.348 23.3027 632.863 23.6309C632.375 23.959 631.768 24.123 631.041 24.123C630.127 24.123 629.408 23.8281 628.885 23.2383C628.357 22.6523 628.094 21.8496 628.094 20.8301C628.094 19.8105 628.359 19 628.891 18.3984C629.422 17.7969 630.137 17.4961 631.035 17.4961C631.922 17.4961 632.619 17.7812 633.127 18.3516C633.631 18.9219 633.883 19.709 633.883 20.7129V21.1523H629.377V21.2227C629.396 21.7852 629.559 22.2305 629.863 22.5586C630.168 22.8867 630.572 23.0508 631.076 23.0508C631.846 23.0508 632.352 22.793 632.594 22.2773H633.807ZM635.195 17.6191H636.407V18.6445H636.501C636.798 17.8789 637.39 17.4961 638.277 17.4961C639.14 17.4961 639.726 17.8789 640.034 18.6445H640.134C640.298 18.293 640.552 18.0137 640.896 17.8066C641.243 17.5996 641.636 17.4961 642.073 17.4961C642.718 17.4961 643.22 17.6816 643.579 18.0527C643.935 18.4238 644.113 18.9414 644.113 19.6055V24H642.853V19.9336C642.853 19.0781 642.441 18.6504 641.616 18.6504C641.214 18.6504 640.888 18.7793 640.638 19.0371C640.392 19.2871 640.269 19.6035 640.269 19.9863V24H639.032V19.8105C639.032 19.4512 638.921 19.168 638.698 18.9609C638.476 18.7539 638.177 18.6504 637.802 18.6504C637.419 18.6504 637.099 18.7891 636.841 19.0664C636.583 19.3438 636.454 19.6875 636.454 20.0977V24H635.195V17.6191ZM645.705 21.2109V19.9746H649.549V21.2109H645.705ZM651.224 17.6191H652.478V24H651.224V17.6191ZM651.851 16.5C651.617 16.5 651.423 16.4258 651.271 16.2773C651.115 16.1328 651.037 15.9512 651.037 15.7324C651.037 15.5137 651.115 15.3301 651.271 15.1816C651.423 15.0332 651.617 14.959 651.851 14.959C652.086 14.959 652.281 15.0332 652.437 15.1816C652.589 15.3301 652.666 15.5137 652.666 15.7324C652.666 15.9512 652.589 16.1328 652.437 16.2773C652.281 16.4258 652.086 16.5 651.851 16.5ZM657.44 17.5137C658.253 17.5137 658.897 17.8086 659.374 18.3984C659.85 18.9922 660.089 19.7949 660.089 20.8066C660.089 21.8184 659.85 22.6211 659.374 23.2148C658.901 23.8086 658.261 24.1055 657.452 24.1055C656.499 24.1055 655.845 23.748 655.489 23.0332H655.389V26.0684H654.13V17.6191H655.343V18.6738H655.436C655.628 18.3105 655.901 18.0254 656.257 17.8184C656.612 17.6152 657.007 17.5137 657.44 17.5137ZM657.083 22.9746C657.618 22.9746 658.038 22.7832 658.343 22.4004C658.643 22.0137 658.794 21.4824 658.794 20.8066C658.794 20.1309 658.643 19.6016 658.343 19.2188C658.038 18.8359 657.62 18.6445 657.089 18.6445C656.557 18.6445 656.137 18.8379 655.829 19.2246C655.52 19.6152 655.366 20.1445 655.366 20.8125C655.366 21.4766 655.52 22.0039 655.829 22.3945C656.137 22.7812 656.555 22.9746 657.083 22.9746ZM661.26 19.4238C661.26 18.8613 661.492 18.3984 661.957 18.0352C662.422 17.6758 663.016 17.4961 663.738 17.4961C664.457 17.4961 665.037 17.6543 665.479 17.9707C665.92 18.2871 666.172 18.7266 666.234 19.2891H665.027C664.898 18.7773 664.469 18.5215 663.738 18.5215C663.383 18.5215 663.09 18.5977 662.859 18.75C662.621 18.9062 662.502 19.1074 662.502 19.3535C662.502 19.7168 662.84 19.9766 663.516 20.1328L664.576 20.3789C665.189 20.5195 665.639 20.7266 665.924 21C666.213 21.2812 666.357 21.6543 666.357 22.1191C666.357 22.7129 666.107 23.1973 665.607 23.5723C665.115 23.9395 664.484 24.123 663.715 24.123C662.957 24.123 662.346 23.9609 661.881 23.6367C661.412 23.3164 661.15 22.873 661.096 22.3066H662.355C662.527 22.8379 662.99 23.1035 663.744 23.1035C664.139 23.1035 664.461 23.0234 664.711 22.8633C664.961 22.7031 665.086 22.4961 665.086 22.2422C665.086 21.8711 664.773 21.6113 664.148 21.4629L663.035 21.2051C662.426 21.0605 661.979 20.8457 661.693 20.5605C661.404 20.2754 661.26 19.8965 661.26 19.4238ZM673.177 24H671.97V22.9863H671.87C671.546 23.7441 670.88 24.123 669.872 24.123C669.161 24.123 668.609 23.916 668.214 23.502C667.816 23.0879 667.616 22.5039 667.616 21.75V17.6191H668.876V21.4336C668.876 22.4492 669.345 22.957 670.282 22.957C670.79 22.957 671.191 22.8145 671.484 22.5293C671.777 22.2441 671.923 21.8516 671.923 21.3516V17.6191H673.177V24ZM674.811 17.6191H676.024V18.6445H676.118C676.414 17.8789 677.006 17.4961 677.893 17.4961C678.756 17.4961 679.342 17.8789 679.651 18.6445H679.75C679.914 18.293 680.168 18.0137 680.512 17.8066C680.86 17.5996 681.252 17.4961 681.69 17.4961C682.334 17.4961 682.836 17.6816 683.196 18.0527C683.551 18.4238 683.729 18.9414 683.729 19.6055V24H682.469V19.9336C682.469 19.0781 682.057 18.6504 681.233 18.6504C680.83 18.6504 680.504 18.7793 680.254 19.0371C680.008 19.2871 679.885 19.6035 679.885 19.9863V24H678.649V19.8105C678.649 19.4512 678.538 19.168 678.315 18.9609C678.092 18.7539 677.793 18.6504 677.418 18.6504C677.036 18.6504 676.715 18.7891 676.457 19.0664C676.2 19.3438 676.071 19.6875 676.071 20.0977V24H674.811V17.6191Z"/>
</mask>
<path d="M615.938 24H610.664V15.5449H611.977V22.793H615.938V24ZM619.658 23.0039C620.201 23.0039 620.623 22.8105 620.923 22.4238C621.22 22.041 621.369 21.502 621.369 20.8066C621.369 20.1152 621.22 19.5762 620.923 19.1895C620.623 18.8066 620.201 18.6152 619.658 18.6152C619.111 18.6152 618.689 18.8066 618.392 19.1895C618.095 19.5723 617.947 20.1113 617.947 20.8066C617.947 21.5059 618.095 22.0469 618.392 22.4297C618.689 22.8125 619.111 23.0039 619.658 23.0039ZM619.658 24.123C618.72 24.123 617.984 23.8281 617.449 23.2383C616.914 22.6484 616.646 21.8379 616.646 20.8066C616.646 19.7793 616.916 18.9707 617.455 18.3809C617.99 17.791 618.724 17.4961 619.658 17.4961C620.588 17.4961 621.32 17.791 621.855 18.3809C622.394 18.9707 622.664 19.7793 622.664 20.8066C622.664 21.8379 622.396 22.6484 621.861 23.2383C621.326 23.8281 620.591 24.123 619.658 24.123ZM623.981 17.6191H625.194V18.5977H625.288C625.378 18.2812 625.583 18.0215 625.903 17.8184C626.223 17.6152 626.591 17.5137 627.005 17.5137C627.243 17.5137 627.429 17.5312 627.561 17.5664V18.8086C627.417 18.7578 627.184 18.7324 626.864 18.7324C626.387 18.7324 625.999 18.8711 625.698 19.1484C625.393 19.4258 625.241 19.7871 625.241 20.2324V24H623.981V17.6191ZM631.029 18.5684C630.564 18.5684 630.182 18.7188 629.881 19.0195C629.58 19.3203 629.412 19.7207 629.377 20.2207H632.6C632.584 19.7168 632.436 19.3164 632.154 19.0195C631.869 18.7188 631.494 18.5684 631.029 18.5684ZM633.807 22.2773C633.662 22.8516 633.348 23.3027 632.863 23.6309C632.375 23.959 631.768 24.123 631.041 24.123C630.127 24.123 629.408 23.8281 628.885 23.2383C628.357 22.6523 628.094 21.8496 628.094 20.8301C628.094 19.8105 628.359 19 628.891 18.3984C629.422 17.7969 630.137 17.4961 631.035 17.4961C631.922 17.4961 632.619 17.7812 633.127 18.3516C633.631 18.9219 633.883 19.709 633.883 20.7129V21.1523H629.377V21.2227C629.396 21.7852 629.559 22.2305 629.863 22.5586C630.168 22.8867 630.572 23.0508 631.076 23.0508C631.846 23.0508 632.352 22.793 632.594 22.2773H633.807ZM635.195 17.6191H636.407V18.6445H636.501C636.798 17.8789 637.39 17.4961 638.277 17.4961C639.14 17.4961 639.726 17.8789 640.034 18.6445H640.134C640.298 18.293 640.552 18.0137 640.896 17.8066C641.243 17.5996 641.636 17.4961 642.073 17.4961C642.718 17.4961 643.22 17.6816 643.579 18.0527C643.935 18.4238 644.113 18.9414 644.113 19.6055V24H642.853V19.9336C642.853 19.0781 642.441 18.6504 641.616 18.6504C641.214 18.6504 640.888 18.7793 640.638 19.0371C640.392 19.2871 640.269 19.6035 640.269 19.9863V24H639.032V19.8105C639.032 19.4512 638.921 19.168 638.698 18.9609C638.476 18.7539 638.177 18.6504 637.802 18.6504C637.419 18.6504 637.099 18.7891 636.841 19.0664C636.583 19.3438 636.454 19.6875 636.454 20.0977V24H635.195V17.6191ZM645.705 21.2109V19.9746H649.549V21.2109H645.705ZM651.224 17.6191H652.478V24H651.224V17.6191ZM651.851 16.5C651.617 16.5 651.423 16.4258 651.271 16.2773C651.115 16.1328 651.037 15.9512 651.037 15.7324C651.037 15.5137 651.115 15.3301 651.271 15.1816C651.423 15.0332 651.617 14.959 651.851 14.959C652.086 14.959 652.281 15.0332 652.437 15.1816C652.589 15.3301 652.666 15.5137 652.666 15.7324C652.666 15.9512 652.589 16.1328 652.437 16.2773C652.281 16.4258 652.086 16.5 651.851 16.5ZM657.44 17.5137C658.253 17.5137 658.897 17.8086 659.374 18.3984C659.85 18.9922 660.089 19.7949 660.089 20.8066C660.089 21.8184 659.85 22.6211 659.374 23.2148C658.901 23.8086 658.261 24.1055 657.452 24.1055C656.499 24.1055 655.845 23.748 655.489 23.0332H655.389V26.0684H654.13V17.6191H655.343V18.6738H655.436C655.628 18.3105 655.901 18.0254 656.257 17.8184C656.612 17.6152 657.007 17.5137 657.44 17.5137ZM657.083 22.9746C657.618 22.9746 658.038 22.7832 658.343 22.4004C658.643 22.0137 658.794 21.4824 658.794 20.8066C658.794 20.1309 658.643 19.6016 658.343 19.2188C658.038 18.8359 657.62 18.6445 657.089 18.6445C656.557 18.6445 656.137 18.8379 655.829 19.2246C655.52 19.6152 655.366 20.1445 655.366 20.8125C655.366 21.4766 655.52 22.0039 655.829 22.3945C656.137 22.7812 656.555 22.9746 657.083 22.9746ZM661.26 19.4238C661.26 18.8613 661.492 18.3984 661.957 18.0352C662.422 17.6758 663.016 17.4961 663.738 17.4961C664.457 17.4961 665.037 17.6543 665.479 17.9707C665.92 18.2871 666.172 18.7266 666.234 19.2891H665.027C664.898 18.7773 664.469 18.5215 663.738 18.5215C663.383 18.5215 663.09 18.5977 662.859 18.75C662.621 18.9062 662.502 19.1074 662.502 19.3535C662.502 19.7168 662.84 19.9766 663.516 20.1328L664.576 20.3789C665.189 20.5195 665.639 20.7266 665.924 21C666.213 21.2812 666.357 21.6543 666.357 22.1191C666.357 22.7129 666.107 23.1973 665.607 23.5723C665.115 23.9395 664.484 24.123 663.715 24.123C662.957 24.123 662.346 23.9609 661.881 23.6367C661.412 23.3164 661.15 22.873 661.096 22.3066H662.355C662.527 22.8379 662.99 23.1035 663.744 23.1035C664.139 23.1035 664.461 23.0234 664.711 22.8633C664.961 22.7031 665.086 22.4961 665.086 22.2422C665.086 21.8711 664.773 21.6113 664.148 21.4629L663.035 21.2051C662.426 21.0605 661.979 20.8457 661.693 20.5605C661.404 20.2754 661.26 19.8965 661.26 19.4238ZM673.177 24H671.97V22.9863H671.87C671.546 23.7441 670.88 24.123 669.872 24.123C669.161 24.123 668.609 23.916 668.214 23.502C667.816 23.0879 667.616 22.5039 667.616 21.75V17.6191H668.876V21.4336C668.876 22.4492 669.345 22.957 670.282 22.957C670.79 22.957 671.191 22.8145 671.484 22.5293C671.777 22.2441 671.923 21.8516 671.923 21.3516V17.6191H673.177V24ZM674.811 17.6191H676.024V18.6445H676.118C676.414 17.8789 677.006 17.4961 677.893 17.4961C678.756 17.4961 679.342 17.8789 679.651 18.6445H679.75C679.914 18.293 680.168 18.0137 680.512 17.8066C680.86 17.5996 681.252 17.4961 681.69 17.4961C682.334 17.4961 682.836 17.6816 683.196 18.0527C683.551 18.4238 683.729 18.9414 683.729 19.6055V24H682.469V19.9336C682.469 19.0781 682.057 18.6504 681.233 18.6504C680.83 18.6504 680.504 18.7793 680.254 19.0371C680.008 19.2871 679.885 19.6035 679.885 19.9863V24H678.649V19.8105C678.649 19.4512 678.538 19.168 678.315 18.9609C678.092 18.7539 677.793 18.6504 677.418 18.6504C677.036 18.6504 676.715 18.7891 676.457 19.0664C676.2 19.3438 676.071 19.6875 676.071 20.0977V24H674.811V17.6191Z" fill="#E9E9EA"/>
<path d="M615.938 24V25H616.938V24H615.938ZM610.664 24H609.664V25H610.664V24ZM610.664 15.5449V14.5449H609.664V15.5449H610.664ZM611.977 15.5449H612.977V14.5449H611.977V15.5449ZM611.977 22.793H610.977V23.793H611.977V22.793ZM615.938 22.793H616.938V21.793H615.938V22.793ZM615.938 23H610.664V25H615.938V23ZM611.664 24V15.5449H609.664V24H611.664ZM610.664 16.5449H611.977V14.5449H610.664V16.5449ZM610.977 15.5449V22.793H612.977V15.5449H610.977ZM611.977 23.793H615.938V21.793H611.977V23.793ZM614.938 22.793V24H616.938V22.793H614.938ZM620.923 22.4238L621.713 23.0378L621.714 23.0367L620.923 22.4238ZM620.923 19.1895L621.717 18.5805L621.71 18.5716L620.923 19.1895ZM617.455 18.3809L618.193 19.0555L618.195 19.0528L617.455 18.3809ZM621.855 18.3809L621.114 19.0528L621.117 19.0555L621.855 18.3809ZM619.658 24.0039C620.471 24.0039 621.2 23.6967 621.713 23.0378L620.134 21.8099C620.045 21.9244 619.93 22.0039 619.658 22.0039V24.0039ZM621.714 23.0367C622.195 22.4166 622.369 21.6301 622.369 20.8066H620.369C620.369 21.3738 620.246 21.6655 620.133 21.811L621.714 23.0367ZM622.369 20.8066C622.369 19.9847 622.194 19.2017 621.717 18.5805L620.13 19.7984C620.247 19.9506 620.369 20.2458 620.369 20.8066H622.369ZM621.71 18.5716C621.196 17.9175 620.467 17.6152 619.658 17.6152V19.6152C619.934 19.6152 620.05 19.6958 620.137 19.8073L621.71 18.5716ZM619.658 17.6152C618.847 17.6152 618.114 17.9158 617.602 18.5766L619.182 19.8023C619.264 19.6974 619.375 19.6152 619.658 19.6152V17.6152ZM617.602 18.5766C617.121 19.1967 616.947 19.9832 616.947 20.8066H618.947C618.947 20.2395 619.07 19.9478 619.182 19.8023L617.602 18.5766ZM616.947 20.8066C616.947 21.6325 617.12 22.4216 617.602 23.0425L619.182 21.8169C619.07 21.6722 618.947 21.3793 618.947 20.8066H616.947ZM617.602 23.0425C618.114 23.7033 618.847 24.0039 619.658 24.0039V22.0039C619.375 22.0039 619.264 21.9217 619.182 21.8169L617.602 23.0425ZM619.658 23.123C618.948 23.123 618.501 22.91 618.189 22.5663L616.708 23.9102C617.467 24.7463 618.493 25.123 619.658 25.123V23.123ZM618.189 22.5663C617.866 22.2095 617.646 21.6648 617.646 20.8066H615.646C615.646 22.011 615.962 23.0873 616.708 23.9102L618.189 22.5663ZM617.646 20.8066C617.646 19.9553 617.866 19.4131 618.193 19.0555L616.717 17.7062C615.965 18.5283 615.646 19.6033 615.646 20.8066H617.646ZM618.195 19.0528C618.508 18.7083 618.953 18.4961 619.658 18.4961V16.4961C618.495 16.4961 617.472 16.8738 616.714 17.7089L618.195 19.0528ZM619.658 18.4961C620.357 18.4961 620.801 18.7074 621.114 19.0528L622.596 17.7089C621.839 16.8747 620.818 16.4961 619.658 16.4961V18.4961ZM621.117 19.0555C621.444 19.4131 621.664 19.9553 621.664 20.8066H623.664C623.664 19.6033 623.345 18.5283 622.593 17.7062L621.117 19.0555ZM621.664 20.8066C621.664 21.6648 621.444 22.2095 621.12 22.5663L622.602 23.9102C623.348 23.0873 623.664 22.011 623.664 20.8066H621.664ZM621.12 22.5663C620.808 22.9109 620.363 23.123 619.658 23.123V25.123C620.82 25.123 621.844 24.7454 622.602 23.9102L621.12 22.5663ZM623.981 17.6191V16.6191H622.981V17.6191H623.981ZM625.194 17.6191H626.194V16.6191H625.194V17.6191ZM625.194 18.5977H624.194V19.5977H625.194V18.5977ZM625.288 18.5977V19.5977H626.043L626.25 18.8708L625.288 18.5977ZM627.561 17.5664H628.561V16.7967L627.817 16.5997L627.561 17.5664ZM627.561 18.8086L627.23 19.7521L628.561 20.2199V18.8086H627.561ZM625.698 19.1484L626.371 19.888L626.376 19.8836L625.698 19.1484ZM625.241 24V25H626.241V24H625.241ZM623.981 24H622.981V25H623.981V24ZM623.981 18.6191H625.194V16.6191H623.981V18.6191ZM624.194 17.6191V18.5977H626.194V17.6191H624.194ZM625.194 19.5977H625.288V17.5977H625.194V19.5977ZM626.25 18.8708C626.262 18.8267 626.292 18.7559 626.439 18.6629L625.368 16.9739C624.874 17.2871 624.493 17.7358 624.326 18.3245L626.25 18.8708ZM626.439 18.6629C626.584 18.5706 626.762 18.5137 627.005 18.5137V16.5137C626.419 16.5137 625.863 16.6599 625.368 16.9739L626.439 18.6629ZM627.005 18.5137C627.101 18.5137 627.174 18.5173 627.228 18.5224C627.284 18.5277 627.307 18.5335 627.305 18.5331L627.817 16.5997C627.562 16.532 627.276 16.5137 627.005 16.5137V18.5137ZM626.561 17.5664V18.8086H628.561V17.5664H626.561ZM627.893 17.8651C627.579 17.7547 627.202 17.7324 626.864 17.7324V19.7324C627 19.7324 627.1 19.7379 627.17 19.7456C627.246 19.7538 627.257 19.7615 627.23 19.7521L627.893 17.8651ZM626.864 17.7324C626.18 17.7324 625.536 17.9379 625.02 18.4133L626.376 19.8836C626.462 19.8043 626.595 19.7324 626.864 19.7324V17.7324ZM625.025 18.4089C624.494 18.8923 624.241 19.5311 624.241 20.2324H626.241C626.241 20.0431 626.293 19.9593 626.371 19.8879L625.025 18.4089ZM624.241 20.2324V24H626.241V20.2324H624.241ZM625.241 23H623.981V25H625.241V23ZM624.981 24V17.6191H622.981V24H624.981ZM629.377 20.2207L628.379 20.1506L628.304 21.2207H629.377V20.2207ZM632.6 20.2207V21.2207H633.631L633.599 20.1897L632.6 20.2207ZM632.154 19.0195L632.88 18.3318L632.88 18.3315L632.154 19.0195ZM633.807 22.2773L634.776 22.5214L635.09 21.2773H633.807V22.2773ZM632.863 23.6309L633.421 24.4609L633.424 24.4588L632.863 23.6309ZM628.885 23.2383L629.633 22.5745L629.628 22.5693L628.885 23.2383ZM633.127 18.3516L633.876 17.6894L633.874 17.6866L633.127 18.3516ZM633.883 21.1523V22.1523H634.883V21.1523H633.883ZM629.377 21.1523V20.1523H628.377V21.1523H629.377ZM629.377 21.2227H628.377V21.24L628.378 21.2574L629.377 21.2227ZM632.594 22.2773V21.2773H631.959L631.689 21.8522L632.594 22.2773ZM631.029 17.5684C630.326 17.5684 629.68 17.8058 629.174 18.3124L630.588 19.7266C630.683 19.6317 630.803 19.5684 631.029 19.5684V17.5684ZM629.174 18.3124C628.673 18.8131 628.428 19.4554 628.379 20.1506L630.374 20.2908C630.396 19.986 630.487 19.8275 630.588 19.7266L629.174 18.3124ZM629.377 21.2207H632.6V19.2207H629.377V21.2207ZM633.599 20.1897C633.578 19.5002 633.367 18.8456 632.88 18.3318L631.428 19.7073C631.504 19.7872 631.59 19.9333 631.6 20.2517L633.599 20.1897ZM632.88 18.3315C632.382 17.8064 631.732 17.5684 631.029 17.5684V19.5684C631.256 19.5684 631.356 19.6311 631.429 19.7075L632.88 18.3315ZM632.837 22.0333C632.752 22.3724 632.581 22.6144 632.302 22.8029L633.424 24.4588C634.115 23.991 634.573 23.3307 634.776 22.5214L632.837 22.0333ZM632.306 22.8009C632.017 22.9946 631.616 23.123 631.041 23.123V25.123C631.919 25.123 632.733 24.9234 633.421 24.4609L632.306 22.8009ZM631.041 23.123C630.363 23.123 629.935 22.9157 629.633 22.5745L628.137 23.902C628.881 24.7406 629.891 25.123 631.041 25.123V23.123ZM629.628 22.5693C629.31 22.2157 629.094 21.6771 629.094 20.8301H627.094C627.094 22.0222 627.405 23.089 628.141 23.9072L629.628 22.5693ZM629.094 20.8301C629.094 19.9864 629.31 19.434 629.64 19.0604L628.141 17.7365C627.408 18.566 627.094 19.6347 627.094 20.8301H629.094ZM629.64 19.0604C629.958 18.7008 630.385 18.4961 631.035 18.4961V16.4961C629.888 16.4961 628.886 16.8929 628.141 17.7365L629.64 19.0604ZM631.035 18.4961C631.687 18.4961 632.093 18.6945 632.38 19.0166L633.874 17.6866C633.145 16.868 632.157 16.4961 631.035 16.4961V18.4961ZM632.378 19.0137C632.674 19.3495 632.883 19.8736 632.883 20.7129H634.883C634.883 19.5443 634.587 18.4943 633.876 17.6894L632.378 19.0137ZM632.883 20.7129V21.1523H634.883V20.7129H632.883ZM633.883 20.1523H629.377V22.1523H633.883V20.1523ZM628.377 21.1523V21.2227H630.377V21.1523H628.377ZM628.378 21.2574C628.403 21.9964 628.623 22.693 629.13 23.239L630.596 21.8781C630.494 21.7679 630.39 21.5739 630.376 21.188L628.378 21.2574ZM629.13 23.239C629.649 23.7975 630.333 24.0508 631.076 24.0508V22.0508C630.812 22.0508 630.687 21.9759 630.596 21.8781L629.13 23.239ZM631.076 24.0508C632.073 24.0508 633.033 23.6938 633.499 22.7025L631.689 21.8522C631.662 21.9097 631.633 21.9388 631.579 21.9665C631.507 22.0028 631.356 22.0508 631.076 22.0508V24.0508ZM632.594 23.2773H633.807V21.2773H632.594V23.2773ZM635.195 17.6191V16.6191H634.195V17.6191H635.195ZM636.407 17.6191H637.407V16.6191H636.407V17.6191ZM636.407 18.6445H635.407V19.6445H636.407V18.6445ZM636.501 18.6445V19.6445H637.186L637.434 19.0061L636.501 18.6445ZM640.034 18.6445L639.107 19.0184L639.359 19.6445H640.034V18.6445ZM640.134 18.6445V19.6445H640.771L641.04 19.0674L640.134 18.6445ZM640.896 17.8066L640.384 16.9474L640.38 16.95L640.896 17.8066ZM643.579 18.0527L644.301 17.361L644.298 17.3571L643.579 18.0527ZM644.113 24V25H645.113V24H644.113ZM642.853 24H641.853V25H642.853V24ZM640.638 19.0371L641.351 19.7386L641.356 19.7333L640.638 19.0371ZM640.269 24V25H641.269V24H640.269ZM639.032 24H638.032V25H639.032V24ZM636.454 24V25H637.454V24H636.454ZM635.195 24H634.195V25H635.195V24ZM635.195 18.6191H636.407V16.6191H635.195V18.6191ZM635.407 17.6191V18.6445H637.407V17.6191H635.407ZM636.407 19.6445H636.501V17.6445H636.407V19.6445ZM637.434 19.0061C637.519 18.7861 637.62 18.6818 637.711 18.6228C637.808 18.5601 637.976 18.4961 638.277 18.4961V16.4961C637.69 16.4961 637.119 16.6235 636.625 16.9436C636.124 17.2675 635.78 17.7373 635.569 18.283L637.434 19.0061ZM638.277 18.4961C638.559 18.4961 638.721 18.5576 638.817 18.6204C638.909 18.6809 639.015 18.7904 639.107 19.0184L640.962 18.2707C640.745 17.7331 640.404 17.2683 639.91 16.946C639.421 16.626 638.857 16.4961 638.277 16.4961V18.4961ZM640.034 19.6445H640.134V17.6445H640.034V19.6445ZM641.04 19.0674C641.117 18.9025 641.232 18.7715 641.412 18.6633L640.38 16.95C639.872 17.2559 639.479 17.6835 639.228 18.2216L641.04 19.0674ZM641.407 18.6658C641.588 18.5584 641.801 18.4961 642.073 18.4961V16.4961C641.471 16.4961 640.899 16.6408 640.384 16.9474L641.407 18.6658ZM642.073 18.4961C642.518 18.4961 642.734 18.6177 642.861 18.7484L644.298 17.3571C643.706 16.7456 642.918 16.4961 642.073 16.4961V18.4961ZM642.857 18.7445C642.987 18.8797 643.113 19.121 643.113 19.6055H645.113C645.113 18.7618 644.883 17.9679 644.301 17.361L642.857 18.7445ZM643.113 19.6055V24H645.113V19.6055H643.113ZM644.113 23H642.853V25H644.113V23ZM643.853 24V19.9336H641.853V24H643.853ZM643.853 19.9336C643.853 19.3608 643.715 18.746 643.264 18.2774C642.806 17.8018 642.192 17.6504 641.616 17.6504V19.6504C641.865 19.6504 641.87 19.7128 641.824 19.665C641.784 19.6242 641.853 19.6509 641.853 19.9336H643.853ZM641.616 17.6504C640.979 17.6504 640.382 17.8647 639.92 18.341L641.356 19.7333C641.394 19.6939 641.449 19.6504 641.616 19.6504V17.6504ZM639.925 18.3356C639.477 18.7906 639.269 19.3673 639.269 19.9863H641.269C641.269 19.8397 641.306 19.7836 641.351 19.7386L639.925 18.3356ZM639.269 19.9863V24H641.269V19.9863H639.269ZM640.269 23H639.032V25H640.269V23ZM640.032 24V19.8105H638.032V24H640.032ZM640.032 19.8105C640.032 19.2284 639.843 18.6593 639.379 18.2286L638.017 19.6933C638.02 19.6955 638.019 19.6955 638.018 19.6935C638.017 19.6916 638.017 19.6913 638.018 19.6945C638.021 19.7005 638.032 19.7339 638.032 19.8105H640.032ZM639.379 18.2286C638.931 17.8116 638.368 17.6504 637.802 17.6504V19.6504C637.898 19.6504 637.953 19.6637 637.98 19.6729C638.003 19.6811 638.012 19.6882 638.017 19.6933L639.379 18.2286ZM637.802 17.6504C637.145 17.6504 636.558 17.9022 636.109 18.3856L637.573 19.7473C637.64 19.676 637.694 19.6504 637.802 19.6504V17.6504ZM636.109 18.3856C635.664 18.864 635.454 19.4578 635.454 20.0977H637.454C637.454 19.9172 637.503 19.8235 637.573 19.7473L636.109 18.3856ZM635.454 20.0977V24H637.454V20.0977H635.454ZM636.454 23H635.195V25H636.454V23ZM636.195 24V17.6191H634.195V24H636.195ZM645.705 21.2109H644.705V22.2109H645.705V21.2109ZM645.705 19.9746V18.9746H644.705V19.9746H645.705ZM649.549 19.9746H650.549V18.9746H649.549V19.9746ZM649.549 21.2109V22.2109H650.549V21.2109H649.549ZM646.705 21.2109V19.9746H644.705V21.2109H646.705ZM645.705 20.9746H649.549V18.9746H645.705V20.9746ZM648.549 19.9746V21.2109H650.549V19.9746H648.549ZM649.549 20.2109H645.705V22.2109H649.549V20.2109ZM651.224 17.6191V16.6191H650.224V17.6191H651.224ZM652.478 17.6191H653.478V16.6191H652.478V17.6191ZM652.478 24V25H653.478V24H652.478ZM651.224 24H650.224V25H651.224V24ZM651.271 16.2773L651.969 15.5611L651.96 15.5521L651.95 15.5432L651.271 16.2773ZM651.271 15.1816L651.96 15.9067L651.969 15.8979L651.271 15.1816ZM652.437 15.1816L653.135 14.4654L653.126 14.4566L652.437 15.1816ZM652.437 16.2773L651.749 15.5519L651.748 15.5523L652.437 16.2773ZM651.224 18.6191H652.478V16.6191H651.224V18.6191ZM651.478 17.6191V24H653.478V17.6191H651.478ZM652.478 23H651.224V25H652.478V23ZM652.224 24V17.6191H650.224V24H652.224ZM651.851 15.5C651.84 15.5 651.857 15.4986 651.889 15.5107C651.922 15.5236 651.951 15.5432 651.969 15.5611L650.573 16.9936C650.932 17.3433 651.385 17.5 651.851 17.5V15.5ZM651.95 15.5432C651.967 15.5586 651.994 15.5903 652.014 15.6376C652.034 15.6843 652.037 15.7204 652.037 15.7324H650.037C650.037 16.2211 650.225 16.6718 650.592 17.0114L651.95 15.5432ZM652.037 15.7324C652.037 15.7446 652.034 15.7787 652.015 15.8222C651.997 15.866 651.973 15.8943 651.96 15.9066L650.582 14.4566C650.224 14.7971 650.037 15.2442 650.037 15.7324H652.037ZM651.969 15.8979C651.951 15.9158 651.922 15.9354 651.889 15.9482C651.857 15.9604 651.84 15.959 651.851 15.959V13.959C651.385 13.959 650.932 14.1157 650.573 14.4654L651.969 15.8979ZM651.851 15.959C651.862 15.959 651.847 15.9604 651.818 15.9494C651.788 15.9379 651.763 15.9208 651.748 15.9066L653.126 14.4566C652.767 14.1154 652.317 13.959 651.851 13.959V15.959ZM651.739 15.8979C651.725 15.8842 651.702 15.8558 651.685 15.8139C651.668 15.7725 651.666 15.7413 651.666 15.7324H653.666C653.666 15.2526 653.487 14.808 653.135 14.4654L651.739 15.8979ZM651.666 15.7324C651.666 15.7237 651.668 15.6905 651.686 15.646C651.705 15.6006 651.731 15.5687 651.749 15.5519L653.125 17.0028C653.486 16.6608 653.666 16.2127 653.666 15.7324H651.666ZM651.748 15.5523C651.763 15.5381 651.788 15.5211 651.818 15.5096C651.847 15.4986 651.862 15.5 651.851 15.5V17.5C652.317 17.5 652.767 17.3435 653.126 17.0023L651.748 15.5523ZM659.374 18.3984L660.154 17.7725L660.152 17.77L659.374 18.3984ZM659.374 23.2148L658.594 22.5889L658.591 22.592L659.374 23.2148ZM655.489 23.0332L656.384 22.5879L656.109 22.0332H655.489V23.0332ZM655.389 23.0332V22.0332H654.389V23.0332H655.389ZM655.389 26.0684V27.0684H656.389V26.0684H655.389ZM654.13 26.0684H653.13V27.0684H654.13V26.0684ZM654.13 17.6191V16.6191H653.13V17.6191H654.13ZM655.343 17.6191H656.343V16.6191H655.343V17.6191ZM655.343 18.6738H654.343V19.6738H655.343V18.6738ZM655.436 18.6738V19.6738H656.04L656.321 19.14L655.436 18.6738ZM656.257 17.8184L655.76 16.9501L655.753 16.9542L656.257 17.8184ZM658.343 22.4004L659.125 23.0232L659.132 23.0143L658.343 22.4004ZM658.343 19.2188L659.129 18.6009L659.125 18.596L658.343 19.2188ZM655.829 19.2246L655.047 18.6009L655.044 18.6047L655.829 19.2246ZM655.829 22.3945L655.044 23.0144L655.047 23.0183L655.829 22.3945ZM657.44 18.5137C657.975 18.5137 658.324 18.6906 658.596 19.0269L660.152 17.77C659.47 16.9265 658.53 16.5137 657.44 16.5137V18.5137ZM658.594 19.0244C658.887 19.3898 659.089 19.9475 659.089 20.8066H661.089C661.089 19.6423 660.814 18.5946 660.154 17.7725L658.594 19.0244ZM659.089 20.8066C659.089 21.6658 658.887 22.2235 658.594 22.5889L660.154 23.8408C660.814 23.0187 661.089 21.9709 661.089 20.8066H659.089ZM658.591 22.592C658.322 22.93 657.979 23.1055 657.452 23.1055V25.1055C658.542 25.1055 659.48 24.6872 660.156 23.8377L658.591 22.592ZM657.452 23.1055C657.097 23.1055 656.871 23.0389 656.726 22.9598C656.591 22.8863 656.478 22.7758 656.384 22.5879L654.594 23.4785C654.856 24.0055 655.247 24.4311 655.767 24.715C656.277 24.9933 656.853 25.1055 657.452 25.1055V23.1055ZM655.489 22.0332H655.389V24.0332H655.489V22.0332ZM654.389 23.0332V26.0684H656.389V23.0332H654.389ZM655.389 25.0684H654.13V27.0684H655.389V25.0684ZM655.13 26.0684V17.6191H653.13V26.0684H655.13ZM654.13 18.6191H655.343V16.6191H654.13V18.6191ZM654.343 17.6191V18.6738H656.343V17.6191H654.343ZM655.343 19.6738H655.436V17.6738H655.343V19.6738ZM656.321 19.14C656.425 18.9428 656.566 18.7954 656.76 18.6825L655.753 16.9542C655.236 17.2554 654.831 17.6783 654.552 18.2077L656.321 19.14ZM656.753 18.6866C656.948 18.575 657.17 18.5137 657.44 18.5137V16.5137C656.843 16.5137 656.276 16.6555 655.76 16.9501L656.753 18.6866ZM657.083 23.9746C657.89 23.9746 658.611 23.6688 659.125 23.0231L657.56 21.7776C657.465 21.8976 657.346 21.9746 657.083 21.9746V23.9746ZM659.132 23.0143C659.613 22.3961 659.794 21.6217 659.794 20.8066H657.794C657.794 21.3432 657.674 21.6312 657.553 21.7865L659.132 23.0143ZM659.794 20.8066C659.794 19.9924 659.613 19.2171 659.129 18.6009L657.556 19.8366C657.674 19.986 657.794 20.2693 657.794 20.8066H659.794ZM659.125 18.596C658.613 17.9523 657.895 17.6445 657.089 17.6445V19.6445C657.345 19.6445 657.463 19.7196 657.56 19.8415L659.125 18.596ZM657.089 17.6445C656.279 17.6445 655.561 17.9569 655.047 18.6009L656.611 19.8483C656.714 19.7189 656.836 19.6445 657.089 19.6445V17.6445ZM655.044 18.6047C654.555 19.2239 654.366 19.9962 654.366 20.8125H656.366C656.366 20.2928 656.486 20.0066 656.614 19.8445L655.044 18.6047ZM654.366 20.8125C654.366 21.6265 654.556 22.3962 655.044 23.0144L656.614 21.7746C656.485 21.6116 656.366 21.3267 656.366 20.8125H654.366ZM655.047 23.0183C655.56 23.6602 656.274 23.9746 657.083 23.9746V21.9746C656.837 21.9746 656.715 21.9023 656.611 21.7708L655.047 23.0183ZM661.957 18.0352L661.345 17.244L661.341 17.2472L661.957 18.0352ZM666.234 19.2891V20.2891H667.352L667.228 19.1786L666.234 19.2891ZM665.027 19.2891L664.058 19.5333L664.248 20.2891H665.027V19.2891ZM662.859 18.75L663.408 19.5863L663.411 19.5842L662.859 18.75ZM663.516 20.1328L663.742 19.1587L663.741 19.1585L663.516 20.1328ZM664.576 20.3789L664.35 21.353L664.353 21.3536L664.576 20.3789ZM665.924 21L666.621 20.2833L666.616 20.2782L665.924 21ZM665.607 23.5723L666.205 24.3738L666.207 24.3723L665.607 23.5723ZM661.881 23.6367L662.453 22.8165L662.445 22.8111L661.881 23.6367ZM661.096 22.3066V21.3066H659.995L660.1 22.4027L661.096 22.3066ZM662.355 22.3066L663.307 21.9988L663.083 21.3066H662.355V22.3066ZM664.148 21.4629L664.38 20.4899L664.374 20.4887L664.148 21.4629ZM663.035 21.2051L662.804 22.1781L662.81 22.1793L663.035 21.2051ZM661.693 20.5605L662.4 19.8534L662.396 19.8486L661.693 20.5605ZM662.26 19.4238C662.26 19.1861 662.337 19.0076 662.573 18.8231L661.341 17.2472C660.648 17.7893 660.26 18.5365 660.26 19.4238H662.26ZM662.569 18.8263C662.821 18.6311 663.185 18.4961 663.738 18.4961V16.4961C662.846 16.4961 662.023 16.7205 661.345 17.244L662.569 18.8263ZM663.738 18.4961C664.315 18.4961 664.672 18.6227 664.896 18.7835L666.061 17.1579C665.403 16.6858 664.599 16.4961 663.738 16.4961V18.4961ZM664.896 18.7835C665.096 18.9269 665.208 19.1054 665.24 19.3995L667.228 19.1786C667.136 18.3478 666.744 17.6473 666.061 17.1579L664.896 18.7835ZM666.234 18.2891H665.027V20.2891H666.234V18.2891ZM665.997 19.0448C665.872 18.547 665.577 18.1262 665.12 17.8542C664.695 17.6011 664.206 17.5215 663.738 17.5215V19.5215C664.001 19.5215 664.092 19.5698 664.097 19.5726C664.097 19.5726 664.096 19.572 664.094 19.5705C664.092 19.5689 664.089 19.5667 664.086 19.5638C664.079 19.5576 664.072 19.55 664.066 19.5417C664.052 19.5233 664.053 19.5155 664.058 19.5333L665.997 19.0448ZM663.738 17.5215C663.242 17.5215 662.743 17.6282 662.308 17.9158L663.411 19.5842C663.437 19.5671 663.523 19.5215 663.738 19.5215V17.5215ZM662.311 17.9138C661.843 18.2208 661.502 18.7127 661.502 19.3535H663.502C663.502 19.3999 663.488 19.4657 663.452 19.5276C663.418 19.5839 663.389 19.5987 663.408 19.5862L662.311 17.9138ZM661.502 19.3535C661.502 19.9017 661.779 20.3314 662.146 20.6136C662.478 20.8688 662.89 21.0145 663.29 21.1071L663.741 19.1585C663.611 19.1286 663.517 19.098 663.452 19.0711C663.385 19.0437 663.362 19.026 663.365 19.028C663.369 19.0314 663.408 19.0623 663.444 19.1298C663.484 19.2021 663.502 19.2822 663.502 19.3535H661.502ZM663.29 21.1069L664.35 21.353L664.802 19.4048L663.742 19.1587L663.29 21.1069ZM664.353 21.3536C664.884 21.4755 665.133 21.6269 665.232 21.7218L666.616 20.2782C666.145 19.8262 665.494 19.5635 664.8 19.4042L664.353 21.3536ZM665.226 21.7167C665.292 21.7806 665.357 21.8794 665.357 22.1191H667.357C667.357 21.4292 667.134 20.7819 666.621 20.2833L665.226 21.7167ZM665.357 22.1191C665.357 22.3793 665.271 22.5745 665.007 22.7723L666.207 24.3723C666.944 23.82 667.357 23.0465 667.357 22.1191H665.357ZM665.009 22.7707C664.73 22.9795 664.324 23.123 663.715 23.123V25.123C664.645 25.123 665.501 24.8994 666.205 24.3738L665.009 22.7707ZM663.715 23.123C663.094 23.123 662.702 22.9901 662.453 22.8165L661.309 24.4569C661.99 24.9318 662.82 25.123 663.715 25.123V23.123ZM662.445 22.8111C662.222 22.6585 662.117 22.4827 662.091 22.2105L660.1 22.4027C660.183 23.2634 660.603 23.9744 661.317 24.4624L662.445 22.8111ZM661.096 23.3066H662.355V21.3066H661.096V23.3066ZM661.404 22.6145C661.563 23.1045 661.876 23.509 662.334 23.7716C662.767 24.02 663.261 24.1035 663.744 24.1035V22.1035C663.474 22.1035 663.359 22.0542 663.329 22.037C663.318 22.0303 663.318 22.0285 663.321 22.0322C663.324 22.0353 663.316 22.0282 663.307 21.9988L661.404 22.6145ZM663.744 24.1035C664.268 24.1035 664.794 23.9974 665.25 23.7053L664.172 22.0212C664.127 22.0495 664.009 22.1035 663.744 22.1035V24.1035ZM665.25 23.7053C665.731 23.3976 666.086 22.8992 666.086 22.2422H664.086C664.086 22.2228 664.088 22.195 664.097 22.1621C664.106 22.1289 664.12 22.0978 664.136 22.071C664.169 22.0168 664.196 22.0054 664.172 22.0212L665.25 23.7053ZM666.086 22.2422C666.086 21.7288 665.851 21.2994 665.491 21C665.167 20.7307 664.764 20.5812 664.38 20.49L663.917 22.4358C664.03 22.4626 664.108 22.4897 664.159 22.512C664.211 22.5345 664.223 22.5467 664.212 22.5381C664.2 22.5274 664.163 22.4928 664.131 22.4286C664.098 22.362 664.086 22.2948 664.086 22.2422H666.086ZM664.374 20.4887L663.261 20.2309L662.81 22.1793L663.923 22.4371L664.374 20.4887ZM663.266 20.2321C662.745 20.1086 662.501 19.954 662.4 19.8534L660.986 21.2677C661.456 21.7374 662.106 22.0125 662.804 22.1781L663.266 20.2321ZM662.396 19.8486C662.328 19.7823 662.26 19.6764 662.26 19.4238H660.26C660.26 20.1165 660.48 20.7684 660.991 21.2724L662.396 19.8486ZM673.177 24V25H674.177V24H673.177ZM671.97 24H670.97V25H671.97V24ZM671.97 22.9863H672.97V21.9863H671.97V22.9863ZM671.87 22.9863V21.9863H671.21L670.951 22.593L671.87 22.9863ZM668.214 23.502L668.938 22.8121L668.935 22.8086L668.214 23.502ZM667.616 17.6191V16.6191H666.616V17.6191H667.616ZM668.876 17.6191H669.876V16.6191H668.876V17.6191ZM671.923 17.6191V16.6191H670.923V17.6191H671.923ZM673.177 17.6191H674.177V16.6191H673.177V17.6191ZM673.177 23H671.97V25H673.177V23ZM672.97 24V22.9863H670.97V24H672.97ZM671.97 21.9863H671.87V23.9863H671.97V21.9863ZM670.951 22.593C670.868 22.7873 670.762 22.8966 670.633 22.9697C670.491 23.0505 670.256 23.123 669.872 23.123V25.123C670.497 25.123 671.098 25.0061 671.622 24.708C672.16 24.4022 672.549 23.9432 672.79 23.3797L670.951 22.593ZM669.872 23.123C669.364 23.123 669.1 22.9821 668.938 22.8121L667.49 24.1918C668.117 24.85 668.959 25.123 669.872 25.123V23.123ZM668.935 22.8086C668.766 22.6333 668.616 22.3287 668.616 21.75H666.616C666.616 22.6791 666.865 23.5425 667.493 24.1953L668.935 22.8086ZM668.616 21.75V17.6191H666.616V21.75H668.616ZM667.616 18.6191H668.876V16.6191H667.616V18.6191ZM667.876 17.6191V21.4336H669.876V17.6191H667.876ZM667.876 21.4336C667.876 22.0766 668.023 22.7452 668.493 23.2545C668.977 23.7788 669.638 23.957 670.282 23.957V21.957C670.136 21.957 670.05 21.9369 670.007 21.9213C669.986 21.9138 669.975 21.9074 669.97 21.9044C669.966 21.9015 669.964 21.8996 669.963 21.8979C669.961 21.8965 669.941 21.8753 669.92 21.806C669.897 21.7328 669.876 21.6137 669.876 21.4336H667.876ZM670.282 23.957C670.984 23.957 671.659 23.7544 672.181 23.2459L670.786 21.8127C670.723 21.8745 670.596 21.957 670.282 21.957V23.957ZM672.181 23.2459C672.709 22.7319 672.923 22.0572 672.923 21.3516H670.923C670.923 21.646 670.844 21.7564 670.786 21.8127L672.181 23.2459ZM672.923 21.3516V17.6191H670.923V21.3516H672.923ZM671.923 18.6191H673.177V16.6191H671.923V18.6191ZM672.177 17.6191V24H674.177V17.6191H672.177ZM674.811 17.6191V16.6191H673.811V17.6191H674.811ZM676.024 17.6191H677.024V16.6191H676.024V17.6191ZM676.024 18.6445H675.024V19.6445H676.024V18.6445ZM676.118 18.6445V19.6445H676.802L677.05 19.0061L676.118 18.6445ZM679.651 18.6445L678.723 19.0184L678.976 19.6445H679.651V18.6445ZM679.75 18.6445V19.6445H680.387L680.657 19.0674L679.75 18.6445ZM680.512 17.8066L680 16.9474L679.996 16.95L680.512 17.8066ZM683.196 18.0527L683.918 17.361L683.914 17.3571L683.196 18.0527ZM683.729 24V25H684.729V24H683.729ZM682.469 24H681.469V25H682.469V24ZM680.254 19.0371L680.967 19.7386L680.972 19.7333L680.254 19.0371ZM679.885 24V25H680.885V24H679.885ZM678.649 24H677.649V25H678.649V24ZM676.071 24V25H677.071V24H676.071ZM674.811 24H673.811V25H674.811V24ZM674.811 18.6191H676.024V16.6191H674.811V18.6191ZM675.024 17.6191V18.6445H677.024V17.6191H675.024ZM676.024 19.6445H676.118V17.6445H676.024V19.6445ZM677.05 19.0061C677.135 18.7861 677.236 18.6818 677.327 18.6228C677.424 18.5601 677.593 18.4961 677.893 18.4961V16.4961C677.306 16.4961 676.736 16.6235 676.241 16.9436C675.74 17.2675 675.397 17.7373 675.185 18.283L677.05 19.0061ZM677.893 18.4961C678.176 18.4961 678.337 18.5576 678.433 18.6204C678.526 18.6809 678.631 18.7904 678.723 19.0184L680.578 18.2707C680.362 17.7331 680.02 17.2683 679.527 16.946C679.037 16.626 678.473 16.4961 677.893 16.4961V18.4961ZM679.651 19.6445H679.75V17.6445H679.651V19.6445ZM680.657 19.0674C680.734 18.9025 680.848 18.7715 681.028 18.6633L679.996 16.95C679.488 17.2559 679.095 17.6835 678.844 18.2216L680.657 19.0674ZM681.024 18.6658C681.204 18.5584 681.417 18.4961 681.69 18.4961V16.4961C681.087 16.4961 680.515 16.6408 680 16.9474L681.024 18.6658ZM681.69 18.4961C682.135 18.4961 682.351 18.6177 682.477 18.7484L683.914 17.3571C683.322 16.7456 682.534 16.4961 681.69 16.4961V18.4961ZM682.474 18.7445C682.603 18.8797 682.729 19.121 682.729 19.6055H684.729C684.729 18.7618 684.499 17.9679 683.918 17.361L682.474 18.7445ZM682.729 19.6055V24H684.729V19.6055H682.729ZM683.729 23H682.469V25H683.729V23ZM683.469 24V19.9336H681.469V24H683.469ZM683.469 19.9336C683.469 19.3608 683.332 18.746 682.88 18.2774C682.422 17.8018 681.809 17.6504 681.233 17.6504V19.6504C681.481 19.6504 681.486 19.7128 681.44 19.665C681.401 19.6242 681.469 19.6509 681.469 19.9336H683.469ZM681.233 17.6504C680.596 17.6504 679.998 17.8647 679.536 18.341L680.972 19.7333C681.01 19.6939 681.065 19.6504 681.233 19.6504V17.6504ZM679.542 18.3356C679.094 18.7906 678.885 19.3673 678.885 19.9863H680.885C680.885 19.8397 680.923 19.7836 680.967 19.7386L679.542 18.3356ZM678.885 19.9863V24H680.885V19.9863H678.885ZM679.885 23H678.649V25H679.885V23ZM679.649 24V19.8105H677.649V24H679.649ZM679.649 19.8105C679.649 19.2284 679.459 18.6593 678.996 18.2286L677.634 19.6933C677.636 19.6955 677.636 19.6955 677.635 19.6935C677.633 19.6916 677.633 19.6913 677.635 19.6945C677.637 19.7005 677.649 19.7339 677.649 19.8105H679.649ZM678.996 18.2286C678.547 17.8116 677.984 17.6504 677.418 17.6504V19.6504C677.515 19.6504 677.57 19.6637 677.596 19.6729C677.62 19.6811 677.628 19.6882 677.634 19.6933L678.996 18.2286ZM677.418 17.6504C676.761 17.6504 676.174 17.9022 675.725 18.3856L677.19 19.7473C677.256 19.676 677.31 19.6504 677.418 19.6504V17.6504ZM675.725 18.3856C675.28 18.864 675.071 19.4578 675.071 20.0977H677.071C677.071 19.9172 677.119 19.8235 677.19 19.7473L675.725 18.3856ZM675.071 20.0977V24H677.071V20.0977H675.071ZM676.071 23H674.811V25H676.071V23ZM675.811 24V17.6191H673.811V24H675.811Z" fill="black" fill-opacity="0.2" mask="url(#path-12-outside-2_3_137)"/>
<rect x="503" y="18" width="8" height="6" fill="#E9E9EA"/>
<path d="M504 17V18H505V17C505 15.8954 505.895 15 507 15C508.105 15 509 15.8954 509 17V18H510V17C510 15.3431 508.657 14 507 14C505.343 14 504 15.3431 504 17Z" fill="#E9E9EA"/>
<path d="M922.5 14V15C920.015 15 918 17.0147 918 19.5C918 21.9853 920.015 24 922.5 24C924.985 24 927 21.9853 927 19.5H928C928 22.5376 925.538 25 922.5 25C919.462 25 917 22.5376 917 19.5C917 16.4624 919.462 14 922.5 14Z" fill="#DADADA"/>
<path d="M926 14.5L922 17V12L926 14.5Z" fill="#DADADA"/>
<g filter="url(#filter3_i_3_137)">
<rect x="138" y="8" width="37" height="22" rx="3" fill="url(#paint4_linear_3_137)"/>
</g>
<path fill-rule="evenodd" clip-rule="evenodd" d="M151 16V15H153.013V16H151ZM151 18V17H153.05V18H151ZM151 19V20H153.05V19H151Z" fill="#BBBEC0"/>
<path fill-rule="evenodd" clip-rule="evenodd" d="M155 13H162.993C163.551 13 164 13.4488 164 14.0025V23.9975C164 24.5442 163.549 25 162.993 25H155H154H150.007C149.449 25 149 24.5512 149 23.9975V14.0025C149 13.4558 149.451 13 150.007 13H154H155ZM154 14.0004C151.772 14.0002 150.007 14 150.007 14C150.006 14 150 23.9975 150 23.9975C150 23.998 151.768 23.9985 154 23.9989V14.0004ZM155 23.999V14.0005C158.663 14.001 163 14.0017 163 14.0025C163 14.0025 162.994 24 162.993 24C162.993 24 158.661 23.9996 155 23.999Z" fill="#E9E9EA"/>
<path fill-rule="evenodd" clip-rule="evenodd" d="M58 25C61.3137 25 64 22.3137 64 19C64 15.6863 61.3137 13 58 13C54.6863 13 52 15.6863 52 19C52 22.3137 54.6863 25 58 25Z" fill="#53C22B"/>
<path fill-rule="evenodd" clip-rule="evenodd" d="M38 25C41.3137 25 44 22.3137 44 19C44 15.6863 41.3137 13 38 13C34.6863 13 32 15.6863 32 19C32 22.3137 34.6863 25 38 25Z" fill="#E6C02A"/>
<path fill-rule="evenodd" clip-rule="evenodd" d="M18 25C21.3137 25 24 22.3137 24 19C24 15.6863 21.3137 13 18 13C14.6863 13 12 15.6863 12 19C12 22.3137 14.6863 25 18 25Z" fill="#FF5A52"/>
<g filter="url(#filter4_i_3_137)">
<rect x="103" y="8" width="25" height="22" rx="3" fill="url(#paint5_linear_3_137)"/>
</g>
<path d="M112.616 22.9844C112.271 23.3478 112.271 23.9181 112.616 24.2816C112.988 24.6723 113.61 24.6723 113.982 24.2816L118.949 19.0537C118.978 19.0236 118.978 18.9764 118.949 18.9463L113.982 13.7184C113.61 13.3277 112.988 13.3277 112.616 13.7184C112.271 14.0819 112.271 14.6522 112.616 15.0156L116.402 19L112.616 22.9844Z" fill="#75787A"/>
<g filter="url(#filter5_i_3_137)">
<path d="M77 12.8C77 11.1198 77 10.2798 77.327 9.63803C77.6146 9.07354 78.0735 8.6146 78.638 8.32698C79.2798 8 80.1198 8 81.8 8H97.2C98.8802 8 99.7202 8 100.362 8.32698C100.926 8.6146 101.385 9.07354 101.673 9.63803C102 10.2798 102 11.1198 102 12.8V25.2C102 26.8802 102 27.7202 101.673 28.362C101.385 28.9265 100.926 29.3854 100.362 29.673C99.7202 30 98.8802 30 97.2 30H81.8C80.1198 30 79.2798 30 78.638 29.673C78.0735 29.3854 77.6146 28.9265 77.327 28.362C77 27.7202 77 26.8802 77 25.2V12.8Z" fill="url(#paint6_linear_3_137)"/>
</g>
<path d="M92.3837 22.9844C92.729 23.3478 92.729 23.9181 92.3837 24.2816C92.0125 24.6723 91.3897 24.6723 91.0185 24.2816L86.051 19.0537C86.0224 19.0236 86.0224 18.9764 86.051 18.9463L91.0185 13.7184C91.3897 13.3277 92.0125 13.3277 92.3837 13.7184C92.729 14.0819 92.729 14.6522 92.3837 15.0156L88.5978 19L92.3837 22.9844Z" fill="#E9E9EA"/>
<defs>
<filter id="filter0_i_3_137" x="1209" y="8" width="37" height="22" filterUnits="userSpaceOnUse" color-interpolation-filters="sRGB">
<feFlood flood-opacity="0" result="BackgroundImageFix"/>
<feBlend mode="normal" in="SourceGraphic" in2="BackgroundImageFix" result="shape"/>
<feColorMatrix in="SourceAlpha" type="matrix" values="0 0 0 0 0 0 0 0 0 0 0 0 0 0 0 0 0 0 127 0" result="hardAlpha"/>
<feOffset dy="1"/>
<feComposite in2="hardAlpha" operator="arithmetic" k2="-1" k3="1"/>
<feColorMatrix type="matrix" values="0 0 0 0 0.458824 0 0 0 0 0.470588 0 0 0 0 0.478431 0 0 0 1 0"/>
<feBlend mode="normal" in2="shape" result="effect1_innerShadow_3_137"/>
</filter>
<filter id="filter1_i_3_137" x="1164" y="8" width="37" height="22" filterUnits="userSpaceOnUse" color-interpolation-filters="sRGB">
<feFlood flood-opacity="0" result="BackgroundImageFix"/>
<feBlend mode="normal" in="SourceGraphic" in2="BackgroundImageFix" result="shape"/>
<feColorMatrix in="SourceAlpha" type="matrix" values="0 0 0 0 0 0 0 0 0 0 0 0 0 0 0 0 0 0 127 0" result="hardAlpha"/>
<feOffset dy="1"/>
<feComposite in2="hardAlpha" operator="arithmetic" k2="-1" k3="1"/>
<feColorMatrix type="matrix" values="0 0 0 0 0.458824 0 0 0 0 0.470588 0 0 0 0 0.478431 0 0 0 1 0"/>
<feBlend mode="normal" in2="shape" result="effect1_innerShadow_3_137"/>
</filter>
<filter id="filter2_i_3_137" x="345" y="8" width="590" height="22" filterUnits="userSpaceOnUse" color-interpolation-filters="sRGB">
<feFlood flood-opacity="0" result="BackgroundImageFix"/>
<feBlend mode="normal" in="SourceGraphic" in2="BackgroundImageFix" result="shape"/>
<feColorMatrix in="SourceAlpha" type="matrix" values="0 0 0 0 0 0 0 0 0 0 0 0 0 0 0 0 0 0 127 0" result="hardAlpha"/>
<feOffset dy="1"/>
<feComposite in2="hardAlpha" operator="arithmetic" k2="-1" k3="1"/>
<feColorMatrix type="matrix" values="0 0 0 0 0.458824 0 0 0 0 0.470588 0 0 0 0 0.478431 0 0 0 1 0"/>
<feBlend mode="normal" in2="shape" result="effect1_innerShadow_3_137"/>
</filter>
<filter id="filter3_i_3_137" x="138" y="8" width="37" height="22" filterUnits="userSpaceOnUse" color-interpolation-filters="sRGB">
<feFlood flood-opacity="0" result="BackgroundImageFix"/>
<feBlend mode="normal" in="SourceGraphic" in2="BackgroundImageFix" result="shape"/>
<feColorMatrix in="SourceAlpha" type="matrix" values="0 0 0 0 0 0 0 0 0 0 0 0 0 0 0 0 0 0 127 0" result="hardAlpha"/>
<feOffset dy="1"/>
<feComposite in2="hardAlpha" operator="arithmetic" k2="-1" k3="1"/>
<feColorMatrix type="matrix" values="0 0 0 0 0.458824 0 0 0 0 0.470588 0 0 0 0 0.478431 0 0 0 1 0"/>
<feBlend mode="normal" in2="shape" result="effect1_innerShadow_3_137"/>
</filter>
<filter id="filter4_i_3_137" x="103" y="8" width="25" height="22" filterUnits="userSpaceOnUse" color-interpolation-filters="sRGB">
<feFlood flood-opacity="0" result="BackgroundImageFix"/>
<feBlend mode="normal" in="SourceGraphic" in2="BackgroundImageFix" result="shape"/>
<feColorMatrix in="SourceAlpha" type="matrix" values="0 0 0 0 0 0 0 0 0 0 0 0 0 0 0 0 0 0 127 0" result="hardAlpha"/>
<feOffset dy="1"/>
<feComposite in2="hardAlpha" operator="arithmetic" k2="-1" k3="1"/>
<feColorMatrix type="matrix" values="0 0 0 0 0.458824 0 0 0 0 0.470588 0 0 0 0 0.478431 0 0 0 1 0"/>
<feBlend mode="normal" in2="shape" result="effect1_innerShadow_3_137"/>
</filter>
<filter id="filter5_i_3_137" x="77" y="8" width="25" height="22" filterUnits="userSpaceOnUse" color-interpolation-filters="sRGB">
<feFlood flood-opacity="0" result="BackgroundImageFix"/>
<feBlend mode="normal" in="SourceGraphic" in2="BackgroundImageFix" result="shape"/>
<feColorMatrix in="SourceAlpha" type="matrix" values="0 0 0 0 0 0 0 0 0 0 0 0 0 0 0 0 0 0 127 0" result="hardAlpha"/>
<feOffset dy="1"/>
<feComposite in2="hardAlpha" operator="arithmetic" k2="-1" k3="1"/>
<feColorMatrix type="matrix" values="0 0 0 0 0.458824 0 0 0 0 0.470588 0 0 0 0 0.478431 0 0 0 1 0"/>
<feBlend mode="normal" in2="shape" result="effect1_innerShadow_3_137"/>
</filter>
<linearGradient id="paint0_linear_3_137" x1="639.5" y1="0" x2="639.5" y2="37" gradientUnits="userSpaceOnUse">
<stop stop-color="#3A3E3F"/>
<stop offset="1" stop-color="#2F3234"/>
</linearGradient>
<linearGradient id="paint1_linear_3_137" x1="1209" y1="8" x2="1209" y2="30" gradientUnits="userSpaceOnUse">
<stop stop-color="#65686A"/>
<stop offset="1" stop-color="#5F6263"/>
</linearGradient>
<linearGradient id="paint2_linear_3_137" x1="1164" y1="8" x2="1164" y2="30" gradientUnits="userSpaceOnUse">
<stop stop-color="#65686A"/>
<stop offset="1" stop-color="#5F6263"/>
</linearGradient>
<linearGradient id="paint3_linear_3_137" x1="345" y1="8" x2="345" y2="30" gradientUnits="userSpaceOnUse">
<stop stop-color="#65686A"/>
<stop offset="1" stop-color="#5F6263"/>
</linearGradient>
<linearGradient id="paint4_linear_3_137" x1="138" y1="8" x2="138" y2="30" gradientUnits="userSpaceOnUse">
<stop stop-color="#65686A"/>
<stop offset="1" stop-color="#5F6263"/>
</linearGradient>
<linearGradient id="paint5_linear_3_137" x1="103" y1="8" x2="103" y2="30" gradientUnits="userSpaceOnUse">
<stop stop-color="#65686A"/>
<stop offset="1" stop-color="#5F6263"/>
</linearGradient>
<linearGradient id="paint6_linear_3_137" x1="77" y1="8" x2="77" y2="30" gradientUnits="userSpaceOnUse">
<stop stop-color="#65686A"/>
<stop offset="1" stop-color="#5F6263"/>
</linearGradient>
</defs>
</svg>
