<svg width="1279" height="37" viewBox="0 0 1279 37" fill="none" xmlns="http://www.w3.org/2000/svg">
<path d="M0 6.4C0 4.15979 0 3.03968 0.435974 2.18404C0.819467 1.43139 1.43139 0.819467 2.18404 0.435974C3.03968 0 4.15979 0 6.4 0H1272.6C1274.84 0 1275.96 0 1276.82 0.435974C1277.57 0.819467 1278.18 1.43139 1278.56 2.18404C1279 3.03968 1279 4.15979 1279 6.4V36H0V6.4Z" fill="url(#paint0_linear_3_205)"/>
<rect opacity="0.95" y="36" width="1278" height="1" fill="#A5A6A7"/>
<g filter="url(#filter0_i_3_205)">
<rect x="1208" y="6" width="39" height="24" rx="5" fill="url(#paint1_linear_3_205)"/>
</g>
<rect x="1208.5" y="6.5" width="38" height="23" rx="4.5" stroke="url(#paint2_linear_3_205)"/>
<rect x="1222.5" y="15.5" width="8" height="8" rx="0.5" stroke="#575757"/>
<mask id="path-6-inside-1_3_205" fill="white">
<path d="M1225 13.6V14H1226V13H1233V20H1232V21H1232.4C1232.96 21 1233.24 21 1233.45 20.891C1233.64 20.7951 1233.8 20.6422 1233.89 20.454C1234 20.2401 1234 19.9601 1234 19.4V13.6C1234 13.0399 1234 12.7599 1233.89 12.546C1233.8 12.3578 1233.64 12.2049 1233.45 12.109C1233.24 12 1232.96 12 1232.4 12H1226.6C1226.04 12 1225.76 12 1225.55 12.109C1225.36 12.2049 1225.2 12.3578 1225.11 12.546C1225 12.7599 1225 13.0399 1225 13.6Z"/>
</mask>
<path d="M1225 14H1224V15H1225V14ZM1232 21H1231V22H1232V21ZM1232 20V19H1231V20H1232ZM1233 20V21H1234V20H1233ZM1233 13H1234V12H1233V13ZM1226 13V12H1225V13H1226ZM1226 14V15H1227V14H1226ZM1233.89 20.454L1233 20L1233 20L1233.89 20.454ZM1233.45 20.891L1233 20L1233 20L1233.45 20.891ZM1233.45 12.109L1233.91 11.218L1233.91 11.218L1233.45 12.109ZM1233.89 12.546L1233 13L1233 13L1233.89 12.546ZM1225.11 12.546L1224.22 12.092L1224.22 12.092L1225.11 12.546ZM1225.55 12.109L1225.09 11.218L1225.09 11.218L1225.55 12.109ZM1226 14V13.6H1224V14H1226ZM1226.6 13H1232.4V11H1226.6V13ZM1233 13.6V19.4H1235V13.6H1233ZM1232.4 20H1232V22H1232.4V20ZM1233 21V20H1231V21H1233ZM1232 21H1233V19H1232V21ZM1234 20V13H1232V20H1234ZM1233 12H1226V14H1233V12ZM1225 13V14H1227V13H1225ZM1226 13H1225V15H1226V13ZM1233 19.4C1233 19.6965 1233 19.8588 1232.99 19.9754C1232.98 20.0803 1232.97 20.0575 1233 20L1234.78 20.908C1234.92 20.6366 1234.96 20.3668 1234.98 20.1382C1235 19.9213 1235 19.6635 1235 19.4H1233ZM1232.4 22C1232.66 22 1232.92 22.0008 1233.14 21.9831C1233.37 21.9644 1233.64 21.9203 1233.91 21.782L1233 20C1233.06 19.9707 1233.08 19.9811 1232.98 19.9897C1232.86 19.9992 1232.7 20 1232.4 20V22ZM1233 20L1233 20L1233.91 21.782C1234.28 21.5903 1234.59 21.2843 1234.78 20.908L1233 20ZM1232.4 13C1232.7 13 1232.86 13.0008 1232.98 13.0103C1233.08 13.0189 1233.06 13.0293 1233 13L1233.91 11.218C1233.64 11.0797 1233.37 11.0356 1233.14 11.0169C1232.92 10.9992 1232.66 11 1232.4 11V13ZM1235 13.6C1235 13.3365 1235 13.0787 1234.98 12.8618C1234.96 12.6332 1234.92 12.3634 1234.78 12.092L1233 13C1232.97 12.9425 1232.98 12.9197 1232.99 13.0246C1233 13.1412 1233 13.3035 1233 13.6H1235ZM1233 13L1233 13L1234.78 12.092C1234.59 11.7157 1234.28 11.4097 1233.91 11.218L1233 13ZM1226 13.6C1226 13.3035 1226 13.1412 1226.01 13.0246C1226.02 12.9197 1226.03 12.9425 1226 13L1224.22 12.092C1224.08 12.3634 1224.04 12.6332 1224.02 12.8618C1224 13.0787 1224 13.3365 1224 13.6H1226ZM1226.6 11C1226.34 11 1226.08 10.9992 1225.86 11.0169C1225.63 11.0356 1225.36 11.0797 1225.09 11.218L1226 13C1225.94 13.0293 1225.92 13.0189 1226.02 13.0103C1226.14 13.0008 1226.3 13 1226.6 13V11ZM1226 13L1225.09 11.218C1224.72 11.4097 1224.41 11.7157 1224.22 12.092L1226 13Z" fill="#575757" mask="url(#path-6-inside-1_3_205)"/>
<g filter="url(#filter1_i_3_205)">
<rect x="1163" y="6" width="39" height="24" rx="5" fill="url(#paint3_linear_3_205)"/>
</g>
<rect x="1163.5" y="6.5" width="38" height="23" rx="4.5" stroke="url(#paint4_linear_3_205)"/>
<path d="M1178 24H1187C1187 24 1187 15.9983 1187 15.9983L1184 16V15H1186.99C1187.56 15 1188 15.4457 1188 15.9954V24.0046C1188 24.5443 1187.55 25 1187 25H1178C1177.44 25 1177 24.5543 1177 24.0046V15.9954C1177 15.4557 1177.45 15 1178.01 15H1181V16H1178.01C1178.01 16 1178 24 1178 24Z" fill="#ADADAD"/>
<path d="M1182.49 11.3434L1179.95 13.9149C1179.76 14.1003 1179.47 14.1003 1179.28 13.9149C1179.1 13.7294 1179.1 13.4287 1179.28 13.2432L1182.15 10.3358C1182.34 10.1504 1182.63 10.1504 1182.82 10.3358L1185.69 13.2432C1185.87 13.4287 1185.87 13.7294 1185.69 13.9149C1185.51 14.1003 1185.21 14.1003 1185.03 13.9149L1182.49 11.3434Z" fill="#ADADAD"/>
<path d="M1182 11H1183V20H1182V11Z" fill="#ADADAD"/>
<g filter="url(#filter2_i_3_205)">
<rect x="379" y="6" width="518" height="24" rx="5" fill="url(#paint5_linear_3_205)"/>
</g>
<rect x="379.5" y="6.5" width="517" height="23" rx="4.5" stroke="url(#paint6_linear_3_205)"/>
<path d="M619.218 22.0449C619.691 22.0449 620.086 21.9121 620.402 21.6465C620.714 21.3809 620.871 21.0488 620.871 20.6504V20.1172L619.312 20.2168C618.461 20.2754 618.035 20.582 618.035 21.1367C618.035 21.418 618.146 21.6406 618.369 21.8047C618.584 21.9648 618.867 22.0449 619.218 22.0449ZM618.896 23.1055C618.271 23.1055 617.763 22.9336 617.373 22.5898C616.97 22.2344 616.769 21.7695 616.769 21.1953C616.769 20.625 616.974 20.1758 617.384 19.8477C617.795 19.5234 618.38 19.3379 619.142 19.291L620.871 19.1914V18.6406C620.871 17.9375 620.435 17.5859 619.564 17.5859C618.826 17.5859 618.382 17.8223 618.234 18.2949H617.015C617.078 17.748 617.347 17.3105 617.824 16.9824C618.296 16.6582 618.896 16.4961 619.623 16.4961C620.42 16.4961 621.037 16.6855 621.474 17.0645C621.908 17.4395 622.125 17.9648 622.125 18.6406V23H620.912V22.1035H620.812C620.414 22.7715 619.775 23.1055 618.896 23.1055ZM623.571 18.4238C623.571 17.8613 623.804 17.3984 624.268 17.0352C624.733 16.6758 625.327 16.4961 626.05 16.4961C626.768 16.4961 627.348 16.6543 627.79 16.9707C628.231 17.2871 628.483 17.7266 628.546 18.2891H627.339C627.21 17.7773 626.78 17.5215 626.05 17.5215C625.694 17.5215 625.401 17.5977 625.171 17.75C624.932 17.9062 624.813 18.1074 624.813 18.3535C624.813 18.7168 625.151 18.9766 625.827 19.1328L626.887 19.3789C627.501 19.5195 627.95 19.7266 628.235 20C628.524 20.2812 628.669 20.6543 628.669 21.1191C628.669 21.7129 628.419 22.1973 627.919 22.5723C627.427 22.9395 626.796 23.123 626.026 23.123C625.268 23.123 624.657 22.9609 624.192 22.6367C623.723 22.3164 623.462 21.873 623.407 21.3066H624.667C624.839 21.8379 625.302 22.1035 626.055 22.1035C626.45 22.1035 626.772 22.0234 627.022 21.8633C627.272 21.7031 627.397 21.4961 627.397 21.2422C627.397 20.8711 627.085 20.6113 626.46 20.4629L625.346 20.2051C624.737 20.0605 624.29 19.8457 624.005 19.5605C623.716 19.2754 623.571 18.8965 623.571 18.4238ZM631.645 15.0723V16.6484H633.074V17.709H631.645V20.9902C631.645 21.3223 631.717 21.5664 631.861 21.7227C632.006 21.875 632.234 21.9512 632.547 21.9512C632.664 21.9512 632.82 21.9414 633.016 21.9219V22.9707C632.773 23.0137 632.549 23.0352 632.342 23.0352C631.643 23.0352 631.141 22.9023 630.836 22.6367C630.535 22.3711 630.385 21.9297 630.385 21.3125V17.709H629.336V16.6484H630.385V15.0723H631.645ZM634.31 16.6191H635.523V17.5977H635.616C635.706 17.2812 635.911 17.0215 636.232 16.8184C636.552 16.6152 636.919 16.5137 637.333 16.5137C637.571 16.5137 637.757 16.5312 637.89 16.5664V17.8086C637.745 17.7578 637.513 17.7324 637.193 17.7324C636.716 17.7324 636.327 17.8711 636.027 18.1484C635.722 18.4258 635.57 18.7871 635.57 19.2324V23H634.31V16.6191ZM641.434 22.0039C641.977 22.0039 642.399 21.8105 642.7 21.4238C642.996 21.041 643.145 20.502 643.145 19.8066C643.145 19.1152 642.996 18.5762 642.7 18.1895C642.399 17.8066 641.977 17.6152 641.434 17.6152C640.887 17.6152 640.465 17.8066 640.168 18.1895C639.871 18.5723 639.723 19.1113 639.723 19.8066C639.723 20.5059 639.871 21.0469 640.168 21.4297C640.465 21.8125 640.887 22.0039 641.434 22.0039ZM641.434 23.123C640.496 23.123 639.76 22.8281 639.225 22.2383C638.69 21.6484 638.422 20.8379 638.422 19.8066C638.422 18.7793 638.692 17.9707 639.231 17.3809C639.766 16.791 640.5 16.4961 641.434 16.4961C642.364 16.4961 643.096 16.791 643.631 17.3809C644.17 17.9707 644.44 18.7793 644.44 19.8066C644.44 20.8379 644.172 21.6484 643.637 22.2383C643.102 22.8281 642.368 23.123 641.434 23.123ZM645.781 20.2109V18.9746H649.625V20.2109H645.781ZM653.895 17.5684C653.43 17.5684 653.048 17.7188 652.747 18.0195C652.446 18.3203 652.278 18.7207 652.243 19.2207H655.466C655.45 18.7168 655.302 18.3164 655.02 18.0195C654.735 17.7188 654.36 17.5684 653.895 17.5684ZM656.673 21.2773C656.528 21.8516 656.214 22.3027 655.729 22.6309C655.241 22.959 654.634 23.123 653.907 23.123C652.993 23.123 652.274 22.8281 651.751 22.2383C651.223 21.6523 650.96 20.8496 650.96 19.8301C650.96 18.8105 651.225 18 651.757 17.3984C652.288 16.7969 653.003 16.4961 653.901 16.4961C654.788 16.4961 655.485 16.7812 655.993 17.3516C656.497 17.9219 656.749 18.709 656.749 19.7129V20.1523H652.243V20.2227C652.262 20.7852 652.425 21.2305 652.729 21.5586C653.034 21.8867 653.438 22.0508 653.942 22.0508C654.712 22.0508 655.218 21.793 655.46 21.2773H656.673ZM658.061 16.6191H659.273V17.6445H659.367C659.664 16.8789 660.256 16.4961 661.143 16.4961C662.006 16.4961 662.592 16.8789 662.9 17.6445H663C663.164 17.293 663.418 17.0137 663.762 16.8066C664.109 16.5996 664.502 16.4961 664.939 16.4961C665.584 16.4961 666.086 16.6816 666.445 17.0527C666.801 17.4238 666.979 17.9414 666.979 18.6055V23H665.719V18.9336C665.719 18.0781 665.307 17.6504 664.482 17.6504C664.08 17.6504 663.754 17.7793 663.504 18.0371C663.258 18.2871 663.135 18.6035 663.135 18.9863V23H661.898V18.8105C661.898 18.4512 661.787 18.168 661.564 17.9609C661.342 17.7539 661.043 17.6504 660.668 17.6504C660.285 17.6504 659.965 17.7891 659.707 18.0664C659.449 18.3438 659.32 18.6875 659.32 19.0977V23H658.061V16.6191ZM674.05 23H672.843V21.9863H672.743C672.419 22.7441 671.753 23.123 670.745 23.123C670.034 23.123 669.482 22.916 669.087 22.502C668.689 22.0879 668.489 21.5039 668.489 20.75V16.6191H669.749V20.4336C669.749 21.4492 670.218 21.957 671.155 21.957C671.663 21.957 672.064 21.8145 672.357 21.5293C672.65 21.2441 672.796 20.8516 672.796 20.3516V16.6191H674.05V23Z" fill="#A3A3A3"/>
<rect x="500" y="17" width="8" height="6" fill="#A3A3A3"/>
<path d="M501 16V17H502V16C502 14.8954 502.895 14 504 14C505.105 14 506 14.8954 506 16V17H507V16C507 14.3431 505.657 13 504 13C502.343 13 501 14.3431 501 16Z" fill="#A3A3A3"/>
<path d="M884.5 13V14C882.015 14 880 16.0147 880 18.5C880 20.9853 882.015 23 884.5 23C886.985 23 889 20.9853 889 18.5H890C890 21.5376 887.538 24 884.5 24C881.462 24 879 21.5376 879 18.5C879 15.4624 881.462 13 884.5 13Z" fill="#ADADAD"/>
<path d="M888 13.5L884 16V11L888 13.5Z" fill="#ADADAD"/>
<g filter="url(#filter3_i_3_205)">
<rect x="137" y="6" width="39" height="24" rx="5" fill="url(#paint7_linear_3_205)"/>
</g>
<rect x="137.5" y="6.5" width="38" height="23" rx="4.5" stroke="url(#paint8_linear_3_205)"/>
<path fill-rule="evenodd" clip-rule="evenodd" d="M151 15V14H153.013V15H151ZM151 17V16H153.05V17H151ZM151 18V19H153.05V18H151Z" fill="#979797"/>
<path fill-rule="evenodd" clip-rule="evenodd" d="M155 12H162.993C163.551 12 164 12.4488 164 13.0025V22.9975C164 23.5442 163.549 24 162.993 24H155H154H150.007C149.449 24 149 23.5512 149 22.9975V13.0025C149 12.4558 149.451 12 150.007 12H154H155ZM154 13.0004C151.772 13.0002 150.007 13 150.007 13C150.006 13 150 22.9975 150 22.9975C150 22.998 151.768 22.9985 154 22.9989V13.0004ZM155 22.999V13.0005C158.663 13.001 163 13.0017 163 13.0025C163 13.0025 162.994 23 162.993 23C162.993 23 158.661 22.9996 155 22.999Z" fill="#575757"/>
<path fill-rule="evenodd" clip-rule="evenodd" d="M58 24C61.3137 24 64 21.3137 64 18C64 14.6863 61.3137 12 58 12C54.6863 12 52 14.6863 52 18C52 21.3137 54.6863 24 58 24Z" fill="#53C22B"/>
<path fill-rule="evenodd" clip-rule="evenodd" d="M38 24C41.3137 24 44 21.3137 44 18C44 14.6863 41.3137 12 38 12C34.6863 12 32 14.6863 32 18C32 21.3137 34.6863 24 38 24Z" fill="#E6C02A"/>
<path fill-rule="evenodd" clip-rule="evenodd" d="M18 24C21.3137 24 24 21.3137 24 18C24 14.6863 21.3137 12 18 12C14.6863 12 12 14.6863 12 18C12 21.3137 14.6863 24 18 24Z" fill="#FF5A52"/>
<g filter="url(#filter4_i_3_205)">
<rect x="102" y="6" width="27" height="24" rx="5" fill="url(#paint9_linear_3_205)"/>
</g>
<rect x="102.5" y="6.5" width="26" height="23" rx="4.5" stroke="url(#paint10_linear_3_205)"/>
<path d="M112.616 21.9844C112.271 22.3478 112.271 22.9181 112.616 23.2816C112.988 23.6723 113.61 23.6723 113.982 23.2816L118.949 18.0537C118.978 18.0236 118.978 17.9764 118.949 17.9463L113.982 12.7184C113.61 12.3277 112.988 12.3277 112.616 12.7184C112.271 13.0819 112.271 13.6522 112.616 14.0156L116.402 18L112.616 21.9844Z" fill="#ADADAD"/>
<g filter="url(#filter5_i_3_205)">
<rect x="76" y="6" width="27" height="24" rx="5" fill="url(#paint11_linear_3_205)"/>
</g>
<rect x="76.5" y="6.5" width="26" height="23" rx="4.5" stroke="url(#paint12_linear_3_205)"/>
<path d="M92.3837 21.9844C92.729 22.3478 92.729 22.9181 92.3837 23.2816C92.0125 23.6723 91.3897 23.6723 91.0185 23.2816L86.051 18.0537C86.0224 18.0236 86.0224 17.9764 86.051 17.9463L91.0185 12.7184C91.3897 12.3277 92.0125 12.3277 92.3837 12.7184C92.729 13.0819 92.729 13.6522 92.3837 14.0156L88.5978 18L92.3837 21.9844Z" fill="#ADADAD"/>
<defs>
<filter id="filter0_i_3_205" x="1208" y="6" width="39" height="24" filterUnits="userSpaceOnUse" color-interpolation-filters="sRGB">
<feFlood flood-opacity="0" result="BackgroundImageFix"/>
<feBlend mode="normal" in="SourceGraphic" in2="BackgroundImageFix" result="shape"/>
<feColorMatrix in="SourceAlpha" type="matrix" values="0 0 0 0 0 0 0 0 0 0 0 0 0 0 0 0 0 0 127 0" result="hardAlpha"/>
<feOffset dy="2"/>
<feComposite in2="hardAlpha" operator="arithmetic" k2="-1" k3="1"/>
<feColorMatrix type="matrix" values="0 0 0 0 1 0 0 0 0 1 0 0 0 0 1 0 0 0 1 0"/>
<feBlend mode="normal" in2="shape" result="effect1_innerShadow_3_205"/>
</filter>
<filter id="filter1_i_3_205" x="1163" y="6" width="39" height="24" filterUnits="userSpaceOnUse" color-interpolation-filters="sRGB">
<feFlood flood-opacity="0" result="BackgroundImageFix"/>
<feBlend mode="normal" in="SourceGraphic" in2="BackgroundImageFix" result="shape"/>
<feColorMatrix in="SourceAlpha" type="matrix" values="0 0 0 0 0 0 0 0 0 0 0 0 0 0 0 0 0 0 127 0" result="hardAlpha"/>
<feOffset dy="2"/>
<feComposite in2="hardAlpha" operator="arithmetic" k2="-1" k3="1"/>
<feColorMatrix type="matrix" values="0 0 0 0 1 0 0 0 0 1 0 0 0 0 1 0 0 0 1 0"/>
<feBlend mode="normal" in2="shape" result="effect1_innerShadow_3_205"/>
</filter>
<filter id="filter2_i_3_205" x="379" y="6" width="518" height="24" filterUnits="userSpaceOnUse" color-interpolation-filters="sRGB">
<feFlood flood-opacity="0" result="BackgroundImageFix"/>
<feBlend mode="normal" in="SourceGraphic" in2="BackgroundImageFix" result="shape"/>
<feColorMatrix in="SourceAlpha" type="matrix" values="0 0 0 0 0 0 0 0 0 0 0 0 0 0 0 0 0 0 127 0" result="hardAlpha"/>
<feOffset dy="2"/>
<feComposite in2="hardAlpha" operator="arithmetic" k2="-1" k3="1"/>
<feColorMatrix type="matrix" values="0 0 0 0 1 0 0 0 0 1 0 0 0 0 1 0 0 0 1 0"/>
<feBlend mode="normal" in2="shape" result="effect1_innerShadow_3_205"/>
</filter>
<filter id="filter3_i_3_205" x="137" y="6" width="39" height="24" filterUnits="userSpaceOnUse" color-interpolation-filters="sRGB">
<feFlood flood-opacity="0" result="BackgroundImageFix"/>
<feBlend mode="normal" in="SourceGraphic" in2="BackgroundImageFix" result="shape"/>
<feColorMatrix in="SourceAlpha" type="matrix" values="0 0 0 0 0 0 0 0 0 0 0 0 0 0 0 0 0 0 127 0" result="hardAlpha"/>
<feOffset dy="2"/>
<feComposite in2="hardAlpha" operator="arithmetic" k2="-1" k3="1"/>
<feColorMatrix type="matrix" values="0 0 0 0 1 0 0 0 0 1 0 0 0 0 1 0 0 0 1 0"/>
<feBlend mode="normal" in2="shape" result="effect1_innerShadow_3_205"/>
</filter>
<filter id="filter4_i_3_205" x="102" y="6" width="27" height="24" filterUnits="userSpaceOnUse" color-interpolation-filters="sRGB">
<feFlood flood-opacity="0" result="BackgroundImageFix"/>
<feBlend mode="normal" in="SourceGraphic" in2="BackgroundImageFix" result="shape"/>
<feColorMatrix in="SourceAlpha" type="matrix" values="0 0 0 0 0 0 0 0 0 0 0 0 0 0 0 0 0 0 127 0" result="hardAlpha"/>
<feOffset dy="2"/>
<feComposite in2="hardAlpha" operator="arithmetic" k2="-1" k3="1"/>
<feColorMatrix type="matrix" values="0 0 0 0 1 0 0 0 0 1 0 0 0 0 1 0 0 0 1 0"/>
<feBlend mode="normal" in2="shape" result="effect1_innerShadow_3_205"/>
</filter>
<filter id="filter5_i_3_205" x="76" y="6" width="27" height="24" filterUnits="userSpaceOnUse" color-interpolation-filters="sRGB">
<feFlood flood-opacity="0" result="BackgroundImageFix"/>
<feBlend mode="normal" in="SourceGraphic" in2="BackgroundImageFix" result="shape"/>
<feColorMatrix in="SourceAlpha" type="matrix" values="0 0 0 0 0 0 0 0 0 0 0 0 0 0 0 0 0 0 127 0" result="hardAlpha"/>
<feOffset dy="2"/>
<feComposite in2="hardAlpha" operator="arithmetic" k2="-1" k3="1"/>
<feColorMatrix type="matrix" values="0 0 0 0 1 0 0 0 0 1 0 0 0 0 1 0 0 0 1 0"/>
<feBlend mode="normal" in2="shape" result="effect1_innerShadow_3_205"/>
</filter>
<linearGradient id="paint0_linear_3_205" x1="639.5" y1="0" x2="639.5" y2="36" gradientUnits="userSpaceOnUse">
<stop stop-color="#E4E4E4"/>
<stop offset="1" stop-color="#CDCCCC"/>
</linearGradient>
<linearGradient id="paint1_linear_3_205" x1="1208" y1="6" x2="1208" y2="30" gradientUnits="userSpaceOnUse">
<stop stop-color="#FBFBFB"/>
<stop offset="1" stop-color="#F3F3F3"/>
</linearGradient>
<linearGradient id="paint2_linear_3_205" x1="1227.5" y1="6" x2="1227.5" y2="30" gradientUnits="userSpaceOnUse">
<stop stop-color="#CECECE"/>
<stop offset="1" stop-color="#ACACAC"/>
</linearGradient>
<linearGradient id="paint3_linear_3_205" x1="1163" y1="6" x2="1163" y2="30" gradientUnits="userSpaceOnUse">
<stop stop-color="#FBFBFB"/>
<stop offset="1" stop-color="#F3F3F3"/>
</linearGradient>
<linearGradient id="paint4_linear_3_205" x1="1182.5" y1="6" x2="1182.5" y2="30" gradientUnits="userSpaceOnUse">
<stop stop-color="#CECECE"/>
<stop offset="1" stop-color="#ACACAC"/>
</linearGradient>
<linearGradient id="paint5_linear_3_205" x1="379" y1="6" x2="379" y2="30" gradientUnits="userSpaceOnUse">
<stop stop-color="#FBFBFB"/>
<stop offset="1" stop-color="#F3F3F3"/>
</linearGradient>
<linearGradient id="paint6_linear_3_205" x1="638" y1="6" x2="638" y2="30" gradientUnits="userSpaceOnUse">
<stop stop-color="#CECECE"/>
<stop offset="1" stop-color="#ACACAC"/>
</linearGradient>
<linearGradient id="paint7_linear_3_205" x1="137" y1="6" x2="137" y2="30" gradientUnits="userSpaceOnUse">
<stop stop-color="#FBFBFB"/>
<stop offset="1" stop-color="#F3F3F3"/>
</linearGradient>
<linearGradient id="paint8_linear_3_205" x1="156.5" y1="6" x2="156.5" y2="30" gradientUnits="userSpaceOnUse">
<stop stop-color="#CECECE"/>
<stop offset="1" stop-color="#ACACAC"/>
</linearGradient>
<linearGradient id="paint9_linear_3_205" x1="102" y1="6" x2="102" y2="30" gradientUnits="userSpaceOnUse">
<stop stop-color="#FBFBFB"/>
<stop offset="1" stop-color="#F3F3F3"/>
</linearGradient>
<linearGradient id="paint10_linear_3_205" x1="115.5" y1="6" x2="115.5" y2="30" gradientUnits="userSpaceOnUse">
<stop stop-color="#CECECE"/>
<stop offset="1" stop-color="#ACACAC"/>
</linearGradient>
<linearGradient id="paint11_linear_3_205" x1="76" y1="6" x2="76" y2="30" gradientUnits="userSpaceOnUse">
<stop stop-color="#FBFBFB"/>
<stop offset="1" stop-color="#F3F3F3"/>
</linearGradient>
<linearGradient id="paint12_linear_3_205" x1="89.5" y1="6" x2="89.5" y2="30" gradientUnits="userSpaceOnUse">
<stop stop-color="#CECECE"/>
<stop offset="1" stop-color="#ACACAC"/>
</linearGradient>
</defs>
</svg>
